<svg version="1.1" xmlns="http://www.w3.org/2000/svg" viewBox="0 0 1082.8 300">
<style type="text/css">
	.st0{fill:#fff;}
	.st1{fill:#fff;}
</style>
<defs>
</defs>
<g>
	<rect id="XMLID_9_" x="258.7" class="st0" width="6.2" height="300"/>
	<path id="XMLID_1_" class="st1" d="M215.6,46.4v204.1H0V46.4H215.6z M27.7,71.1v34h70.8v-34H27.7 M117,105.2h70.8v-34H117V105.2z
		 M49.3,179.4h49.3v-58.8H49.3V179.4z M117,179.4h52.4v-58.8H117V179.4z M27.7,228.9h70.8v-34H27.7V228.9z M117,228.9h70.8v-34H117
		V228.9z"/>
	<g>
		<path class="st0" d="M338.2,168.8c19.1,0,30.6,8.6,30.6,25.5c0,16.5-11.5,25.6-30.6,25.6h-16.9v33.4h-6.8v-84.5H338.2z
			 M338.3,213.5c15.5,0,23.7-6.5,23.7-19.1c0-13.4-9-19.1-23.7-19.1h-17v38.2H338.3z"/>
		<path class="st0" d="M383,228.6l-10.6,24.8h-7.3l36.6-84.5h7.3l36.5,84.5H438l-10.6-24.8H383z M414.6,198.7
			c-3.3-7.8-9.1-21.7-9.2-21.9h-0.2c-0.1,0.1-5.9,13.9-9.2,21.7l-10.2,23.7h39L414.6,198.7z"/>
		<path class="st0" d="M485.7,218.7c-1.9,0-6.7,0-8.6,0h-11.8v34.7h-6.8v-84.5h23.9c19.1,0,30.6,9.4,30.6,25.7
			c0,13.4-7.8,20.7-20.1,22.9l21.2,35.9h-8.4L485.7,218.7z M483.1,212.9c13.5,0,22.9-4.6,22.9-18.1c0-13.4-9.1-19.4-23.7-19.4h-17.1
			v37.5H483.1z"/>
		<path class="st0" d="M557.5,175.4v78h-6.9v-78H521v-6.5h66.2v6.5H557.5z"/>
		<path class="st0" d="M608.5,179.6h-0.2c0,0.1,0.4,9.7,0.4,20v53.7h-6.8v-84.5h6.9l52.7,73.2h0.1c0-0.1-0.2-9.7-0.2-19.7v-53.5h6.8
			v84.5h-6.9L608.5,179.6z"/>
		<path class="st0" d="M688,168.8h55v6.5h-48.2v30.2h38v6.6h-38v34.7h48.3v6.5H688V168.8z"/>
		<path class="st0" d="M786.5,218.7c-1.9,0-6.7,0-8.6,0H766v34.7h-6.8v-84.5h23.9c19.1,0,30.6,9.4,30.6,25.7
			c0,13.4-7.8,20.7-20.1,22.9l21.2,35.9h-8.4L786.5,218.7z M783.8,212.9c13.5,0,23-4.6,23-18.1c0-13.4-9.1-19.4-23.7-19.4H766v37.5
			H783.8z"/>
		<path class="st0" d="M830.8,229c0.7,13.8,11.8,19.6,25.7,19.6c13.5,0,21.6-5.6,21.6-17c0-15.5-14.9-16.4-25.3-18.8
			c-11.5-2.5-26.1-6.4-26.1-23.2c0-14,10-22.3,27.3-22.3c15.2,0,26.4,6.4,29.9,20.8l-6.7,1.8c-2.4-10.3-9.7-16.3-23.2-16.3
			c-13.4,0-20.3,6-20.3,15.7c0,12.3,11.2,15.2,23.2,17.6c12.5,2.4,28.2,5.9,28.2,24.6c0,15.6-10.6,23.4-28.8,23.4
			c-13.9,0-29.9-4.7-32-24L830.8,229z"/>
	</g>
	<g>
		<path class="st1" d="M385.4,131.8c0-11,0.1-12.8,0.1-14h-0.1c-3.9,5.1-14.6,15.5-33.1,15.5c-23.8,0-42.8-17.3-42.8-43.8
			c0-26.9,18.8-43.8,43.1-43.8c19.2,0,32.5,10.5,37.8,22.7l-6.7,1.9c-2.5-5.2-11-18-31.1-18c-21,0-36.2,14.1-36.2,37.1
			c0,23.2,15.9,37.4,36.2,37.4c17,0,29-10,32.6-17V95.4h-26.1v-6.5h32.5v42.9H385.4z"/>
		<path class="st1" d="M436.5,97.1c-1.9,0-6.7,0-8.6,0h-11.8v34.7h-6.8V47.2h23.9c19.1,0,30.6,9.4,30.6,25.7
			c0,13.4-7.8,20.6-20.1,22.9l21.2,35.9h-8.4L436.5,97.1z M433.9,91.3c13.5,0,22.9-4.6,22.9-18.1c0-13.4-9.1-19.4-23.7-19.4h-17.1
			v37.5H433.9z"/>
		<path class="st1" d="M479.8,47.2h55v6.5h-48.2v30.2h38v6.6h-38v34.7h48.3v6.5h-55.1V47.2z"/>
		<path class="st1" d="M551.1,47.2h55v6.5h-48.2v30.2h38v6.6h-38v34.7h48.3v6.5h-55.1V47.2z"/>
		<path class="st1" d="M629,58h-0.2c0,0.1,0.4,9.7,0.4,20v53.7h-6.8V47.2h6.9l52.7,73.2h0.1c0-0.1-0.2-9.7-0.2-19.7V47.2h6.8v84.5
			h-6.9L629,58z"/>
		<path class="st1" d="M709.6,107.4c0.7,13.8,11.8,19.6,25.7,19.6c13.5,0,21.6-5.6,21.6-17c0-15.5-14.9-16.4-25.3-18.8
			c-11.5-2.5-26.1-6.4-26.1-23.2c0-14,10-22.3,27.3-22.3c15.2,0,26.4,6.4,29.9,20.8l-6.7,1.8c-2.4-10.3-9.7-16.3-23.2-16.3
			c-13.4,0-20.3,6-20.3,15.7c0,12.3,11.2,15.2,23.2,17.6c12.5,2.4,28.2,5.9,28.2,24.6c0,15.6-10.6,23.4-28.8,23.4
			c-13.9,0-29.9-4.7-32-24L709.6,107.4z"/>
		<path class="st1" d="M806.5,53.8v78h-6.9v-78H770v-6.5h66.2v6.5H806.5z"/>
		<path class="st1" d="M883.5,45.5c24,0,43.2,17.4,43.2,43.8s-19.1,43.8-43.2,43.8c-24.1,0-43.1-17.4-43.1-43.8
			S859.4,45.5,883.5,45.5z M883.5,126.7c20.1,0,36.2-14,36.2-37.3c0-23.2-16.1-37.2-36.2-37.2c-20.2,0-36.2,14.1-36.2,37.2
			C847.3,112.6,863.3,126.7,883.5,126.7z"/>
		<path class="st1" d="M948.2,58H948c0,0.1,0.4,9.7,0.4,20v53.7h-6.8V47.2h6.9l52.7,73.2h0.1c0-0.1-0.2-9.7-0.2-19.7V47.2h6.8v84.5
			h-6.9L948.2,58z"/>
		<path class="st1" d="M1027.7,47.2h55v6.5h-48.2v30.2h38v6.6h-38v34.7h48.3v6.5h-55.1V47.2z"/>
	</g>
</g>
</svg>
