<!-- Generator: Adobe Illustrator 21.1.0, SVG Export Plug-In  -->
<svg version="1.1"
	 xmlns="http://www.w3.org/2000/svg" xmlns:xlink="http://www.w3.org/1999/xlink" xmlns:a="http://ns.adobe.com/AdobeSVGViewerExtensions/3.0/"
	 x="0px" y="0px" width="105.5px" height="29.4px" viewBox="0 0 105.5 29.4" style="enable-background:new 0 0 105.5 29.4;"
	 xml:space="preserve">
<style type="text/css">
	.st0{fill:#666666;}
	.st1{fill:#148E70;}
</style>
<defs>
</defs>
<rect x="25.4" class="st0" width="0.6" height="29.4"/>
<path class="st1" d="M21.1,24.6H0v-20h21.1V24.6z M2.7,10.3h6.9V7H2.7V10.3z M11.5,10.3h6.9V7h-6.9V10.3z M4.8,17.6h4.8v-5.8H4.8
	V17.6z M11.5,17.6h5.1v-5.8h-5.1V17.6z M2.7,22.4h6.9v-3.3H2.7V22.4z M11.5,22.4h6.9v-3.3h-6.9V22.4z"/>
<path class="st0" d="M38.3,22.2c-0.7,1.5-2.1,2.4-3.8,2.4c-2.3,0-4.2-1.7-4.2-4.2c0-2.6,1.8-4.2,4.2-4.2c1.9,0,3.2,1,3.7,2.2
	l-0.7,0.2c-0.3-0.5-1.1-1.7-3-1.7c-2,0-3.5,1.4-3.5,3.6c0,2.2,1.5,3.6,3.5,3.6c1.4,0,2.6-0.7,3.2-1.9L38.3,22.2z"/>
<path class="st0" d="M43.5,16.2c2.3,0,4.2,1.7,4.2,4.2c0,2.5-1.9,4.2-4.2,4.2c-2.3,0-4.2-1.7-4.2-4.2C39.4,17.8,41.2,16.2,43.5,16.2
	 M43.5,24c2,0,3.5-1.3,3.5-3.6c0-2.2-1.6-3.6-3.5-3.6c-2,0-3.5,1.4-3.5,3.6C40,22.6,41.6,24,43.5,24"/>
<path class="st0" d="M55.9,20.3c0-1.1,0-2.9,0-3h0c0,0-0.3,0.6-1.1,2.1l-1.7,3h-0.4L51,19.5c-0.9-1.5-1.1-2.1-1.1-2.1h0
	c0,0,0,1.9,0,3v4.1h-0.7v-8.1h0.7l3,5.3h0l3-5.3h0.7v8.1h-0.7V20.3z"/>
<path class="st0" d="M60.7,16.3c1.9,0,3,0.8,3,2.5c0,1.6-1.1,2.5-3,2.5h-1.6v3.2h-0.7v-8.1H60.7z M60.8,20.6c1.5,0,2.3-0.6,2.3-1.8
	c0-1.3-0.9-1.8-2.3-1.8h-1.6v3.7H60.8z"/>
<path class="st0" d="M65.1,22.1l-1,2.4h-0.7l3.6-8.1h0.7l3.5,8.1h-0.7l-1-2.4H65.1z M68.2,19.2c-0.3-0.8-0.9-2.1-0.9-2.1h0
	c0,0-0.6,1.3-0.9,2.1l-1,2.3h3.8L68.2,19.2z"/>
<path class="st0" d="M73.1,17.4L73.1,17.4c0,0,0,0.9,0,1.9v5.2h-0.7v-8.1h0.7l5.1,7h0c0,0,0-0.9,0-1.9v-5.1h0.7v8.1h-0.7L73.1,17.4z
	"/>
<rect x="80.8" y="16.3" class="st0" width="0.7" height="8.1"/>
<polygon class="st0" points="83.4,16.3 88.7,16.3 88.7,17 84.1,17 84.1,19.9 87.8,19.9 87.8,20.5 84.1,20.5 84.1,23.8 88.7,23.8 
	88.7,24.5 83.4,24.5 "/>
<path class="st0" d="M90.4,22.1c0.1,1.3,1.2,1.9,2.5,1.9c1.3,0,2.1-0.5,2.1-1.6c0-1.5-1.5-1.6-2.5-1.8c-1.1-0.2-2.5-0.6-2.5-2.2
	c0-1.3,1-2.1,2.6-2.1c1.5,0,2.6,0.6,2.9,2l-0.7,0.2c-0.2-1-0.9-1.6-2.3-1.6c-1.3,0-2,0.6-2,1.5c0,1.2,1.1,1.5,2.3,1.7
	c1.2,0.2,2.7,0.6,2.7,2.4c0,1.5-1,2.3-2.8,2.3c-1.3,0-2.9-0.5-3.1-2.3L90.4,22.1z"/>
<path class="st1" d="M37.7,12.9c0-1.1,0-1.2,0-1.3h0C37.4,12,36.3,13,34.5,13c-2.3,0-4.2-1.7-4.2-4.2c0-2.6,1.8-4.2,4.2-4.2
	c1.9,0,3.2,1,3.7,2.2l-0.7,0.2c-0.2-0.5-1.1-1.7-3-1.7c-2,0-3.5,1.4-3.5,3.6c0,2.2,1.5,3.6,3.5,3.6c1.6,0,2.8-1,3.2-1.6V9.4h-2.5
	V8.7h3.2v4.1H37.7z"/>
<path class="st1" d="M42.7,9.5h-0.8h-1.1v3.3h-0.7V4.7h2.3c1.9,0,3,0.9,3,2.5c0,1.3-0.8,2-2,2.2l2.1,3.5h-0.8L42.7,9.5z M42.5,9
	c1.3,0,2.2-0.4,2.2-1.7c0-1.3-0.9-1.9-2.3-1.9h-1.7V9H42.5z"/>
<polygon class="st1" points="46.9,4.7 52.3,4.7 52.3,5.4 47.6,5.4 47.6,8.3 51.3,8.3 51.3,8.9 47.6,8.9 47.6,12.2 52.3,12.2 
	52.3,12.9 46.9,12.9 "/>
<polygon class="st1" points="53.8,4.7 59.2,4.7 59.2,5.4 54.5,5.4 54.5,8.3 58.2,8.3 58.2,8.9 54.5,8.9 54.5,12.2 59.2,12.2 
	59.2,12.9 53.8,12.9 "/>
<path class="st1" d="M61.4,5.8L61.4,5.8c0,0,0,0.9,0,1.9v5.2h-0.7V4.7h0.7l5.1,7h0c0,0,0-0.9,0-1.9V4.7h0.7v8.1h-0.7L61.4,5.8z"/>
<path class="st1" d="M69.2,10.5c0.1,1.3,1.2,1.9,2.5,1.9c1.3,0,2.1-0.5,2.1-1.6c0-1.5-1.5-1.6-2.5-1.8c-1.1-0.2-2.5-0.6-2.5-2.2
	c0-1.3,1-2.1,2.6-2.1c1.5,0,2.6,0.6,2.9,2l-0.7,0.2c-0.2-1-0.9-1.6-2.3-1.6c-1.3,0-2,0.6-2,1.5c0,1.2,1.1,1.5,2.3,1.7
	c1.2,0.2,2.7,0.6,2.7,2.4c0,1.5-1,2.3-2.8,2.3c-1.3,0-2.9-0.5-3.1-2.3L69.2,10.5z"/>
<polygon class="st1" points="78.7,5.4 78.7,12.9 78,12.9 78,5.4 75.1,5.4 75.1,4.7 81.5,4.7 81.5,5.4 "/>
<path class="st1" d="M86.1,4.6c2.3,0,4.2,1.7,4.2,4.2c0,2.5-1.9,4.2-4.2,4.2c-2.3,0-4.2-1.7-4.2-4.2C81.9,6.2,83.8,4.6,86.1,4.6
	 M86.1,12.4c2,0,3.5-1.3,3.5-3.6c0-2.2-1.6-3.6-3.5-3.6c-2,0-3.5,1.4-3.5,3.6C82.6,11,84.2,12.4,86.1,12.4"/>
<path class="st1" d="M92.4,5.8L92.4,5.8c0,0,0,0.9,0,1.9v5.2h-0.7V4.7h0.7l5.1,7h0c0,0,0-0.9,0-1.9V4.7h0.7v8.1h-0.7L92.4,5.8z"/>
<polygon class="st1" points="100.1,4.7 105.5,4.7 105.5,5.4 100.8,5.4 100.8,8.3 104.5,8.3 104.5,8.9 100.8,8.9 100.8,12.2 
	105.5,12.2 105.5,12.9 100.1,12.9 "/>
</svg>
