<?xml version="1.0" encoding="utf-8"?>
<!-- Generator: Adobe Illustrator 21.0.0, SVG Export Plug-In . SVG Version: 6.00 Build 0)  -->
<svg version="1.0" id="Layer_1" xmlns="http://www.w3.org/2000/svg" xmlns:xlink="http://www.w3.org/1999/xlink" x="0px" y="0px"
	 viewBox="0 0 54.4 54.44" enable-background="new 0 0 54.4 54.44" xml:space="preserve">
<path fill="#178F70" d="M53.97,32.05c-0.91,5.01-3.05,9.45-6.47,13.23c-1.74,1.93-3.65,3.56-5.7,4.89
	c-3.43,2.21-7.31,3.57-11.63,4.05c-0.66,0.07-1.32,0.15-1.99,0.22h-1.91c-0.24-0.04-0.49-0.09-0.72-0.12
	c-1.06-0.12-2.13-0.16-3.16-0.36c-6.66-1.27-12.16-4.52-16.41-9.82c-3.28-4.08-5.2-8.75-5.75-13.97c-0.07-0.66-0.15-1.33-0.22-2
	v-1.91c0.04-0.24,0.09-0.48,0.12-0.72c0.11-1.06,0.16-2.12,0.36-3.16c0.61-3.22,1.68-6.16,3.24-8.84c1.55-2.67,3.57-5.06,6.08-7.16
	c4.19-3.52,9.02-5.58,14.47-6.16c0.66-0.07,1.32-0.14,2-0.22h1.91c0.2,0.04,0.41,0.1,0.61,0.11c2.66,0.12,5.22,0.67,7.72,1.57
	C48.9,6.16,56.32,19.05,53.97,32.05z"/>
<path fill="#FFFFFF" d="M11.72,19.32c2.14,2,4.29,4.01,6.43,6.01c2.71,2.53,5.41,5.06,8.12,7.59c0.92,0.86,0.92,0.87,1.87-0.02
	c4.53-4.23,9.04-8.47,13.57-12.69c0.34-0.31,0.71-0.59,1.24-1.03c0.04,0.56,0.08,0.89,0.08,1.23c0,5.43,0,10.86,0,16.29
	c0,1.62-0.48,2.09-2.11,2.09c-9.17,0-18.33,0-27.5,0c-1.55,0-1.99-0.43-1.99-1.97c0-5.46,0-10.92,0-16.38c0-0.34,0-0.67,0-1.01
	C11.53,19.38,11.63,19.35,11.72,19.32z"/>
<path fill="#FFFFFF" d="M41.7,16.67c-1.35,1.27-2.52,2.38-3.7,3.49c-3.33,3.12-6.69,6.22-9.99,9.37c-0.65,0.62-1.02,0.54-1.63-0.04
	c-4.25-4.01-8.53-8-12.81-11.98c-0.23-0.21-0.56-0.32-0.85-0.47c0.09-0.12,0.17-0.25,0.26-0.37C22.45,16.67,31.93,16.67,41.7,16.67z
	"/>
</svg>
