<?xml version="1.0" encoding="utf-8"?>
<!-- Generator: Adobe Illustrator 21.0.0, SVG Export Plug-In . SVG Version: 6.00 Build 0)  -->
<svg version="1.0" id="Layer_1" xmlns="http://www.w3.org/2000/svg" xmlns:xlink="http://www.w3.org/1999/xlink" x="0px" y="0px"
	 viewBox="0 0 54.4 54.44" enable-background="new 0 0 54.4 54.44" xml:space="preserve">
<path fill="#178F70" d="M53.97,32.05c-0.91,5.01-3.05,9.45-6.46,13.23c-1.74,1.93-3.65,3.56-5.7,4.89
	c-3.43,2.21-7.31,3.57-11.63,4.05c-0.67,0.07-1.33,0.15-2,0.22h-1.91c-0.24-0.04-0.48-0.09-0.72-0.12
	c-1.05-0.12-2.12-0.16-3.16-0.36c-6.66-1.27-12.16-4.52-16.41-9.82C2.7,40.06,0.78,35.4,0.22,30.18c-0.07-0.66-0.15-1.33-0.22-2
	v-1.91c0.04-0.24,0.09-0.48,0.12-0.72c0.12-1.06,0.16-2.12,0.36-3.16c0.68-3.62,1.96-6.89,3.84-9.83c1.46-2.27,3.29-4.33,5.48-6.17
	c4.19-3.52,9.02-5.58,14.47-6.16c0.67-0.07,1.33-0.14,2-0.22h1.91c0.2,0.04,0.41,0.1,0.62,0.11c2.65,0.12,5.21,0.67,7.71,1.57
	C48.9,6.16,56.33,19.05,53.97,32.05z"/>
<path fill="#FFFFFF" d="M10.54,16.39c-0.03-1.59,0.58-2.83,1.86-3.75c0.79-0.57,1.57-1.15,2.37-1.7c0.79-0.55,1.78-0.47,2.48,0.21
	c1.29,1.26,2.57,2.54,3.83,3.84c0.76,0.78,0.82,1.69,0.25,2.62c-0.41,0.66-0.8,1.33-1.19,2.01c-0.4,0.69-0.4,1.38-0.07,2.12
	c0.7,1.53,1.64,2.9,2.71,4.18c2.25,2.69,4.71,5.16,7.61,7.14c0.81,0.55,1.73,0.95,2.6,1.42c0.47,0.25,0.97,0.24,1.43,0
	c0.77-0.4,1.52-0.82,2.26-1.27c1.13-0.68,1.98-0.61,2.91,0.31c1.17,1.16,2.34,2.33,3.5,3.49c0.9,0.91,1,1.8,0.28,2.85
	c-0.51,0.74-1.07,1.46-1.58,2.2c-1.17,1.66-2.83,2.02-4.69,1.75c-3.15-0.46-5.86-1.97-8.38-3.78c-6-4.3-11.15-9.46-15.2-15.66
	c-1.26-1.93-2.28-4-2.74-6.28C10.67,17.52,10.62,16.95,10.54,16.39z"/>
</svg>
