<!-- Generator: Adobe Illustrator 21.1.0, SVG Export Plug-In  -->
<svg version="1.1"
	 xmlns="http://www.w3.org/2000/svg" xmlns:xlink="http://www.w3.org/1999/xlink" xmlns:a="http://ns.adobe.com/AdobeSVGViewerExtensions/3.0/"
	 x="0px" y="0px" width="99.4px" height="19.6px" viewBox="0 0 99.4 19.6" style="enable-background:new 0 0 99.4 19.6;"
	 xml:space="preserve">
<style type="text/css">
	.st0{fill:#FFFFFF;}
	.st1{fill:#019070;}
</style>
<defs>
</defs>
<rect class="st0" width="99.4" height="19.6"/>
<g>
	<path class="st1" d="M24.7,7.7h2c1.6,0,2.7,1.1,2.7,2.6v0c0,1.4-1.1,2.6-2.7,2.6h-2V7.7z M26.7,11.8c0.9,0,1.5-0.6,1.5-1.5v0
		c0-0.9-0.6-1.5-1.5-1.5h-0.9v3.1H26.7z"/>
	<path class="st1" d="M29.7,10.3L29.7,10.3c0-1.5,1.2-2.7,2.7-2.7c1.6,0,2.7,1.2,2.7,2.6v0c0,1.5-1.2,2.7-2.7,2.7
		C30.9,12.9,29.7,11.7,29.7,10.3z M34,10.3L34,10.3c0-0.9-0.6-1.6-1.6-1.6s-1.5,0.7-1.5,1.6v0c0,0.9,0.6,1.6,1.6,1.6
		S34,11.1,34,10.3z"/>
	<path class="st1" d="M35.1,7.7h1.2l1.1,3.5l1.2-3.5h1l1.2,3.5l1.1-3.5h1.2l-1.8,5.2h-1L39,9.5l-1.2,3.4h-1L35.1,7.7z"/>
	<path class="st1" d="M43.3,7.7h1l2.4,3.2V7.7h1.1v5.1h-1l-2.5-3.3v3.3h-1.1V7.7z"/>
	<path class="st1" d="M48.6,7.7h1.1v4.1h2.6v1h-3.7V7.7z"/>
	<path class="st1" d="M52.2,10.3L52.2,10.3c0-1.5,1.2-2.7,2.7-2.7c1.6,0,2.7,1.2,2.7,2.6v0c0,1.5-1.2,2.7-2.7,2.7
		C53.4,12.9,52.2,11.7,52.2,10.3z M56.5,10.3L56.5,10.3c0-0.9-0.6-1.6-1.6-1.6s-1.5,0.7-1.5,1.6v0c0,0.9,0.6,1.6,1.6,1.6
		S56.5,11.1,56.5,10.3z"/>
	<path class="st1" d="M59.7,7.6h1l2.2,5.2h-1.2l-0.5-1.2h-2.2l-0.5,1.2h-1.2L59.7,7.6z M60.9,10.7L60.2,9l-0.7,1.7H60.9z"/>
	<path class="st1" d="M63.3,7.7h2c1.6,0,2.7,1.1,2.7,2.6v0c0,1.4-1.1,2.6-2.7,2.6h-2V7.7z M65.3,11.8c0.9,0,1.5-0.6,1.5-1.5v0
		c0-0.9-0.6-1.5-1.5-1.5h-0.9v3.1H65.3z"/>
	<path class="st1" d="M70.4,7.7h3.9v1h-2.8v1.1h2.5v1h-2.5v2h-1.1V7.7z"/>
	<path class="st1" d="M74.7,7.7h1.1v4.1h2.6v1h-3.7V7.7z"/>
	<path class="st1" d="M79.3,10.8l-2-3.1h1.3l1.2,2.1l1.2-2.1h1.3l-2,3.1v2h-1.1V10.8z"/>
	<path class="st1" d="M82.7,7.7h3.9v1h-2.8v1h2.4v1h-2.4v1.1h2.8v1h-3.9V7.7z"/>
	<path class="st1" d="M87.2,7.7h2.3c0.7,0,1.2,0.2,1.5,0.5c0.3,0.3,0.4,0.7,0.4,1.2v0c0,0.8-0.4,1.4-1.1,1.6l1.3,1.8h-1.3l-1.1-1.6
		h0h-0.9v1.6h-1.1V7.7z M89.5,10.2c0.6,0,0.9-0.3,0.9-0.7v0c0-0.5-0.3-0.7-0.9-0.7h-1.1v1.5H89.5z"/>
</g>
<path class="st1" d="M18.3,11.7c0-0.1-0.1-0.2-0.2-0.3c-0.3-0.3-0.9-0.4-1.8-0.4c-0.6,0-1.4,0-2.2,0.2c-0.4-0.2-0.7-0.4-1-0.7
	c-0.8-0.7-1.4-1.7-1.8-2.8c0-0.1,0-0.2,0.1-0.3c0,0,0.4-2.4,0.3-3.3c0-0.1,0-0.1-0.1-0.2l0-0.1c-0.1-0.3-0.3-0.6-0.7-0.5l-0.2,0h0
	c-0.4,0-0.7,0.2-0.8,0.5c-0.3,1,0,2.4,0.5,4.3l-0.1,0.3C10,9.1,9.5,10,9.1,10.8l0,0.1c-0.4,0.8-0.8,1.5-1.1,2l-0.3,0.2
	c0,0-0.6,0.3-0.8,0.4c-1.2,0.7-2,1.5-2.1,2.1c0,0.2,0,0.5,0.2,0.6l0.3,0.2c0.1,0.1,0.3,0.1,0.5,0.1c0.8,0,1.8-1,3.2-3.4
	c1.5-0.5,3.3-0.9,4.9-1.2c1.2,0.7,2.6,1.1,3.5,1.1c0.2,0,0.3,0,0.4,0c0.2,0,0.3-0.1,0.4-0.3C18.3,12.5,18.4,12.1,18.3,11.7
	 M5.6,15.9c0.2-0.4,0.8-1.2,1.7-2c0.1,0,0.2-0.2,0.3-0.3C6.6,15.1,6,15.7,5.6,15.9 M10.9,3.6c0.3,0,0.4,0.7,0.4,1.3
	c0,0.6-0.1,1.1-0.3,1.4c-0.2-0.5-0.2-1.3-0.2-1.8C10.8,4.6,10.8,3.6,10.9,3.6 M9.3,12.3c0.2-0.3,0.4-0.7,0.6-1.1
	c0.5-0.9,0.8-1.6,1-2.2c0.5,0.8,1,1.5,1.7,2.1c0.1,0.1,0.2,0.1,0.3,0.2C11.5,11.6,10.4,11.9,9.3,12.3 M17.9,12.3
	c-0.1,0.1-0.3,0.1-0.5,0.1c-0.5,0-1.1-0.2-2-0.6c0.3,0,0.6,0,0.9,0c0.5,0,0.6,0,1.1,0.1C17.9,12,18,12.2,17.9,12.3"/>
</svg>
