<!-- Generator: Adobe Illustrator 21.1.0, SVG Export Plug-In  -->
<svg version="1.1"
	 xmlns="http://www.w3.org/2000/svg" xmlns:xlink="http://www.w3.org/1999/xlink" xmlns:a="http://ns.adobe.com/AdobeSVGViewerExtensions/3.0/"
	 x="0px" y="0px" width="97px" height="31px" viewBox="0 0 97 31" style="enable-background:new 0 0 97 31;" xml:space="preserve">
<style type="text/css">
	.st0{opacity:0.5;enable-background:new    ;}
	.st1{fill:none;}
	.st2{fill:#FFFFFF;}
</style>
<defs>
</defs>
<g class="st0">
	<rect x="0.4" y="0.1" width="96" height="30.1"/>
	<rect x="0.4" y="0.1" class="st1" width="96" height="30.1"/>
	<rect class="st1" width="97" height="31"/>
</g>
<g>
	<path class="st2" d="M28.2,12h1.7v6.3h3.9v1.6h-5.7V12z"/>
	<path class="st2" d="M34.5,12h6v1.5h-4.2v1.6H40v1.5h-3.7v1.7h4.3v1.5h-6V12z"/>
	<path class="st2" d="M44.1,11.9h1.6l3.4,8h-1.8l-0.7-1.8h-3.3l-0.7,1.8h-1.8L44.1,11.9z M45.9,16.6l-1-2.6l-1,2.6H45.9z"/>
	<path class="st2" d="M49,18.7l1-1.2c0.7,0.6,1.5,1,2.4,1c0.7,0,1.1-0.3,1.1-0.7v0c0-0.4-0.3-0.7-1.6-1c-1.6-0.4-2.6-0.8-2.6-2.4v0
		c0-1.4,1.2-2.4,2.8-2.4c1.2,0,2.1,0.4,2.9,1l-0.9,1.3c-0.7-0.5-1.4-0.8-2.1-0.8s-1,0.3-1,0.7v0c0,0.5,0.3,0.7,1.7,1
		c1.6,0.4,2.5,1,2.5,2.4v0c0,1.6-1.2,2.5-2.9,2.5C51.1,20,49.9,19.6,49,18.7z"/>
	<path class="st2" d="M56.1,12h6v1.5h-4.2v1.6h3.7v1.5h-3.7v1.7h4.3v1.5h-6V12z"/>
	<path class="st2" d="M63,12h3.1c2.5,0,4.2,1.7,4.2,3.9v0c0,2.2-1.7,4-4.2,4H63V12z M66.1,18.3c1.4,0,2.4-1,2.4-2.4v0
		c0-1.4-1-2.4-2.4-2.4h-1.3v4.8H66.1z"/>
</g>
</svg>
