<!-- Generator: Adobe Illustrator 21.1.0, SVG Export Plug-In  -->
<svg version="1.1"
	 xmlns="http://www.w3.org/2000/svg" xmlns:xlink="http://www.w3.org/1999/xlink" xmlns:a="http://ns.adobe.com/AdobeSVGViewerExtensions/3.0/"
	 x="0px" y="0px" width="186.5px" height="36.1px" viewBox="0 0 186.5 36.1" style="enable-background:new 0 0 186.5 36.1;"
	 xml:space="preserve">
<style type="text/css">
	.st0{fill:#797A77;}
	.st1{fill:#148E70;}
</style>
<defs>
</defs>
<g>
	<rect id="XMLID_9_" x="31.2" class="st0" width="0.7" height="36.1"/>
	<path id="XMLID_1_" class="st1" d="M26,5.6v24.6H0V5.6H26z M3.3,8.6v4.1h8.5V8.6H3.3 M14.1,12.7h8.5V8.6h-8.5V12.7z M5.9,21.6h5.9
		v-7.1H5.9V21.6z M14.1,21.6h6.3v-7.1h-6.3V21.6z M3.3,27.6h8.5v-4.1H3.3V27.6z M14.1,27.6h8.5v-4.1h-8.5V27.6z"/>
	<g>
		<path class="st0" d="M39.2,27.5l-1.3,3h-0.9l4.4-10.2h0.9l4.4,10.2h-0.9l-1.3-3H39.2z M43,23.9c-0.4-0.9-1.1-2.6-1.1-2.6h0
			c0,0-0.7,1.7-1.1,2.6l-1.2,2.9h4.7L43,23.9z"/>
		<path class="st0" d="M48.5,27.6c0.1,1.7,1.4,2.4,3.1,2.4c1.6,0,2.6-0.7,2.6-2.1c0-1.9-1.8-2-3.1-2.3c-1.4-0.3-3.1-0.8-3.1-2.8
			c0-1.7,1.2-2.7,3.3-2.7c1.8,0,3.2,0.8,3.6,2.5L54,22.9c-0.3-1.2-1.2-2-2.8-2c-1.6,0-2.4,0.7-2.4,1.9c0,1.5,1.4,1.8,2.8,2.1
			c1.5,0.3,3.4,0.7,3.4,3c0,1.9-1.3,2.8-3.5,2.8c-1.7,0-3.6-0.6-3.9-2.9L48.5,27.6z"/>
		<path class="st0" d="M56.8,27.6c0.1,1.7,1.4,2.4,3.1,2.4c1.6,0,2.6-0.7,2.6-2.1c0-1.9-1.8-2-3.1-2.3c-1.4-0.3-3.1-0.8-3.1-2.8
			c0-1.7,1.2-2.7,3.3-2.7c1.8,0,3.2,0.8,3.6,2.5l-0.8,0.2c-0.3-1.2-1.2-2-2.8-2c-1.6,0-2.4,0.7-2.4,1.9c0,1.5,1.4,1.8,2.8,2.1
			c1.5,0.3,3.4,0.7,3.4,3c0,1.9-1.3,2.8-3.5,2.8c-1.7,0-3.6-0.6-3.9-2.9L56.8,27.6z"/>
		<path class="st0" d="M65.1,20.3h6.6v0.8h-5.8v3.6h4.6v0.8h-4.6v4.2h5.8v0.8h-6.6V20.3z"/>
		<path class="st0" d="M77.5,21.1v9.4h-0.8v-9.4h-3.6v-0.8h8v0.8H77.5z"/>
		<path class="st0" d="M94.7,25.4c0-1.3,0-3.7,0-3.7h0c0,0-0.4,0.8-1.4,2.6L91.2,28h-0.5l-2.1-3.7c-1.1-1.9-1.4-2.7-1.4-2.7h0
			c0,0,0,2.4,0,3.7v5.2h-0.8V20.3h0.9l3.7,6.6h0l3.7-6.6h0.9v10.2h-0.8V25.4z"/>
		<path class="st0" d="M99.2,27.5l-1.3,3h-0.9l4.4-10.2h0.9l4.4,10.2h-0.9l-1.3-3H99.2z M103,23.9c-0.4-0.9-1.1-2.6-1.1-2.6h0
			c0,0-0.7,1.7-1.1,2.6l-1.2,2.9h4.7L103,23.9z"/>
		<path class="st0" d="M109.1,21.6L109.1,21.6c0,0,0,1.2,0,2.4v6.5h-0.8V20.3h0.8l6.4,8.8h0c0,0,0-1.2,0-2.4v-6.4h0.8v10.2h-0.8
			L109.1,21.6z"/>
		<path class="st0" d="M120,27.5l-1.3,3h-0.9l4.4-10.2h0.9l4.4,10.2h-0.9l-1.3-3H120z M123.8,23.9c-0.4-0.9-1.1-2.6-1.1-2.6h0
			c0,0-0.7,1.7-1.1,2.6l-1.2,2.9h4.7L123.8,23.9z"/>
		<path class="st0" d="M137.2,30.5c0-1.3,0-1.5,0-1.7h0c-0.5,0.6-1.8,1.9-4,1.9c-2.9,0-5.2-2.1-5.2-5.3c0-3.2,2.3-5.3,5.2-5.3
			c2.3,0,3.9,1.3,4.6,2.7l-0.8,0.2c-0.3-0.6-1.3-2.2-3.7-2.2c-2.5,0-4.4,1.7-4.4,4.5c0,2.8,1.9,4.5,4.4,4.5c2,0,3.5-1.2,3.9-2.1
			v-1.7h-3.1v-0.8h3.9v5.2H137.2z"/>
		<path class="st0" d="M140.1,20.3h6.6v0.8h-5.8v3.6h4.6v0.8h-4.6v4.2h5.8v0.8h-6.6V20.3z"/>
		<path class="st0" d="M157,25.4c0-1.3,0-3.7,0-3.7h0c0,0-0.4,0.8-1.4,2.6l-2.1,3.7H153l-2.1-3.7c-1.1-1.9-1.4-2.7-1.4-2.7h0
			c0,0,0,2.4,0,3.7v5.2h-0.8V20.3h0.9l3.7,6.6h0l3.7-6.6h0.9v10.2H157V25.4z"/>
		<path class="st0" d="M160.2,20.3h6.6v0.8H161v3.6h4.6v0.8H161v4.2h5.8v0.8h-6.6V20.3z"/>
		<path class="st0" d="M169.6,21.6L169.6,21.6c0,0,0,1.2,0,2.4v6.5h-0.8V20.3h0.8l6.4,8.8h0c0,0,0-1.2,0-2.4v-6.4h0.8v10.2h-0.8
			L169.6,21.6z"/>
		<path class="st0" d="M182.9,21.1v9.4h-0.8v-9.4h-3.6v-0.8h8v0.8H182.9z"/>
	</g>
	<g>
		<path class="st1" d="M46.4,15.9c0-1.3,0-1.5,0-1.7h0c-0.5,0.6-1.8,1.9-4,1.9c-2.9,0-5.2-2.1-5.2-5.3c0-3.2,2.3-5.3,5.2-5.3
			c2.3,0,3.9,1.3,4.6,2.7l-0.8,0.2c-0.3-0.6-1.3-2.2-3.7-2.2c-2.5,0-4.4,1.7-4.4,4.5c0,2.8,1.9,4.5,4.4,4.5c2,0,3.5-1.2,3.9-2.1
			v-1.7h-3.1v-0.8h3.9v5.2H46.4z"/>
		<path class="st1" d="M52.6,11.7c-0.2,0-0.8,0-1,0h-1.4v4.2h-0.8V5.7h2.9c2.3,0,3.7,1.1,3.7,3.1c0,1.6-0.9,2.5-2.4,2.8l2.5,4.3h-1
			L52.6,11.7z M52.3,11c1.6,0,2.8-0.6,2.8-2.2c0-1.6-1.1-2.3-2.9-2.3h-2.1V11H52.3z"/>
		<path class="st1" d="M57.8,5.7h6.6v0.8h-5.8v3.6h4.6v0.8h-4.6v4.2h5.8v0.8h-6.6V5.7z"/>
		<path class="st1" d="M66.4,5.7H73v0.8h-5.8v3.6h4.6v0.8h-4.6v4.2H73v0.8h-6.6V5.7z"/>
		<path class="st1" d="M75.8,7L75.8,7c0,0,0,1.2,0,2.4v6.5H75V5.7h0.8l6.4,8.8h0c0,0,0-1.2,0-2.4V5.7H83v10.2h-0.8L75.8,7z"/>
		<path class="st1" d="M85.5,12.9c0.1,1.7,1.4,2.4,3.1,2.4c1.6,0,2.6-0.7,2.6-2.1c0-1.9-1.8-2-3.1-2.3c-1.4-0.3-3.1-0.8-3.1-2.8
			c0-1.7,1.2-2.7,3.3-2.7c1.8,0,3.2,0.8,3.6,2.5l-0.8,0.2c-0.3-1.2-1.2-2-2.8-2c-1.6,0-2.4,0.7-2.4,1.9c0,1.5,1.4,1.8,2.8,2.1
			c1.5,0.3,3.4,0.7,3.4,3c0,1.9-1.3,2.8-3.5,2.8c-1.7,0-3.6-0.6-3.9-2.9L85.5,12.9z"/>
		<path class="st1" d="M97.2,6.5v9.4h-0.8V6.5h-3.6V5.7h8v0.8H97.2z"/>
		<path class="st1" d="M106.5,5.5c2.9,0,5.2,2.1,5.2,5.3s-2.3,5.3-5.2,5.3c-2.9,0-5.2-2.1-5.2-5.3S103.5,5.5,106.5,5.5z M106.5,15.3
			c2.4,0,4.4-1.7,4.4-4.5c0-2.8-1.9-4.5-4.4-4.5c-2.4,0-4.4,1.7-4.4,4.5C102.1,13.6,104,15.3,106.5,15.3z"/>
		<path class="st1" d="M114.2,7L114.2,7c0,0,0,1.2,0,2.4v6.5h-0.8V5.7h0.8l6.4,8.8h0c0,0,0-1.2,0-2.4V5.7h0.8v10.2h-0.8L114.2,7z"/>
		<path class="st1" d="M123.8,5.7h6.6v0.8h-5.8v3.6h4.6v0.8h-4.6v4.2h5.8v0.8h-6.6V5.7z"/>
	</g>
</g>
</svg>
