<svg xmlns="http://www.w3.org/2000/svg" xmlns:xlink="http://www.w3.org/1999/xlink" viewBox="0 0 744.38 174.95"><defs><style>.cls-1,.cls-2{fill:#ccc;}.cls-2{mix-blend-mode:multiply;}.cls-3{isolation:isolate;}.cls-4{clip-path:url(#clip-path);}.cls-5{clip-path:url(#clip-path-3);}.cls-6{clip-path:url(#clip-path-4);}.cls-7{fill:#a3a3a3;}</style><clipPath id="clip-path"><rect id="_Clipping_Path_" data-name="&lt;Clipping Path&gt;" class="cls-1" x="354.39" y="63.83" width="34.16" height="100.37"/></clipPath><clipPath id="clip-path-3"><rect id="_Clipping_Path_3" data-name="&lt;Clipping Path&gt;" class="cls-2" x="53.32" y="93.8" width="32.07" height="70.4"/></clipPath><clipPath id="clip-path-4"><rect id="_Clipping_Path_4" data-name="&lt;Clipping Path&gt;" class="cls-1" x="9.7" y="115.04" width="24.61" height="49.16"/></clipPath></defs><title>Gray</title><g class="cls-3"><g id="Layer_1" data-name="Layer 1"><polygon class="cls-1" points="179.85 103.67 179.85 164.2 132.29 164.2 132.29 164.01 147.17 164.01 147.17 103.76 132.29 103.76 132.29 103.67 139.55 103.67 139.55 68.27 146.07 68.27 146.07 59.68 166.06 59.68 166.06 68.27 172.59 68.27 172.59 103.67 179.85 103.67"/><g id="_Clip_Group_" data-name="&lt;Clip Group&gt;"><rect id="_Clipping_Path_5" data-name="&lt;Clipping Path&gt;" class="cls-1" x="354.39" y="63.83" width="34.16" height="100.37"/><g class="cls-4"><g id="_Clip_Group_2" data-name="&lt;Clip Group&gt;"><rect id="_Clipping_Path_6" data-name="&lt;Clipping Path&gt;" class="cls-1" x="354.39" y="63.83" width="34.16" height="100.37"/><g class="cls-4"><polygon id="_Path_" data-name="&lt;Path&gt;" class="cls-1" points="381.72 63.83 381.72 68.46 385.13 68.46 385.13 73.76 388.55 73.76 388.55 164.2 385.13 164.2 381.72 164.2 374.89 164.2 371.47 164.2 354.39 164.2 354.39 63.83 381.72 63.83"/></g></g></g></g><g id="_Clip_Group_3" data-name="&lt;Clip Group&gt;"><rect id="_Clipping_Path_7" data-name="&lt;Clipping Path&gt;" class="cls-2" x="53.32" y="93.8" width="32.07" height="70.4"/><g class="cls-5"><rect id="_Path_2" data-name="&lt;Path&gt;" class="cls-1" x="53.32" y="93.8" width="32.07" height="70.4"/></g></g><g id="_Clip_Group_4" data-name="&lt;Clip Group&gt;"><rect id="_Clipping_Path_8" data-name="&lt;Clipping Path&gt;" class="cls-1" x="9.7" y="115.04" width="24.61" height="49.16"/><g class="cls-6"><rect id="_Path_3" data-name="&lt;Path&gt;" class="cls-1" x="9.7" y="115.04" width="24.61" height="49.16"/></g></g><polygon class="cls-1" points="553.72 90.56 553.72 113.89 550.97 113.89 550.97 117.3 548.35 117.3 546.85 90.56 553.72 90.56"/><path class="cls-1" d="M583.4,133.92a2.54,2.54,0,0,0-.5,2,3.49,3.49,0,0,0,1.57,2.34,18.9,18.9,0,0,0,6.8,2.78v1.27h.82v-1.13a20.12,20.12,0,0,0,2.69.22v.93h-14.3v-25h-4.25v-16h18.56v34.37a13.87,13.87,0,0,1-7.53-2.27A3,3,0,0,0,583.4,133.92Z"/><path class="cls-1" d="M615.32,88.65v17.21h-4.94V164.2H598.49V150.78A2.57,2.57,0,0,0,600,149a6.41,6.41,0,0,1,7.61,2,2.63,2.63,0,0,0,2.63-2.63c0-.06,0-.11,0-.44,0-.57,0-2,0-5.59H598.49V101.28h-3.7V88.65Z"/><polygon class="cls-1" points="503.88 94.91 503.88 106.69 498.61 106.69 498.61 164.2 479.94 164.2 479.94 110.76 464.88 110.76 464.88 94.91 472.27 94.91 472.27 91.99 496.48 91.99 496.48 94.91 503.88 94.91"/><polygon class="cls-1" points="539.73 106.69 539.73 164.2 503.88 164.2 503.88 106.69 506.42 106.69 506.42 102.51 531.94 102.51 531.94 106.69 539.73 106.69"/><rect class="cls-7" x="498.61" y="106.69" width="5.27" height="57.51"/><path class="cls-1" d="M671.6,117.3v14.13a1.58,1.58,0,0,0-.26.26H658.82v1.36h-4.16v1.53h-3v2h-.83V113.9h17.77v3.41Z"/><polygon class="cls-7" points="648.88 136.54 648.88 148.17 650.78 148.17 650.78 164.2 639.03 164.2 639.03 117.3 645.94 117.3 645.94 113.89 650.78 113.89 650.78 136.54 648.88 136.54"/><polygon class="cls-1" points="650.78 96.18 650.78 113.89 645.94 113.89 645.94 117.3 639.03 117.3 639.03 164.2 635.43 164.2 635.43 105.86 630.71 105.86 630.71 96.18 634.51 96.18 634.51 91.23 646.97 91.23 646.97 96.18 650.78 96.18"/><polygon id="_Path_4" data-name="&lt;Path&gt;" class="cls-1" points="226.29 83.44 226.29 83.43 218.89 83.43 218.89 80.52 218.89 80.52 218.89 80.52 194.69 80.52 194.69 80.52 194.69 80.52 194.69 83.43 187.29 83.43 187.29 83.43 187.29 83.44 187.29 164.2 187.29 164.2 187.29 164.2 226.29 164.2 226.29 164.2 226.29 83.44 226.29 83.44"/><path class="cls-1" d="M294.81,92.21v72h-1.31a13.86,13.86,0,0,0-5.4-10.83V92.21Z"/><path class="cls-1" d="M728,155c-1.16,3.22-1.94,6.59-1.48,9.17H698V114.27h30Z"/><rect class="cls-7" x="464.87" y="110.76" width="15.07" height="53.45"/><rect class="cls-1" x="447.97" y="110.76" width="16.9" height="53.45"/><path class="cls-1" d="M696.64,105.86v25.84H686.43a2.15,2.15,0,0,0-1.6-.8h-2.16a3.75,3.75,0,0,0-3.77-3,4,4,0,0,0-.5,0,.85.85,0,1,1,1.64-.23h0a3.68,3.68,0,0,0,2.88-2.94,4,4,0,0,0-.09-2.22,1.74,1.74,0,0,1-1.5-.32,1.71,1.71,0,0,1-1.47-.39,4,4,0,0,0-.95,1.48,4,4,0,0,0-1-1.28l-.08-.06-.07.07a1.64,1.64,0,0,1-1.33.49l-.07,0-.05.06a1.42,1.42,0,0,1-.83.39V117.3H671.6V105.86Z"/><path class="cls-7" d="M674.79,123.1a4,4,0,0,0,.11,2.29,5.3,5.3,0,0,0,.55,1.11V130a4,4,0,0,0-.34.92h-2.16a2.13,2.13,0,0,0-1.35.54V117.3h3.85V123a1.89,1.89,0,0,1-.54,0h-.1Z"/><polygon class="cls-1" points="344.33 66.77 344.33 164.2 330.72 164.2 330.72 91.35 315.06 73.01 315.06 66.77 322.14 66.77 322.14 58.71 324.6 58.71 324.6 53.01 329.83 49.74 334.8 53.01 334.8 58.71 337.25 58.71 337.25 66.77 344.33 66.77"/><path id="_Compound_Path_" data-name="&lt;Compound Path&gt;" class="cls-1" d="M713.84,105.23v.14h.29a11,11,0,0,1-1.4.27l.06.14,1.26-.25c-.49,1.16-4,8.38-4.19,8.75h.54l1-2.21.36.93-.66,1.29h.54l.47-1h5.15v1h.83v-1h5.15l.47,1h.54l-.66-1.29.36-.93,1,2.21h.54c-.19-.39-4.14-8.64-4.19-8.75l.9.18.12-.06v0a6.51,6.51,0,0,1-1.1-.23h.29v-.14a1,1,0,0,0,.45-.51h.36v-.16H722s0-5.64,0-5.7a.61.61,0,0,0,.19-.64c-.07-.25-.36-.46-.76-.65l-.08,0a19.15,19.15,0,0,0-3.56-.91v-.18l-.06,0,0-.12c.12-.08,0-.21,0-.29v-.33h-.08V96c-.08.08-.16.21,0,.29l0,.12-.06,0v.18c-.85.17-4.14.68-4.4,1.59a.6.6,0,0,0,.19.64v5.7h-1v.16h1A1,1,0,0,0,713.84,105.23Zm7.07.27,2.89,6.21-.44.71-2.72-5.89Zm-1.65,2-.75-.65.12-.09h1.27l.1.14h0Zm.88-.6h.23l1.21,2.61-2.25-2Zm1.52,2.8.82,1.78h-.84l-3.46-3,1.07-.86Zm1,2.11.42.9-1-.9Zm-3.39-6.24h1.13l0,.41-1.11,0Zm-1.11,0h.76V106h-.76Zm0,.74h2.12v.14h-.33v.14h-1.07l0,0h-.13l0,0h-.59Zm.37.45,0,0,0,0Zm-.21,0,.1.09-.26.2c0-.1,0-.2,0-.29Zm-.15.4.32-.26.74.65-1.06.85Zm0,1.37,3.39,3h-3.39Zm0,3.29h3.77l1.22,1.07h-5Zm-.83,1.07h-5l1.22-1.07h3.77C717.3,112.25,717.3,112.61,717.3,112.93Zm0-6.57v.27h-1.79v-.14h-.33v-.14h2.12Zm-.32.48,0,0H717Zm.32.36v1.24l-1.06-.85L717,107Zm-1.87-.26.1-.14h1.27l.12.09-.74.65-.76-.61Zm.74.71,1.07.86-3.46,3H713l.82-1.78Zm1.13.92v3h-3.39Zm-3.89,3.29-1,.9.42-.9Zm3.89-4.76-.26-.2.1-.09h.15C717.3,106.9,717.3,107,717.3,107.1Zm-.76-1.48h.76V106h-.76Zm-1.1,0h.75V106h-1.11l0-.41h.38Zm-.15,1.33.82.65-2.25,2,1.21-2.61Zm-.77-1.44h0l.27,1-2.72,5.89h0l-.44-.71,2.89-6.21Z"/><rect class="cls-7" x="132.29" y="103.76" width="14.88" height="60.26"/><rect class="cls-1" x="118.29" y="103.76" width="14" height="60.26"/><rect class="cls-7" x="594.78" y="101.28" width="3.7" height="41.06"/><path class="cls-1" d="M728,155c-1.16,3.22-1.94,6.59-1.48,9.17H698V114.27h30Z"/></g></g></svg>