<?xml version="1.0" encoding="utf-8"?>
<!-- Generator: Adobe Illustrator 21.0.0, SVG Export Plug-In . SVG Version: 6.00 Build 0)  -->
<svg version="1.0" id="Layer_1" xmlns="http://www.w3.org/2000/svg" xmlns:xlink="http://www.w3.org/1999/xlink" x="0px" y="0px"
	 width="744.38px" height="174.95px" viewBox="0 0 744.38 174.95" enable-background="new 0 0 744.38 174.95" xml:space="preserve">
<polygon id="XMLID_906_" fill="#5AC0A0" points="579.82,117.15 579.82,117.15 572.88,117.15 572.88,113.72 550.19,113.72 
	550.19,117.15 543.26,117.15 543.26,117.15 543.26,117.15 543.26,164.24 543.26,164.24 543.26,164.24 579.82,164.24 579.82,164.24 
	579.82,117.15 "/>
<polygon id="XMLID_903_" fill="#148E70" points="79.55,82.45 79.84,82.45 79.84,51.49 83.8,51.49 83.8,27.43 88.33,27.43 88.33,0 
	90.07,0 90.07,27.43 92.25,27.43 94.42,27.43 94.42,0 96.17,0 96.17,27.43 100.71,27.43 100.71,51.49 104.67,51.49 104.67,82.45 
	109.53,82.45 109.53,164.23 92.25,164.23 74.83,164.23 74.83,132.34 74.83,82.45 "/>
<g id="XMLID_896_">
	<g id="XMLID_897_">
		<defs>
			<rect id="XMLID_898_" x="208.15" y="90.3" width="32.72" height="73.94"/>
		</defs>
		<use xlink:href="#XMLID_898_"  overflow="visible" fill="#148E70"/>
		<clipPath id="XMLID_2_">
			<use xlink:href="#XMLID_898_"  overflow="visible"/>
		</clipPath>
		<g id="XMLID_899_" clip-path="url(#XMLID_2_)">
			<defs>
				<rect id="XMLID_900_" x="208.15" y="90.3" width="32.72" height="73.94"/>
			</defs>
			<use xlink:href="#XMLID_900_"  overflow="visible" fill="#148E70"/>
			<clipPath id="XMLID_3_">
				<use xlink:href="#XMLID_900_"  overflow="visible"/>
			</clipPath>
			<rect id="XMLID_901_" x="208.15" y="90.3" clip-path="url(#XMLID_3_)" fill="#148E70" width="32.72" height="73.94"/>
		</g>
	</g>
</g>
<g id="XMLID_892_">
	<g id="XMLID_893_">
		<g id="XMLID_894_">
			<polygon id="XMLID_895_" fill="#148E70" points="35.31,103.45 35.31,67.91 39.32,67.91 39.32,59.3 51.58,59.3 51.58,67.91 
				55.58,67.91 55.58,103.45 60.04,103.45 60.04,164.23 30.86,164.23 30.86,103.45 			"/>
		</g>
	</g>
</g>
<g id="XMLID_876_">
	<g id="XMLID_877_">
		<g id="XMLID_878_">
			<defs>
				<rect id="XMLID_879_" x="242.48" y="67" width="40.7" height="97.24"/>
			</defs>
			<use xlink:href="#XMLID_879_"  overflow="visible" fill="#5AC0A0"/>
			<clipPath id="XMLID_4_">
				<use xlink:href="#XMLID_879_"  overflow="visible"/>
			</clipPath>
			<rect id="XMLID_880_" x="242.48" y="67" clip-path="url(#XMLID_4_)" fill="#5AC0A0" width="40.7" height="97.24"/>
		</g>
	</g>
</g>
<g id="XMLID_866_">
	<g id="XMLID_867_">
		<g id="XMLID_868_">
			<defs>
				<rect id="XMLID_869_" x="609.84" y="105.66" width="25.15" height="58.58"/>
			</defs>
			<use xlink:href="#XMLID_869_"  overflow="visible" fill="#5AC0A0"/>
			<clipPath id="XMLID_5_">
				<use xlink:href="#XMLID_869_"  overflow="visible"/>
			</clipPath>
			<rect id="XMLID_870_" x="609.84" y="105.66" clip-path="url(#XMLID_5_)" fill="#5AC0A0" width="25.15" height="58.58"/>
		</g>
	</g>
</g>
<polygon id="XMLID_853_" fill="#148E70" points="308.84,72.54 308.99,72.54 313.06,72.54 313.21,72.54 329.06,91.08 329.06,164.23 
	316.05,164.23 313.31,164.23 313.06,164.23 308.99,164.23 308.74,164.23 306,164.23 293,164.23 293,91.08 "/>
<g id="XMLID_826_">
	<path id="XMLID_847_" fill="#5AC0A0" d="M471.98,164.23h39.75v-24.55h-39.75V164.23z"/>
	<path id="XMLID_845_" fill="#5AC0A0" d="M488.51,164.23h6.67v-11.87h-6.67V164.23z"/>
	<path id="XMLID_843_" fill="#5AC0A0" d="M474.37,161.55h11.74v-11.87h-11.74V161.55z"/>
	<g id="XMLID_840_">
		<path id="XMLID_842_" fill-rule="evenodd" clip-rule="evenodd" fill="#5AC0A0" d="M479.2,157.08c-0.88,1.08-0.48,3.21-0.48,3.21
			c0.29,0.18,1.33,0.26,1.33,0.26v1h0.43l0.03-1c0.97-0.03,1.28-0.29,1.28-0.29c0.3-2.3-0.38-3.09-0.47-3.18H479.2z"/>
		<path id="XMLID_841_" fill-rule="evenodd" clip-rule="evenodd" fill="#5AC0A0" d="M481.33,156.66c0.14-1.65,0.61-1.94,0.61-1.94
			l0.13-0.84c-0.49-0.45-1.36-0.61-1.36-0.61v-0.63c-0.56-0.4-0.93,0-0.93,0l-0.08,0.63c-0.33,0.01-1.3,0.58-1.3,0.58l0.16,0.87
			c0.43,0.34,0.6,1.39,0.66,1.94H481.33z"/>
	</g>
	<path id="XMLID_838_" fill="#5AC0A0" d="M497.42,161.55h11.74v-11.87h-11.74V161.55z"/>
	<g id="XMLID_829_">
		<polygon id="XMLID_837_" fill="#5AC0A0" points="505.97,151.21 505.99,151.78 506.49,151.51 506.4,152.07 506.94,151.9 
			506.73,152.43 507.29,152.38 506.98,152.85 507.54,152.93 507.14,153.32 507.67,153.51 507.2,153.81 507.68,154.11 507.15,154.31 
			507.56,154.69 507,154.78 507.33,155.24 506.76,155.21 506.98,155.73 506.43,155.58 506.54,156.14 506.04,155.88 506.03,156.44 
			505.59,156.08 505.46,156.63 505.11,156.19 504.87,156.7 504.61,156.2 504.27,156.65 504.13,156.1 503.7,156.47 503.67,155.9 
			503.18,156.17 503.27,155.62 502.73,155.78 502.94,155.25 502.37,155.3 502.68,154.83 502.12,154.76 502.53,154.36 501.99,154.17 
			502.47,153.87 501.99,153.57 502.51,153.38 502.1,152.99 502.66,152.9 502.34,152.44 502.9,152.47 502.69,151.95 503.23,152.1 
			503.13,151.55 503.63,151.81 503.64,151.24 504.08,151.6 504.21,151.05 504.56,151.49 504.8,150.98 505.05,151.49 505.4,151.04 
			505.54,151.58 		"/>
		<g id="XMLID_830_">
			<path id="XMLID_831_" fill="#5AC0A0" d="M503.82,153.8c-0.48-0.21-0.46-0.62-0.29-1.01c0.16-0.37,0.46-0.7,0.94-0.49
				c0.49,0.21,0.43,0.65,0.27,1.01C504.57,153.69,504.27,153.99,503.82,153.8z M504.34,152.58c-0.23-0.1-0.38,0.15-0.47,0.36
				c-0.11,0.27-0.16,0.48,0.06,0.57c0.2,0.09,0.34-0.12,0.44-0.36C504.47,152.95,504.56,152.68,504.34,152.58z M503.79,154.99
				l-0.29-0.13l2.21-2.19l0.29,0.13L503.79,154.99z M505.02,155.47c-0.48-0.21-0.46-0.61-0.29-1.01c0.16-0.37,0.45-0.7,0.94-0.49
				c0.49,0.21,0.43,0.65,0.27,1.01C505.78,155.37,505.48,155.66,505.02,155.47z M505.55,154.25c-0.23-0.1-0.38,0.15-0.47,0.36
				c-0.11,0.27-0.16,0.48,0.06,0.58c0.2,0.09,0.34-0.12,0.45-0.36C505.68,154.62,505.77,154.35,505.55,154.25z"/>
		</g>
	</g>
	<path id="XMLID_827_" fill="#5AC0A0" d="M470.27,147.91h43.16l-1.71-2.46h-39.75L470.27,147.91z"/>
</g>
<path id="XMLID_824_" fill="#5AC0A0" d="M674.02,164.23h9.19v-14.19h-9.19V164.23z"/>
<path id="XMLID_822_" fill="#5AC0A0" d="M654.53,161.02h16.17v-14.19h-16.17V161.02z"/>
<g id="XMLID_819_">
	<path id="XMLID_821_" fill-rule="evenodd" clip-rule="evenodd" fill="#5AC0A0" d="M661.19,155.68c-1.21,1.29-0.66,3.84-0.66,3.84
		c0.4,0.22,1.83,0.32,1.83,0.32v1.2h0.59l0.04-1.2c1.34-0.03,1.76-0.35,1.76-0.35c0.41-2.75-0.53-3.7-0.65-3.8H661.19z"/>
	<path id="XMLID_820_" fill-rule="evenodd" clip-rule="evenodd" fill="#5AC0A0" d="M664.12,155.18c0.2-1.98,0.84-2.32,0.84-2.32
		l0.18-1.01c-0.68-0.54-1.87-0.72-1.87-0.72v-0.76c-0.77-0.47-1.28,0-1.28,0l-0.11,0.76c-0.46,0.02-1.79,0.69-1.79,0.69l0.22,1.04
		c0.6,0.41,0.83,1.66,0.91,2.32H664.12z"/>
</g>
<path id="XMLID_817_" fill="#5AC0A0" d="M686.3,161.02h16.17v-14.19H686.3V161.02z"/>
<g id="XMLID_808_">
	<polygon id="XMLID_816_" fill="#5AC0A0" points="698.07,148.67 698.11,149.34 698.79,149.02 698.67,149.69 699.41,149.49 
		699.13,150.12 699.9,150.06 699.47,150.63 700.25,150.71 699.69,151.19 700.43,151.41 699.77,151.78 700.44,152.13 699.71,152.36 
		700.27,152.83 699.5,152.93 699.95,153.48 699.17,153.44 699.47,154.07 698.72,153.89 698.87,154.55 698.17,154.24 698.16,154.92 
		697.55,154.49 697.38,155.14 696.89,154.62 696.56,155.23 696.21,154.62 695.74,155.16 695.54,154.51 694.95,154.95 694.92,154.27 
		694.23,154.6 694.36,153.93 693.61,154.12 693.9,153.5 693.12,153.55 693.55,152.99 692.78,152.9 693.33,152.43 692.6,152.2 
		693.25,151.84 692.59,151.49 693.32,151.25 692.75,150.79 693.52,150.69 693.08,150.13 693.86,150.17 693.55,149.55 694.3,149.73 
		694.16,149.06 694.85,149.38 694.87,148.7 695.47,149.13 695.65,148.47 696.14,149 696.47,148.39 696.82,148.99 697.29,148.46 
		697.48,149.11 	"/>
	<g id="XMLID_809_">
		<path id="XMLID_810_" fill="#5AC0A0" d="M695.11,151.76c-0.66-0.25-0.63-0.74-0.4-1.2c0.22-0.45,0.63-0.84,1.3-0.59
			c0.67,0.25,0.59,0.78,0.37,1.21C696.15,151.63,695.73,151.99,695.11,151.76z M695.84,150.3c-0.31-0.12-0.52,0.18-0.64,0.43
			c-0.16,0.32-0.21,0.57,0.09,0.69c0.28,0.1,0.47-0.14,0.61-0.43C696.02,150.75,696.14,150.41,695.84,150.3z M695.08,153.19
			l-0.41-0.15l3.05-2.61l0.4,0.15L695.08,153.19z M696.78,153.75c-0.66-0.25-0.63-0.73-0.4-1.21c0.22-0.44,0.63-0.83,1.29-0.58
			c0.67,0.25,0.59,0.78,0.37,1.21C697.82,153.63,697.4,153.98,696.78,153.75z M697.51,152.3c-0.31-0.12-0.52,0.18-0.64,0.43
			c-0.16,0.32-0.22,0.58,0.08,0.69c0.28,0.1,0.47-0.14,0.62-0.43C697.68,152.74,697.81,152.41,697.51,152.3z"/>
	</g>
</g>
<g id="XMLID_797_">
	<path id="XMLID_803_" fill="#5AC0A0" d="M682.57,122.43c-1.01,0.17-1.5-0.32-1.5-0.32s-0.66,0.22-1.49-0.39
		c0,0-0.81,0.73-1.08,1.96c-0.21,0.91-0.31,2.86,1.27,3.93l0.01,0c1.89-0.25,2.67-2.04,2.89-2.95
		C682.97,123.45,682.57,122.43,682.57,122.43z M679.19,123.75c-0.03,0-0.04-0.02-0.04-0.04c0-0.08,0.48-0.24,0.58-0.25l0.01,0
		c0.03,0,0.06-0.01,0.09-0.01c0.1,0,0.18,0.04,0.26,0.12c0.08,0.08,0.12,0.15,0.12,0.21c0,0.05-0.03,0.07-0.04,0.08l0,0
		c0,0-0.03,0.03-0.08,0.03c-0.04,0-0.07-0.02-0.11-0.05c-0.02-0.02-0.03-0.04-0.04-0.05c-0.05-0.06-0.07-0.09-0.19-0.09l-0.05,0
		c-0.1,0-0.17,0-0.47,0.06C679.2,123.75,679.2,123.75,679.19,123.75z M681.2,125.72c0,0.01-0.21,0.61-0.91,0.61
		c-0.08,0-0.16-0.01-0.25-0.02c-0.81-0.19-0.8-1.01-0.8-1.02l0-0.16l0.06,0.14c0,0,0.17,0.37,0.86,0.49
		c0.15,0.03,0.29,0.04,0.42,0.04c0.4,0,0.57-0.12,0.57-0.12l0.08-0.06L681.2,125.72z M682.02,124.39l-0.01,0.02l-0.03,0
		c-0.01,0-0.03-0.01-0.04-0.02c-0.24-0.2-0.3-0.23-0.39-0.28l-0.03-0.02c-0.1-0.06-0.15-0.05-0.22-0.02
		c-0.02,0.01-0.04,0.02-0.06,0.02c-0.02,0.01-0.04,0.01-0.06,0.01c-0.08,0-0.11-0.06-0.12-0.09v0c0,0-0.01-0.03,0.01-0.08
		c0.03-0.05,0.09-0.1,0.2-0.13c0.04-0.01,0.08-0.02,0.12-0.02c0.11,0,0.18,0.05,0.24,0.09l0.01,0.01
		C681.73,123.97,682.04,124.32,682.02,124.39z"/>
	<path id="XMLID_798_" fill="#5AC0A0" d="M678.91,123.84c-0.39-1.22-1.26-1.88-1.3-1.91l-0.08-0.06l-0.07,0.06
		c-0.72,0.63-1.34,0.49-1.34,0.49l-0.07-0.02l-0.05,0.06c-0.02,0.02-0.42,0.48-1.37,0.41l-0.1-0.01l-0.03,0.09
		c-0.01,0.04-0.31,1.1,0.11,2.31c0.15,0.44,1.03,2.67,3.26,2.76l0.03,0l0.04-0.01l0.02-0.01
		C679.68,126.59,679.05,124.29,678.91,123.84z M676.95,124.04c0.01-0.01,0.05-0.05,0.1-0.05c0.03,0,0.07,0.01,0.1,0.04
		c0.02,0.01,0.04,0.03,0.05,0.04c0.06,0.05,0.09,0.07,0.21,0.05l0.04-0.01c0.1-0.02,0.16-0.03,0.46-0.14
		c0.02-0.01,0.03-0.01,0.04-0.01c0.02,0,0.05,0.02,0.05,0.04c0.01,0.09-0.44,0.33-0.53,0.36l-0.01,0c-0.04,0.01-0.09,0.03-0.15,0.03
		c-0.07,0-0.15-0.03-0.22-0.08c-0.1-0.06-0.15-0.13-0.16-0.19C676.92,124.07,676.95,124.04,676.95,124.04z M676.31,124.57
		c-0.07,0.19-0.19,0.23-0.27,0.26l-0.01,0c-0.12,0.04-0.36,0.06-0.5,0.06c-0.09,0-0.14,0-0.15-0.05c-0.01-0.05,0.04-0.06,0.06-0.06
		c0.3-0.09,0.36-0.12,0.45-0.16l0.04-0.02c0.11-0.05,0.12-0.09,0.14-0.16c0-0.02,0.01-0.04,0.02-0.07c0.03-0.1,0.1-0.12,0.13-0.12
		c0.03,0,0.05,0.01,0.05,0.01c0,0,0.04,0.01,0.07,0.06C676.36,124.38,676.35,124.46,676.31,124.57z M678.44,126.41
		c0,0-0.06,0.06-0.16,0.03c-0.06-0.02-0.49-0.09-0.84,0.03c-0.45,0.14-0.7,0.47-0.73,0.51c-0.06,0.09-0.14,0.07-0.14,0.07
		s-0.07-0.06-0.1-0.21c-0.05-0.26,0.04-0.47,0.04-0.55c0.01-0.07,0.05-0.11,0.11-0.16c0.05-0.03,0.13-0.04,0.29-0.03
		c0.19,0.02,0.4-0.05,0.4-0.05s0.14-0.06,0.28-0.19c0.12-0.11,0.19-0.15,0.24-0.15c0.08,0,0.14,0.01,0.19,0.06
		c0.05,0.06,0.25,0.18,0.36,0.41C678.46,126.31,678.44,126.41,678.44,126.41z"/>
</g>
<g id="XMLID_772_">
	<path id="XMLID_795_" fill="#5AC0A0" d="M698.77,134.5v-2.9h-40.31v2.9h-7.23v29.73H706V134.5H698.77z"/>
	<g id="XMLID_788_">
		<path id="XMLID_793_" fill="#5AC0A0" d="M675.38,159.82h6.67v-7.45h-6.67V159.82z"/>
		<path id="XMLID_791_" fill="#5AC0A0" d="M684.5,164.23h17.04v-11.87H684.5V164.23z"/>
		<path id="XMLID_789_" fill="#5AC0A0" d="M655.89,164.23h17.04v-11.87h-17.04V164.23z"/>
	</g>
	<path id="XMLID_786_" fill="#5AC0A0" d="M702.95,136.47v-3.51h-16.2c0-1.11-1.06-2.17-2.17-2.17h-2.17
		c-0.45-1.79-1.86-2.98-3.79-2.98c-1.93,0-3.35,1.19-3.79,2.98h-2.17c-1.11,0-2.18,1.06-2.18,2.17h-16.19v3.51h-5.8v11.66h59.81
		v-11.66H702.95z"/>
	<g id="XMLID_784_">
		<g>
			
				<line fill="none" stroke="#FFFFFF" stroke-width="0.7682" stroke-linecap="round" stroke-linejoin="round" x1="702.54" y1="146.24" x2="702.54" y2="146.24"/>
			
				<line fill="none" stroke="#FFFFFF" stroke-width="0.7682" stroke-linecap="round" stroke-linejoin="round" stroke-dasharray="0,1.1405" x1="701.4" y1="146.24" x2="655.21" y2="146.24"/>
			
				<line fill="none" stroke="#FFFFFF" stroke-width="0.7682" stroke-linecap="round" stroke-linejoin="round" x1="654.64" y1="146.24" x2="654.64" y2="146.24"/>
			
				<line fill="none" stroke="#FFFFFF" stroke-width="0.7682" stroke-linecap="round" stroke-linejoin="round" stroke-dasharray="0,1.0897" x1="654.64" y1="145.15" x2="654.64" y2="140.24"/>
			
				<line fill="none" stroke="#FFFFFF" stroke-width="0.7682" stroke-linecap="round" stroke-linejoin="round" x1="654.64" y1="139.7" x2="654.64" y2="139.7"/>
			
				<line fill="none" stroke="#FFFFFF" stroke-width="0.7682" stroke-linecap="round" stroke-linejoin="round" stroke-dasharray="0,1.1405" x1="655.78" y1="139.7" x2="701.97" y2="139.7"/>
			
				<line fill="none" stroke="#FFFFFF" stroke-width="0.7682" stroke-linecap="round" stroke-linejoin="round" x1="702.54" y1="139.7" x2="702.54" y2="139.7"/>
			
				<line fill="none" stroke="#FFFFFF" stroke-width="0.7682" stroke-linecap="round" stroke-linejoin="round" stroke-dasharray="0,1.0897" x1="702.54" y1="140.79" x2="702.54" y2="145.69"/>
		</g>
	</g>
	<g id="XMLID_773_">
		<path id="XMLID_779_" fill="#5AC0A0" d="M682.57,132.23c-1.01,0.17-1.5-0.32-1.5-0.32s-0.66,0.22-1.49-0.39
			c0,0-0.81,0.73-1.08,1.96c-0.21,0.91-0.31,2.86,1.27,3.93l0.01,0c1.89-0.25,2.67-2.04,2.89-2.95
			C682.97,133.24,682.57,132.23,682.57,132.23z M679.19,133.55c-0.03,0-0.04-0.02-0.04-0.04c0-0.08,0.48-0.24,0.58-0.25l0.01,0
			c0.03,0,0.06-0.01,0.09-0.01c0.1,0,0.18,0.04,0.26,0.12c0.08,0.08,0.12,0.15,0.12,0.21c0,0.05-0.03,0.07-0.04,0.08l0,0
			c0,0-0.03,0.03-0.08,0.03c-0.04,0-0.07-0.02-0.11-0.05c-0.02-0.02-0.03-0.04-0.04-0.05c-0.05-0.06-0.07-0.09-0.19-0.09l-0.05,0
			c-0.1,0-0.17,0-0.47,0.06C679.2,133.55,679.2,133.55,679.19,133.55z M681.2,135.51c0,0.01-0.21,0.61-0.91,0.61
			c-0.08,0-0.16-0.01-0.25-0.02c-0.81-0.19-0.8-1.01-0.8-1.02l0-0.16l0.06,0.14c0,0,0.17,0.37,0.86,0.49
			c0.15,0.03,0.29,0.04,0.42,0.04c0.4,0,0.57-0.12,0.57-0.12l0.08-0.06L681.2,135.51z M682.02,134.18l-0.01,0.02l-0.03,0
			c-0.01,0-0.03-0.01-0.04-0.02c-0.24-0.2-0.3-0.23-0.39-0.28l-0.03-0.02c-0.1-0.06-0.15-0.05-0.22-0.02
			c-0.02,0.01-0.04,0.02-0.06,0.02c-0.02,0.01-0.04,0.01-0.06,0.01c-0.08,0-0.11-0.06-0.12-0.09v0c0,0-0.01-0.03,0.01-0.08
			c0.03-0.05,0.09-0.1,0.2-0.13c0.04-0.01,0.08-0.02,0.12-0.02c0.11,0,0.18,0.05,0.24,0.09l0.01,0.01
			C681.73,133.76,682.04,134.12,682.02,134.18z"/>
		<path id="XMLID_774_" fill="#5AC0A0" d="M678.91,133.63c-0.39-1.22-1.26-1.88-1.3-1.91l-0.08-0.06l-0.07,0.06
			c-0.72,0.63-1.34,0.49-1.34,0.49l-0.07-0.02l-0.05,0.06c-0.02,0.02-0.42,0.48-1.37,0.41l-0.1-0.01l-0.03,0.09
			c-0.01,0.04-0.31,1.1,0.11,2.31c0.15,0.44,1.03,2.67,3.26,2.76l0.03,0l0.04-0.01l0.02-0.01
			C679.68,136.38,679.05,134.08,678.91,133.63z M676.95,133.83c0.01-0.01,0.05-0.05,0.1-0.05c0.03,0,0.07,0.01,0.1,0.04
			c0.02,0.01,0.04,0.03,0.05,0.04c0.06,0.05,0.09,0.07,0.21,0.05l0.04-0.01c0.1-0.02,0.16-0.03,0.46-0.14
			c0.02-0.01,0.03-0.01,0.04-0.01c0.02,0,0.05,0.02,0.05,0.04c0.01,0.09-0.44,0.33-0.53,0.36l-0.01,0
			c-0.04,0.01-0.09,0.03-0.15,0.03c-0.07,0-0.15-0.03-0.22-0.08c-0.1-0.06-0.15-0.13-0.16-0.19
			C676.92,133.87,676.95,133.84,676.95,133.83z M676.31,134.37c-0.07,0.19-0.19,0.23-0.27,0.26l-0.01,0
			c-0.12,0.04-0.36,0.06-0.5,0.06c-0.09,0-0.14,0-0.15-0.05c-0.01-0.05,0.04-0.06,0.06-0.06c0.3-0.09,0.36-0.12,0.45-0.16l0.04-0.02
			c0.11-0.05,0.12-0.09,0.14-0.16c0-0.02,0.01-0.04,0.02-0.07c0.03-0.1,0.1-0.12,0.13-0.12c0.03,0,0.05,0.01,0.05,0.01
			c0,0,0.04,0.01,0.07,0.06C676.36,134.18,676.35,134.26,676.31,134.37z M678.44,136.2c0,0-0.06,0.06-0.16,0.03
			c-0.06-0.02-0.49-0.09-0.84,0.03c-0.45,0.14-0.7,0.47-0.73,0.51c-0.06,0.09-0.14,0.07-0.14,0.07s-0.07-0.06-0.1-0.21
			c-0.05-0.26,0.04-0.47,0.04-0.55c0.01-0.07,0.05-0.11,0.11-0.16c0.05-0.03,0.13-0.04,0.29-0.03c0.19,0.02,0.4-0.05,0.4-0.05
			s0.14-0.06,0.28-0.19c0.12-0.11,0.19-0.15,0.24-0.15c0.08,0,0.14,0.01,0.19,0.06c0.05,0.06,0.25,0.18,0.36,0.41
			C678.46,136.11,678.44,136.2,678.44,136.2z"/>
	</g>
</g>
<g id="XMLID_738_">
	<g id="XMLID_739_">
		<g id="XMLID_741_">
			<rect id="XMLID_743_" x="161.8" y="99.98" fill="#5AC0A0" width="36.16" height="64.25"/>
		</g>
	</g>
</g>
<g id="XMLID_720_">
	<g id="XMLID_734_">
		<rect id="XMLID_737_" x="166.44" y="118.15" fill="#5AC0A0" width="6.6" height="6.6"/>
		<rect id="XMLID_736_" x="176.58" y="118.15" fill="#5AC0A0" width="6.6" height="6.6"/>
		<rect id="XMLID_735_" x="186.72" y="118.15" fill="#5AC0A0" width="6.6" height="6.6"/>
	</g>
	<g id="XMLID_730_">
		<rect id="XMLID_733_" x="166.44" y="108.98" fill="#5AC0A0" width="6.6" height="6.6"/>
		<rect id="XMLID_732_" x="176.58" y="108.98" fill="#5AC0A0" width="6.6" height="6.6"/>
		<rect id="XMLID_731_" x="186.72" y="108.98" fill="#5AC0A0" width="6.6" height="6.6"/>
	</g>
	<g id="XMLID_725_">
		<rect id="XMLID_728_" x="166.44" y="127.32" fill="#5AC0A0" width="6.6" height="6.6"/>
		<rect id="XMLID_727_" x="176.58" y="127.32" fill="#5AC0A0" width="6.6" height="6.6"/>
		<rect id="XMLID_726_" x="186.72" y="127.32" fill="#5AC0A0" width="6.6" height="6.6"/>
	</g>
	<g id="XMLID_721_">
		<rect id="XMLID_724_" x="166.44" y="136.49" fill="#5AC0A0" width="6.6" height="6.6"/>
		<rect id="XMLID_723_" x="176.58" y="136.49" fill="#5AC0A0" width="6.6" height="6.6"/>
		<rect id="XMLID_722_" x="186.72" y="136.49" fill="#5AC0A0" width="6.6" height="6.6"/>
	</g>
</g>
<path id="XMLID_719_" fill="#5AC0A0" d="M190.41,153.07v-3.01c0,0-5.44-3.08-10.53-3.08c-5.09,0-10.53,3.08-10.53,3.08v3.01
	c0,0,0.65-0.35,1.62-0.82v11.98h1.62v-12.15h14.58v12.15h1.62v-12.03C189.82,152.69,190.41,153.07,190.41,153.07z"/>
<path id="XMLID_717_" fill="#5AC0A0" d="M206.32,102.02c0-1.17-0.95-2.11-2.11-2.11h-3.46c-1.16,0-2.11,0.95-2.11,2.11v27.08
	c0,1.16,0.95,2.11,2.11,2.11h3.46c1.16,0,2.11-0.95,2.11-2.11V102.02z"/>
<g id="XMLID_705_">
	<path id="XMLID_715_" fill="#EAE6DD" d="M201.14,103.11h0.69v1.25h1.28v-1.25h0.69v3.15h-0.69V105h-1.28v1.27h-0.69V103.11z"/>
	<path id="XMLID_712_" fill="#EAE6DD" d="M200.8,110.13L200.8,110.13c0-0.91,0.71-1.64,1.68-1.64c0.97,0,1.67,0.73,1.67,1.62v0.01
		c0,0.9-0.71,1.63-1.68,1.63C201.5,111.75,200.8,111.03,200.8,110.13z M203.42,110.13L203.42,110.13c0-0.55-0.4-1-0.95-1
		c-0.56,0-0.95,0.44-0.95,0.98v0.01c0,0.54,0.4,0.99,0.95,0.99C203.04,111.11,203.42,110.67,203.42,110.13z"/>
	<path id="XMLID_710_" fill="#EAE6DD" d="M202.13,114.62h-0.96v-0.64h2.61v0.64h-0.96v2.51h-0.69V114.62z"/>
	<path id="XMLID_708_" fill="#EAE6DD" d="M201.34,119.41h2.38v0.62h-1.69v0.64h1.49v0.62h-1.49v0.66h1.71v0.62h-2.4V119.41z"/>
	<path id="XMLID_706_" fill="#EAE6DD" d="M201.46,124.85h0.69v2.52h1.57V128h-2.27V124.85z"/>
</g>
<polygon id="XMLID_704_" fill="#15765C" points="446.69,146.71 328.94,146.73 329,148.01 446.69,147.98 "/>
<path id="XMLID_702_" fill="#5AC0A0" d="M389.87,134.17v11.26h55.27v-11.26H389.87z"/>
<path id="XMLID_701_" fill="#148E70" d="M442.46,132.08c-0.21,0-49.7,0-49.91,0c-0.82,0-2.68,0.66-2.68,2.16
	c10.09,0,45.18,0,55.27,0C445.14,132.74,443.29,132.08,442.46,132.08z"/>
<path id="XMLID_700_" fill="#148E70" d="M437.4,145.49c0.26,0.6,0.86,1.02,1.56,1.03h0.01c0.7,0,1.29-0.42,1.56-1.02l-1.11,0
	c-0.04,0.03-0.08,0.05-0.13,0.07c-0.1,0.04-0.2,0.06-0.31,0.06h0c-0.16,0-0.31-0.05-0.44-0.13L437.4,145.49z"/>
<path id="XMLID_587_" fill="#148E70" d="M438.96,143.12c-0.94,0-1.7,0.76-1.7,1.7c0,0.24,0.05,0.47,0.14,0.68l1.13,0
	c-0.02-0.01-0.03-0.02-0.05-0.03c-0.19-0.15-0.32-0.38-0.32-0.64c0-0.08,0.01-0.16,0.04-0.24c0.1-0.33,0.41-0.56,0.77-0.56h0
	c0.22,0,0.42,0.09,0.57,0.24l0.02,0.02c0.02,0.02,0.03,0.04,0.05,0.06c0.06,0.08,0.1,0.16,0.13,0.25c0.02,0.08,0.04,0.16,0.04,0.24
	c0,0.03,0,0.06,0,0.08c-0.03,0.25-0.16,0.46-0.36,0.59l1.11,0c0.09-0.21,0.14-0.44,0.14-0.68
	C440.67,143.89,439.91,143.12,438.96,143.12L438.96,143.12"/>
<path id="XMLID_586_" fill="#148E70" d="M432.27,145.49c0.26,0.6,0.86,1.02,1.56,1.03h0.01c0.7,0,1.29-0.42,1.56-1.02l-1.11,0
	c-0.04,0.03-0.08,0.05-0.13,0.07c-0.1,0.04-0.2,0.06-0.31,0.06h0c-0.16,0-0.31-0.05-0.44-0.13L432.27,145.49z"/>
<path id="XMLID_585_" fill="#148E70" d="M433.83,143.12c-0.94,0-1.7,0.76-1.7,1.7c0,0.24,0.05,0.47,0.14,0.68l1.13,0
	c-0.02-0.01-0.03-0.02-0.05-0.03c-0.19-0.15-0.32-0.38-0.32-0.64c0-0.08,0.01-0.16,0.04-0.24c0.1-0.33,0.41-0.56,0.77-0.56h0
	c0.22,0,0.42,0.09,0.57,0.24l0.02,0.02c0.02,0.02,0.03,0.04,0.05,0.06c0.06,0.08,0.1,0.16,0.13,0.25c0.02,0.08,0.04,0.16,0.04,0.24
	c0,0.03,0,0.06,0,0.08c-0.03,0.25-0.16,0.46-0.36,0.59l1.11,0c0.09-0.21,0.14-0.44,0.14-0.68
	C435.54,143.89,434.78,143.12,433.83,143.12L433.83,143.12"/>
<path id="XMLID_584_" fill="#148E70" d="M418.51,145.49c0.26,0.6,0.86,1.02,1.56,1.03h0.01c0.7,0,1.29-0.42,1.56-1.02l-1.11,0
	c-0.04,0.03-0.08,0.05-0.13,0.07c-0.1,0.04-0.2,0.06-0.31,0.06h0c-0.16,0-0.31-0.05-0.44-0.13L418.51,145.49z"/>
<path id="XMLID_583_" fill="#148E70" d="M420.07,143.12c-0.94,0-1.7,0.76-1.7,1.7c0,0.24,0.05,0.47,0.14,0.68l1.13,0
	c-0.02-0.01-0.03-0.02-0.05-0.03c-0.19-0.15-0.32-0.38-0.32-0.64c0-0.08,0.01-0.16,0.04-0.24c0.1-0.33,0.41-0.56,0.77-0.56h0
	c0.22,0,0.42,0.09,0.57,0.24l0.02,0.02c0.02,0.02,0.03,0.04,0.05,0.06c0.06,0.08,0.1,0.16,0.13,0.25c0.02,0.08,0.04,0.16,0.04,0.24
	c0,0.03,0,0.06,0,0.08c-0.03,0.25-0.16,0.46-0.36,0.59l1.11,0c0.09-0.21,0.14-0.44,0.14-0.68
	C421.77,143.89,421.02,143.12,420.07,143.12L420.07,143.12"/>
<path id="XMLID_582_" fill="#148E70" d="M413.38,145.49c0.26,0.6,0.86,1.02,1.56,1.03h0.01c0.7,0,1.29-0.42,1.56-1.02l-1.11,0
	c-0.04,0.03-0.08,0.05-0.13,0.07c-0.1,0.04-0.2,0.06-0.31,0.06h0c-0.16,0-0.31-0.05-0.44-0.13L413.38,145.49z"/>
<path id="XMLID_581_" fill="#148E70" d="M414.94,143.12c-0.94,0-1.7,0.76-1.7,1.7c0,0.24,0.05,0.47,0.14,0.68l1.13,0
	c-0.02-0.01-0.03-0.02-0.05-0.03c-0.19-0.15-0.32-0.38-0.32-0.64c0-0.08,0.01-0.16,0.04-0.24c0.1-0.33,0.41-0.56,0.77-0.56h0
	c0.22,0,0.42,0.09,0.57,0.24l0.02,0.02c0.02,0.02,0.03,0.04,0.05,0.06c0.06,0.08,0.1,0.16,0.13,0.25c0.02,0.08,0.04,0.16,0.04,0.24
	c0,0.03,0,0.06,0,0.08c-0.03,0.25-0.16,0.46-0.36,0.59l1.11,0c0.09-0.21,0.14-0.44,0.14-0.68
	C416.65,143.89,415.89,143.12,414.94,143.12L414.94,143.12"/>
<path id="XMLID_580_" fill="#148E70" d="M399.61,145.49c0.26,0.6,0.86,1.02,1.56,1.03h0.01c0.7,0,1.29-0.42,1.56-1.02l-1.11,0
	c-0.04,0.03-0.08,0.05-0.13,0.07c-0.1,0.04-0.2,0.06-0.31,0.06h0c-0.16,0-0.31-0.05-0.44-0.13L399.61,145.49z"/>
<path id="XMLID_579_" fill="#148E70" d="M401.18,143.12c-0.94,0-1.7,0.76-1.7,1.7c0,0.24,0.05,0.47,0.14,0.68l1.13,0
	c-0.02-0.01-0.03-0.02-0.05-0.03c-0.19-0.15-0.32-0.38-0.32-0.64c0-0.08,0.01-0.16,0.04-0.24c0.1-0.33,0.41-0.56,0.77-0.56h0
	c0.22,0,0.42,0.09,0.57,0.24l0.02,0.02c0.02,0.02,0.03,0.04,0.05,0.06c0.06,0.08,0.1,0.16,0.13,0.25c0.02,0.08,0.04,0.16,0.04,0.24
	c0,0.03,0,0.06,0,0.08c-0.03,0.25-0.16,0.46-0.36,0.59l1.11,0c0.09-0.21,0.14-0.44,0.14-0.68
	C402.88,143.89,402.12,143.12,401.18,143.12L401.18,143.12"/>
<path id="XMLID_578_" fill="#148E70" d="M394.49,145.49c0.26,0.6,0.86,1.02,1.56,1.03h0.01c0.7,0,1.29-0.42,1.56-1.02l-1.11,0
	c-0.04,0.03-0.08,0.05-0.13,0.07c-0.1,0.04-0.2,0.06-0.31,0.06h0c-0.16,0-0.31-0.05-0.44-0.13L394.49,145.49z"/>
<path id="XMLID_577_" fill="#148E70" d="M396.05,143.12c-0.94,0-1.7,0.76-1.7,1.7c0,0.24,0.05,0.47,0.14,0.68l1.13,0
	c-0.02-0.01-0.03-0.02-0.05-0.03c-0.19-0.15-0.32-0.38-0.32-0.64c0-0.08,0.01-0.16,0.04-0.24c0.1-0.33,0.41-0.56,0.77-0.56h0
	c0.22,0,0.42,0.09,0.57,0.24l0.02,0.02c0.02,0.02,0.03,0.04,0.05,0.06c0.06,0.08,0.1,0.16,0.13,0.25c0.02,0.08,0.04,0.16,0.04,0.24
	c0,0.03,0,0.06,0,0.08c-0.03,0.25-0.16,0.46-0.36,0.59l1.11,0c0.09-0.21,0.14-0.44,0.14-0.68
	C397.75,143.89,397,143.12,396.05,143.12L396.05,143.12"/>
<path id="XMLID_574_" fill="#148E70" d="M404.76,134.95V145h3.47v-10.05H404.76z M407.6,140.89h-2.19v-5.25h2.19V140.89z"/>
<path id="XMLID_571_" fill="#148E70" d="M408.53,134.95V145h3.47v-10.05H408.53z M411.36,140.89h-2.19v-5.25h2.19V140.89z"/>
<path id="XMLID_568_" fill="#148E70" d="M423.5,134.95V145h3.47v-10.05H423.5z M426.33,140.89h-2.19v-5.25h2.19V140.89z"/>
<path id="XMLID_565_" fill="#148E70" d="M427.27,134.95V145h3.47v-10.05H427.27z M430.1,140.89h-2.19v-5.25h2.19V140.89z"/>
<path id="XMLID_560_" fill="#148E70" d="M393.5,140.2h-2.64v-5.25h2.64V140.2z M400.69,140.2h-5.6v-5.25h5.6V140.2z M439.83,140.2
	h-5.6v-5.25h5.6V140.2z M444.07,140.2h-2.64v-5.25h2.64V140.2z"/>
<g id="XMLID_549_">
	<path id="XMLID_558_" fill="#5AC0A0" d="M578.99,164.23h30.73v-16.35h-30.73V164.23z"/>
	<g id="XMLID_556_">
		<rect id="XMLID_557_" x="581.8" y="153.72" fill="#5AC0A0" width="25.11" height="7.21"/>
	</g>
	<g id="XMLID_551_">
		<g id="XMLID_553_">
			<path id="XMLID_554_" fill="#5AC0A0" d="M605.97,133.84c-0.91-1.11-2.6-1.35-3.87-0.55c-2.28,1.49-4.96,2.28-7.73,2.28
				s-5.45-0.79-7.74-2.28c-1.26-0.79-2.96-0.56-3.87,0.55c-0.44,0.53-0.61,1.24-0.5,1.99c0.14,0.94,0.72,1.8,1.58,2.36
				c2.07,1.38,4.39,2.31,6.83,2.79v1.28h0.82v-1.13c0.94,0.14,1.9,0.22,2.88,0.22s1.93-0.08,2.88-0.22v1.13h0.82v-1.28
				c2.44-0.47,4.75-1.41,6.83-2.79c0.86-0.56,1.44-1.42,1.58-2.36C606.58,135.08,606.4,134.37,605.97,133.84z"/>
		</g>
		<path id="XMLID_552_" fill="#FFFFFF" d="M603.39,135.8c-0.52,0.25-0.65,0.65-0.85,1.3c-0.19,0.61-0.48,1.4-1.5,1.72
			c-1.02,0.31-1.69-0.18-2.19-0.57c-0.53-0.42-0.85-0.68-1.41-0.59c-0.56,0.08-0.79,0.42-1.18,0.97c-0.36,0.52-0.87,1.19-1.92,1.18
			c-1.05-0.02-1.54-0.68-1.89-1.21c-0.37-0.56-0.6-0.9-1.15-0.99c-0.55-0.09-0.88,0.16-1.42,0.57c-0.51,0.39-1.19,0.86-2.2,0.53
			c-1.01-0.34-1.27-1.13-1.45-1.74c-0.19-0.65-0.31-1.05-0.82-1.31c-0.18-0.09-0.26-0.31-0.16-0.48c0.09-0.17,0.31-0.23,0.49-0.14
			c0.83,0.42,1.03,1.16,1.22,1.78c0.2,0.63,0.38,1.04,0.95,1.23c0.57,0.19,0.95-0.03,1.49-0.42c0.52-0.38,1.11-0.86,2.01-0.7
			c0.9,0.15,1.31,0.79,1.67,1.31c0.38,0.54,0.67,0.88,1.27,0.88c0.6,0,0.89-0.33,1.28-0.86c0.38-0.52,0.8-1.15,1.7-1.28
			c0.9-0.14,1.49,0.35,2.01,0.74c0.53,0.4,0.91,0.63,1.49,0.45c0.58-0.18,0.76-0.59,0.98-1.22c0.21-0.61,0.42-1.35,1.26-1.76
			c0.18-0.09,0.4-0.02,0.49,0.15C603.66,135.48,603.58,135.7,603.39,135.8z"/>
	</g>
	<path id="XMLID_550_" fill="#5AC0A0" d="M579.03,142.28c-0.02,5.75-0.04,5.9-0.04,6.05c0,1.45,1.18,2.63,2.63,2.63
		c1.23,0,2.25-0.84,2.55-1.97c0.29,1.13,1.32,1.97,2.55,1.97s2.25-0.84,2.55-1.97c0.29,1.13,1.32,1.97,2.55,1.97
		c1.22,0,2.25-0.84,2.55-1.97c0.29,1.13,1.32,1.97,2.55,1.97c1.22,0,2.25-0.84,2.55-1.97c0.29,1.13,1.32,1.97,2.55,1.97
		c1.22,0,2.25-0.84,2.55-1.97c0.29,1.13,1.32,1.97,2.55,1.97c1.45,0,2.63-1.18,2.63-2.63c0-0.15-0.02-0.3-0.04-6.05H579.03z"/>
</g>
<rect id="XMLID_548_" x="338.69" y="35.37" fill="#5AC0A0" width="27.7" height="128.87"/>
<line id="XMLID_547_" fill="none" stroke="#FFFFFF" stroke-width="0.7682" stroke-miterlimit="10" x1="361.96" y1="41.7" x2="361.96" y2="158.76"/>
<line id="XMLID_546_" fill="none" stroke="#FFFFFF" stroke-width="0.7682" stroke-miterlimit="10" x1="358.75" y1="41.7" x2="358.75" y2="158.76"/>
<line id="XMLID_545_" fill="none" stroke="#FFFFFF" stroke-width="0.7682" stroke-miterlimit="10" x1="355.54" y1="41.7" x2="355.54" y2="158.76"/>
<line id="XMLID_544_" fill="none" stroke="#FFFFFF" stroke-width="0.7682" stroke-miterlimit="10" x1="352.33" y1="41.7" x2="352.33" y2="158.76"/>
<line id="XMLID_543_" fill="none" stroke="#FFFFFF" stroke-width="0.7682" stroke-miterlimit="10" x1="349.13" y1="41.7" x2="349.13" y2="158.76"/>
<line id="XMLID_542_" fill="none" stroke="#FFFFFF" stroke-width="0.7682" stroke-miterlimit="10" x1="342.71" y1="41.7" x2="342.71" y2="158.76"/>
<line id="XMLID_541_" fill="none" stroke="#FFFFFF" stroke-width="0.7682" stroke-miterlimit="10" x1="345.92" y1="41.7" x2="345.92" y2="158.76"/>
<g id="XMLID_529_">
	<g id="XMLID_530_">
		<g id="XMLID_537_">
			<g id="XMLID_538_">
				<g id="XMLID_539_">
					<path id="XMLID_540_" fill="#148E70" d="M732.89,144.66c0,0-14.47,23.96-0.44,23.96C746.47,168.62,732.89,144.66,732.89,144.66
						"/>
				</g>
			</g>
		</g>
		<g id="XMLID_531_">
			<g id="XMLID_532_">
				<defs>
					<rect id="XMLID_533_" x="731.94" y="164.6" width="1.24" height="8.04"/>
				</defs>
				<use xlink:href="#XMLID_533_"  overflow="visible" fill="#148E70"/>
				<clipPath id="XMLID_6_">
					<use xlink:href="#XMLID_533_"  overflow="visible"/>
				</clipPath>
				<g id="XMLID_534_" clip-path="url(#XMLID_6_)">
					<defs>
						<rect id="XMLID_535_" x="731.94" y="164.6" width="1.24" height="8.04"/>
					</defs>
					<use xlink:href="#XMLID_535_"  overflow="visible" fill="#148E70"/>
					<clipPath id="XMLID_7_">
						<use xlink:href="#XMLID_535_"  overflow="visible"/>
					</clipPath>
					<rect id="XMLID_536_" x="731.94" y="164.6" clip-path="url(#XMLID_7_)" fill="#148E70" width="1.24" height="8.04"/>
				</g>
			</g>
		</g>
	</g>
</g>
<g id="XMLID_516_">
	<g id="XMLID_517_">
		<g id="XMLID_518_">
			<g id="XMLID_525_">
				<g id="XMLID_526_">
					<g id="XMLID_527_">
						<path id="XMLID_528_" fill="#5AC0A0" d="M740.81,144.55c0,0-8.73,18.51-0.27,18.51C749.01,163.06,740.81,144.55,740.81,144.55
							"/>
					</g>
				</g>
			</g>
			<g id="XMLID_519_">
				<g id="XMLID_520_">
					<defs>
						<rect id="XMLID_521_" x="740.03" y="159.95" width="1.17" height="6.21"/>
					</defs>
					<use xlink:href="#XMLID_521_"  overflow="visible" fill="#5AC0A0"/>
					<clipPath id="XMLID_8_">
						<use xlink:href="#XMLID_521_"  overflow="visible"/>
					</clipPath>
					<g id="XMLID_522_" clip-path="url(#XMLID_8_)">
						<defs>
							<rect id="XMLID_523_" x="740.03" y="159.95" width="1.17" height="6.21"/>
						</defs>
						<use xlink:href="#XMLID_523_"  overflow="visible" fill="#5AC0A0"/>
						<clipPath id="XMLID_9_">
							<use xlink:href="#XMLID_523_"  overflow="visible"/>
						</clipPath>
						<rect id="XMLID_524_" x="740.03" y="159.95" clip-path="url(#XMLID_9_)" fill="#5AC0A0" width="1.17" height="6.21"/>
					</g>
				</g>
			</g>
		</g>
	</g>
</g>
<polygon id="XMLID_515_" fill="#148E70" points="524.2,68.15 530.16,68.15 530.16,50.8 531.52,50.8 531.52,68.15 537.48,68.15 
	537.48,50.8 538.84,50.8 538.84,68.15 544.8,68.15 550.22,164.23 518.78,164.23 "/>
<g id="XMLID_453_">
	<g id="XMLID_493_">
		<g id="XMLID_494_">
			<g id="XMLID_495_">
				<g id="XMLID_511_">
					<g id="XMLID_512_">
						<g id="XMLID_513_">
							<path id="XMLID_514_" fill="#148E70" d="M6.57,146.96c0,0-14.47,23.96-0.44,23.96C20.15,170.92,6.57,146.96,6.57,146.96"/>
						</g>
					</g>
				</g>
				<g id="XMLID_496_">
					<g id="XMLID_497_">
						<defs>
							<rect id="XMLID_498_" x="5.62" y="166.9" width="1.24" height="8.04"/>
						</defs>
						<use xlink:href="#XMLID_498_"  overflow="visible" fill="#148E70"/>
						<clipPath id="XMLID_10_">
							<use xlink:href="#XMLID_498_"  overflow="visible"/>
						</clipPath>
						<g id="XMLID_499_" clip-path="url(#XMLID_10_)">
							<defs>
								<rect id="XMLID_509_" x="5.62" y="166.9" width="1.24" height="8.04"/>
							</defs>
							<use xlink:href="#XMLID_509_"  overflow="visible" fill="#148E70"/>
							<clipPath id="XMLID_11_">
								<use xlink:href="#XMLID_509_"  overflow="visible"/>
							</clipPath>
							<rect id="XMLID_510_" x="5.62" y="166.9" clip-path="url(#XMLID_11_)" fill="#148E70" width="1.24" height="8.04"/>
						</g>
					</g>
				</g>
			</g>
		</g>
	</g>
	<g id="XMLID_454_">
		<g id="XMLID_455_">
			<g id="XMLID_457_">
				<g id="XMLID_489_">
					<g id="XMLID_490_">
						<g id="XMLID_491_">
							<path id="XMLID_492_" fill="#148E70" d="M14.49,146.86c0,0-8.73,18.51-0.27,18.51C22.68,165.36,14.49,146.86,14.49,146.86"/>
						</g>
					</g>
				</g>
				<g id="XMLID_478_">
					<g id="XMLID_480_">
						<defs>
							<rect id="XMLID_481_" x="13.71" y="162.26" width="1.17" height="6.21"/>
						</defs>
						<use xlink:href="#XMLID_481_"  overflow="visible" fill="#148E70"/>
						<clipPath id="XMLID_12_">
							<use xlink:href="#XMLID_481_"  overflow="visible"/>
						</clipPath>
						<g id="XMLID_482_" clip-path="url(#XMLID_12_)">
							<defs>
								<rect id="XMLID_484_" x="13.71" y="162.26" width="1.17" height="6.21"/>
							</defs>
							<use xlink:href="#XMLID_484_"  overflow="visible" fill="#148E70"/>
							<clipPath id="XMLID_13_">
								<use xlink:href="#XMLID_484_"  overflow="visible"/>
							</clipPath>
							<rect id="XMLID_488_" x="13.71" y="162.26" clip-path="url(#XMLID_13_)" fill="#148E70" width="1.17" height="6.21"/>
						</g>
					</g>
				</g>
			</g>
		</g>
	</g>
</g>
<path id="XMLID_15_" fill="#5AC0A0" d="M275.23,148c-0.2-0.04-1.92-0.04-2.12,0c-6.05,0-21.47,3.39-21.47,16.64
	c0,1.86,1.7,6.13,6.34,6.03c2.37-0.05,1.8,0.41,9.02-2.94c2.96-1.33,5.6-1.57,7.17-1.69c1.56,0.12,4.21,0.35,7.17,1.69
	c7.22,3.35,6.65,2.89,9.02,2.94c4.64,0.1,6.34-4.18,6.34-6.03C296.69,151.34,281.18,148,275.23,148z"/>
</svg>
