<?xml version="1.0" encoding="utf-8"?>
<!-- Generator: Adobe Illustrator 21.0.0, SVG Export Plug-In . SVG Version: 6.00 Build 0)  -->
<svg version="1.0" id="Layer_1" xmlns="http://www.w3.org/2000/svg" xmlns:xlink="http://www.w3.org/1999/xlink" x="0px" y="0px"
	 width="744.38px" height="174.95px" viewBox="0 0 744.38 174.95" enable-background="new 0 0 744.38 174.95" xml:space="preserve">
<g id="XMLID_937_">
	<g id="XMLID_938_">
		<defs>
			<rect id="XMLID_939_" x="352.83" y="63.46" width="34.3" height="100.78"/>
		</defs>
		<use xlink:href="#XMLID_939_"  overflow="visible" fill="#CCCCCC"/>
		<clipPath id="XMLID_2_">
			<use xlink:href="#XMLID_939_"  overflow="visible"/>
		</clipPath>
		<g id="XMLID_940_" clip-path="url(#XMLID_2_)">
			<defs>
				<rect id="XMLID_941_" x="352.83" y="63.46" width="34.3" height="100.78"/>
			</defs>
			<use xlink:href="#XMLID_941_"  overflow="visible" fill="#CCCCCC"/>
			<clipPath id="XMLID_3_">
				<use xlink:href="#XMLID_941_"  overflow="visible"/>
			</clipPath>
			<polygon id="XMLID_942_" clip-path="url(#XMLID_3_)" fill="#CCCCCC" points="380.26,63.46 380.26,68.11 383.69,68.11 
				383.69,73.42 387.12,73.42 387.12,164.23 383.69,164.23 380.26,164.23 373.4,164.23 369.97,164.23 352.83,164.23 352.83,63.46 
							"/>
		</g>
	</g>
</g>
<g id="XMLID_932_">
	<g id="XMLID_933_">
		<g id="XMLID_934_">
			<defs>
				<rect id="XMLID_935_" x="50.54" y="93.55" width="32.2" height="70.68"/>
			</defs>
			<use xlink:href="#XMLID_935_"  overflow="visible" fill="#CCCCCC"/>
			<clipPath id="XMLID_4_">
				<use xlink:href="#XMLID_935_"  overflow="visible"/>
			</clipPath>
			<rect id="XMLID_936_" x="50.54" y="93.55" clip-path="url(#XMLID_4_)" fill="#CCCCCC" width="32.2" height="70.68"/>
		</g>
	</g>
</g>
<g id="XMLID_927_">
	<g id="XMLID_928_">
		<g id="XMLID_929_">
			<defs>
				<rect id="XMLID_930_" x="6.75" y="114.87" width="24.71" height="49.36"/>
			</defs>
			<use xlink:href="#XMLID_930_"  overflow="visible" fill="#CCCCCC"/>
			<clipPath id="XMLID_5_">
				<use xlink:href="#XMLID_930_"  overflow="visible"/>
			</clipPath>
			<rect id="XMLID_931_" x="6.75" y="114.87" clip-path="url(#XMLID_5_)" fill="#CCCCCC" width="24.71" height="49.36"/>
		</g>
	</g>
</g>
<g id="XMLID_921_">
	<g id="XMLID_922_">
		<defs>
			<rect id="XMLID_923_" x="526" y="90.3" width="26.95" height="73.94"/>
		</defs>
		<use xlink:href="#XMLID_923_"  overflow="visible" fill="#CCCCCC"/>
		<clipPath id="XMLID_6_">
			<use xlink:href="#XMLID_923_"  overflow="visible"/>
		</clipPath>
		<g id="XMLID_924_" clip-path="url(#XMLID_6_)">
			<defs>
				<rect id="XMLID_925_" x="526" y="90.3" width="26.95" height="73.94"/>
			</defs>
			<use xlink:href="#XMLID_925_"  overflow="visible" fill="#CCCCCC"/>
			<clipPath id="XMLID_7_">
				<use xlink:href="#XMLID_925_"  overflow="visible"/>
			</clipPath>
			<rect id="XMLID_926_" x="526" y="90.3" clip-path="url(#XMLID_7_)" fill="#CCCCCC" width="26.95" height="73.94"/>
		</g>
	</g>
</g>
<g id="XMLID_915_">
	<g id="XMLID_916_">
		<defs>
			<rect id="XMLID_917_" x="575.55" y="101.05" width="22.34" height="63.18"/>
		</defs>
		<use xlink:href="#XMLID_917_"  overflow="visible" fill="#CCCCCC"/>
		<clipPath id="XMLID_8_">
			<use xlink:href="#XMLID_917_"  overflow="visible"/>
		</clipPath>
		<g id="XMLID_918_" clip-path="url(#XMLID_8_)">
			<defs>
				<rect id="XMLID_919_" x="575.55" y="101.05" width="22.34" height="63.18"/>
			</defs>
			<use xlink:href="#XMLID_919_"  overflow="visible" fill="#CCCCCC"/>
			<clipPath id="XMLID_9_">
				<use xlink:href="#XMLID_919_"  overflow="visible"/>
			</clipPath>
			<rect id="XMLID_920_" x="575.55" y="101.05" clip-path="url(#XMLID_9_)" fill="#CCCCCC" width="22.34" height="63.18"/>
		</g>
	</g>
</g>
<g id="XMLID_909_">
	<g id="XMLID_910_">
		<defs>
			<rect id="XMLID_911_" x="594.18" y="88.38" width="20.62" height="75.86"/>
		</defs>
		<use xlink:href="#XMLID_911_"  overflow="visible" fill="#CCCCCC"/>
		<clipPath id="XMLID_10_">
			<use xlink:href="#XMLID_911_"  overflow="visible"/>
		</clipPath>
		<g id="XMLID_912_" clip-path="url(#XMLID_10_)">
			<defs>
				<rect id="XMLID_913_" x="594.18" y="88.38" width="20.62" height="75.86"/>
			</defs>
			<use xlink:href="#XMLID_913_"  overflow="visible" fill="#CCCCCC"/>
			<clipPath id="XMLID_11_">
				<use xlink:href="#XMLID_913_"  overflow="visible"/>
			</clipPath>
			<rect id="XMLID_914_" x="594.18" y="88.38" clip-path="url(#XMLID_11_)" fill="#CCCCCC" width="20.62" height="75.86"/>
		</g>
	</g>
</g>
<polygon id="XMLID_908_" fill="#CCCCCC" points="502.9,94.67 502.9,94.66 495.48,94.66 495.48,91.74 495.48,91.74 495.48,91.74 
	471.18,91.74 471.18,91.74 471.18,91.74 471.18,94.66 463.75,94.66 463.75,94.66 463.75,94.67 463.75,164.23 463.75,164.24 
	463.75,164.24 502.9,164.24 502.9,164.24 502.9,94.67 "/>
<polygon id="XMLID_907_" fill="#CCCCCC" points="538.91,106.5 538.91,106.5 531.08,106.5 531.08,102.29 505.46,102.29 505.46,106.5 
	497.62,106.5 497.62,106.5 497.62,106.5 497.62,164.23 497.62,164.24 497.62,164.24 538.91,164.24 538.91,164.24 538.91,106.5 "/>
<polygon id="XMLID_905_" fill="#CCCCCC" points="675.17,117.15 675.17,117.15 668.24,117.15 668.24,113.72 645.54,113.72 
	645.54,117.15 638.61,117.15 638.61,117.15 638.61,117.15 638.61,164.24 638.61,164.24 638.61,164.24 675.17,164.24 675.17,164.24 
	675.17,117.15 "/>
<polygon id="XMLID_904_" fill="#CCCCCC" points="650.4,95.94 650.4,95.93 646.58,95.93 646.58,90.96 634.07,90.96 634.07,95.93 
	630.25,95.93 630.25,95.93 630.25,95.94 630.25,164.23 630.25,164.24 630.25,164.24 650.4,164.24 650.4,164.24 650.4,95.94 "/>
<polygon id="XMLID_902_" fill="#CCCCCC" points="224.21,83.14 224.21,83.14 216.78,83.14 216.78,80.22 216.78,80.22 216.78,80.22 
	192.48,80.22 192.48,80.22 192.48,80.22 192.48,83.14 185.05,83.14 185.05,83.14 185.05,83.14 185.05,164.23 185.05,164.24 
	185.05,164.24 224.21,164.24 224.21,164.24 224.21,83.14 "/>
<g id="XMLID_888_">
	<g id="XMLID_889_">
		<g id="XMLID_890_">
			<polygon id="XMLID_891_" fill="#CCCCCC" points="137.12,103.45 137.12,67.91 143.67,67.91 143.67,59.3 163.74,59.3 163.74,67.91 
				170.29,67.91 170.29,103.45 177.58,103.45 177.58,164.23 129.83,164.23 129.83,103.45 			"/>
		</g>
	</g>
</g>
<g id="XMLID_883_">
	<g id="XMLID_884_">
		<g id="XMLID_885_">
			<defs>
				<rect id="XMLID_886_" x="115.35" y="103.35" width="32.2" height="60.89"/>
			</defs>
			<clipPath id="XMLID_12_">
				<use xlink:href="#XMLID_886_"  overflow="visible"/>
			</clipPath>
			<rect id="XMLID_887_" x="115.35" y="103.35" clip-path="url(#XMLID_12_)" fill="#CCCCCC" width="32.2" height="60.89"/>
		</g>
	</g>
</g>
<g id="XMLID_881_">
	<rect id="XMLID_882_" x="286.26" y="91.95" fill="#CCCCCC" width="32.72" height="72.28"/>
</g>
<g id="XMLID_871_">
	<g id="XMLID_872_">
		<g id="XMLID_873_">
			<defs>
				<rect id="XMLID_874_" x="697.8" y="114.11" width="30.14" height="50.12"/>
			</defs>
			<clipPath id="XMLID_13_">
				<use xlink:href="#XMLID_874_"  overflow="visible"/>
			</clipPath>
			<rect id="XMLID_875_" x="697.8" y="114.11" clip-path="url(#XMLID_13_)" fill="#CCCCCC" width="30.14" height="50.12"/>
		</g>
	</g>
</g>
<g id="XMLID_859_">
	<g id="XMLID_860_">
		<g id="XMLID_861_">
			<defs>
				<rect id="XMLID_862_" x="446.77" y="110.58" width="32.1" height="53.66"/>
			</defs>
			<use xlink:href="#XMLID_862_"  overflow="visible" fill="#CCCCCC"/>
			<clipPath id="XMLID_14_">
				<use xlink:href="#XMLID_862_"  overflow="visible"/>
			</clipPath>
			<g id="XMLID_863_" clip-path="url(#XMLID_14_)">
				<defs>
					<rect id="XMLID_864_" x="446.77" y="110.58" width="32.1" height="53.66"/>
				</defs>
				<use xlink:href="#XMLID_864_"  overflow="visible" fill="#CCCCCC"/>
				<clipPath id="XMLID_15_">
					<use xlink:href="#XMLID_864_"  overflow="visible"/>
				</clipPath>
				<rect id="XMLID_865_" x="446.77" y="110.58" clip-path="url(#XMLID_15_)" fill="#CCCCCC" width="32.1" height="53.66"/>
			</g>
		</g>
	</g>
</g>
<g id="XMLID_854_">
	<g id="XMLID_855_">
		<g id="XMLID_856_">
			<defs>
				<rect id="XMLID_857_" x="671.3" y="105.66" width="25.15" height="58.58"/>
			</defs>
			<clipPath id="XMLID_16_">
				<use xlink:href="#XMLID_857_"  overflow="visible"/>
			</clipPath>
			<rect id="XMLID_858_" x="671.3" y="105.66" clip-path="url(#XMLID_16_)" fill="#CCCCCC" width="25.15" height="58.58"/>
		</g>
	</g>
</g>
<g id="XMLID_849_">
	<g id="XMLID_850_">
		<g id="XMLID_851_">
			<polygon id="XMLID_852_" fill="#CCCCCC" points="320.44,66.41 320.44,58.31 322.9,58.31 322.9,52.6 328.16,49.32 333.15,52.6 
				333.15,58.31 335.61,58.31 335.61,66.41 342.72,66.41 342.72,164.24 313.33,164.24 313.33,66.41 			"/>
		</g>
	</g>
</g>
<path id="XMLID_744_" fill="#CCCCCC" d="M713.72,105.03v0.14h0.29c-0.08,0.08-1.41,0.27-1.41,0.27l0.06,0.14l1.27-0.25
	c-0.49,1.16-4.03,8.42-4.21,8.79h0.54l1.04-2.22l0.36,0.93l-0.66,1.29h0.54l0.47-1.02h5.17c0,0.56,0,0.94,0,1.02h0.83
	c0-0.08,0-0.46,0-1.02h5.17l0.47,1.02h0.54l-0.67-1.29l0.36-0.93l1.04,2.22h0.55c-0.19-0.39-4.16-8.68-4.21-8.79l0.9,0.18l0.12-0.06
	c0-0.01,0-0.03,0-0.05c-0.4-0.06-1.05-0.17-1.11-0.23h0.29v-0.14c0.18-0.1,0.41-0.33,0.45-0.51h0.36c0-0.05,0-0.1,0-0.16
	c-0.13,0-0.26,0-0.36,0c0,0,0-5.66,0-5.72c0.17-0.12,0.25-0.37,0.19-0.64c-0.07-0.25-0.36-0.47-0.76-0.65l-0.08-0.04
	c-1.1-0.49-2.96-0.78-3.57-0.91v-0.18l-0.06-0.02l0.02-0.12c0.12-0.08,0.04-0.21-0.04-0.29c0,0,0-0.2,0-0.33h-0.08
	c0,0.14,0,0.33,0,0.33c-0.08,0.08-0.16,0.21-0.04,0.29l0.02,0.12l-0.06,0.02v0.18c-0.86,0.17-4.16,0.68-4.41,1.6
	c-0.06,0.27,0.02,0.53,0.2,0.64c0,0.88,0,5.72,0,5.72c-0.39,0-1.04,0-1.04,0v0.16h1.04C713.31,104.7,713.54,104.93,713.72,105.03z
	 M720.81,105.3l2.9,6.23l-0.44,0.72l-2.73-5.91L720.81,105.3z M719.15,107.36l-0.75-0.65l0.12-0.09h1.28l0.1,0.14h0.02
	L719.15,107.36z M720.04,106.75l0.23,0.01l1.21,2.62l-2.26-1.98L720.04,106.75z M721.56,109.57l0.83,1.78h-0.85l-3.47-3.03
	l1.08-0.86L721.56,109.57z M722.54,111.69l0.42,0.91l-1.04-0.91H722.54z M719.13,105.42c0.25,0,1.05,0,1.13,0l-0.02,0.41l-1.11,0.02
	V105.42z M718.02,105.42c0,0,0.33,0,0.76,0v0.41h-0.76C718.02,105.61,718.02,105.47,718.02,105.42z M718.02,106.16h0.5v0h0.69v0
	h0.94v0.14h-0.33v0.14h-1.08l0.03-0.02h-0.13l-0.03,0.02h-0.59C718.02,106.34,718.02,106.25,718.02,106.16z M718.39,106.61
	l-0.05,0.04l-0.04-0.04H718.39z M718.18,106.61l0.1,0.09l-0.26,0.21c0-0.1,0-0.2,0-0.3H718.18z M718.02,107.01l0.32-0.26l0.75,0.65
	l-1.07,0.85C718.02,107.81,718.02,107.39,718.02,107.01z M718.02,108.38l3.4,2.97h-3.4C718.02,110.41,718.02,109.35,718.02,108.38z
	 M718.02,111.68h3.78l1.23,1.07h-5.01C718.02,112.44,718.02,112.07,718.02,111.68z M717.19,112.76h-5.01l1.23-1.07h3.78
	C717.19,112.08,717.19,112.44,717.19,112.76z M717.19,106.16c0,0.08,0,0.18,0,0.27h-0.57v0.01h-0.69v-0.01h-0.54v-0.14h-0.33v-0.14
	h0.87v-0.01h0.69v0.01H717.19z M716.87,106.65l-0.05-0.04h0.09L716.87,106.65z M717.19,107.01c0,0.38,0,0.8,0,1.25l-1.07-0.85
	l0.75-0.65L717.19,107.01z M715.32,106.75l0.1-0.14h1.27l0.12,0.09l-0.75,0.65l-0.76-0.61L715.32,106.75z M716.06,107.46l1.08,0.86
	l-3.47,3.03h-0.84l0.83-1.78L716.06,107.46z M717.19,108.38c0,0.96,0,2.03,0,2.97h-3.4L717.19,108.38z M713.29,111.69l-1.04,0.91
	l0.42-0.91H713.29z M717.19,106.91l-0.26-0.21l0.1-0.09h0.15C717.19,106.71,717.19,106.8,717.19,106.91z M716.43,105.42
	c0.43,0,0.76,0,0.76,0c0,0.05,0,0.19,0,0.41h-0.76V105.42z M715.33,105.42c0.24,0,0.5,0,0.75,0v0.42l0,0h0v0l-0.22,0l-0.01,0
	l-0.89-0.01l-0.02-0.41C715.01,105.42,715.08,105.42,715.33,105.42L715.33,105.42z M715.17,106.75l0.82,0.66l-2.26,1.98l1.21-2.62
	L715.17,106.75z M714.4,105.31L714.4,105.31l0.28,1.03l-2.73,5.91l0,0l0,0l-0.44-0.72L714.4,105.31L714.4,105.31z"/>
</svg>
