<svg id="Layer_1" data-name="Layer 1" xmlns="http://www.w3.org/2000/svg" xmlns:xlink="http://www.w3.org/1999/xlink" viewBox="0 0 744.38 174.95"><defs><style>.cls-1{fill:#138e70;}.cls-2{fill:#ccc;}.cls-3{fill:#489a80;}.cls-4{fill:#5bc0a0;}.cls-10,.cls-5{fill:#5ac0a0;}.cls-6{fill:#148e70;}.cls-7{clip-path:url(#clip-path);}.cls-12,.cls-13,.cls-14,.cls-8{fill:none;}.cls-9{fill:#0e725a;}.cls-10{fill-rule:evenodd;}.cls-11{fill:#209164;}.cls-12,.cls-13,.cls-14{stroke:#fff;stroke-linecap:round;stroke-linejoin:round;stroke-width:0.77px;}.cls-13{stroke-dasharray:0 1.14;}.cls-14{stroke-dasharray:0 1.09;}.cls-15{fill:#15765c;}.cls-16{fill:#fff;}.cls-17{fill:#56b799;}.cls-18{fill:#eae6dd;}</style><clipPath id="clip-path"><rect id="_Clipping_Path_" data-name="&lt;Clipping Path&gt;" class="cls-1" x="210.29" y="90.56" width="32.58" height="73.64"/></clipPath></defs><title>green</title><path class="cls-2" d="M594.78,149.49V164.2H579.65V148.36c0-.06,0-.11,0-.44h.83v2.35a4.29,4.29,0,0,1,6.87.72,2.62,2.62,0,0,1,5.07,0A2.6,2.6,0,0,0,594.78,149.49Z"/><path class="cls-2" d="M594.78,135.65v5.76a20.12,20.12,0,0,1-2.69-.22v1.13h-.82V141a18.9,18.9,0,0,1-6.8-2.78,3.49,3.49,0,0,1-1.57-2.34,2.54,2.54,0,0,1,.5-2,3,3,0,0,1,3.85-.55A13.87,13.87,0,0,0,594.78,135.65Z"/><path class="cls-2" d="M598.49,150.78V164.2h-3.7V149.49A2.06,2.06,0,0,0,595,149a2.62,2.62,0,0,0,2.54,2A2.37,2.37,0,0,0,598.49,150.78Z"/><path class="cls-3" d="M610.27,147.92H579.65c0-.57,0-2,0-5.59h30.54C610.24,146,610.26,147.35,610.27,147.92Z"/><polygon class="cls-3" points="553.72 113.89 553.72 164.2 551 164.2 548.35 117.3 550.97 117.3 550.97 113.89 553.72 113.89"/><polygon class="cls-4" points="576.23 117.3 576.23 164.2 553.72 164.2 553.72 113.89 573.57 113.89 573.58 117.3 576.23 117.3"/><path class="cls-3" d="M580.48,117.3v25h-.79c0,3.64,0,5,0,5.59,0,.33,0,.38,0,.44V164.2h-3.43V117.3Z"/><path class="cls-5" d="M580.48,147.92V164.2h-.83V148.36c0-.06,0-.11,0-.44Z"/><path class="cls-2" d="M675.45,123v3.51a5.3,5.3,0,0,1-.55-1.11,4,4,0,0,1-.11-2.29l0-.1h.1A1.89,1.89,0,0,0,675.45,123Z"/><rect class="cls-5" x="650.78" y="148.17" width="0.83" height="16.04"/><polygon id="_Path_" data-name="&lt;Path&gt;" class="cls-6" points="82.21 82.75 82.5 82.75 82.5 51.9 86.44 51.9 86.44 27.95 90.95 27.95 90.95 0.63 92.69 0.63 92.69 27.95 94.86 27.95 97.02 27.95 97.02 0.63 98.77 0.63 98.77 27.95 103.29 27.95 103.29 51.9 107.23 51.9 107.23 82.75 112.07 82.75 112.07 164.2 94.86 164.2 77.51 164.2 77.51 132.44 77.51 82.75 82.21 82.75"/><g id="_Clip_Group_" data-name="&lt;Clip Group&gt;"><rect id="_Clipping_Path_2" data-name="&lt;Clipping Path&gt;" class="cls-1" x="210.29" y="90.56" width="32.58" height="73.64"/><g class="cls-7"><rect id="_Path_2" data-name="&lt;Path&gt;" class="cls-1" x="210.29" y="90.56" width="32.58" height="73.64"/></g></g><polygon id="_Path_3" data-name="&lt;Path&gt;" class="cls-6" points="38.15 103.66 38.15 68.27 42.14 68.27 42.14 59.69 54.35 59.69 54.35 68.27 58.34 68.27 58.34 103.66 62.77 103.66 62.77 164.2 33.71 164.2 33.71 103.66 38.15 103.66"/><rect id="_Path_4" data-name="&lt;Path&gt;" class="cls-4" x="244.49" y="67.35" width="40.54" height="96.85"/><path class="cls-4" d="M285,67.35v84a29.7,29.7,0,0,0-12.9-3.31,18.68,18.68,0,0,0-2.11,0c-6,0-21.07,3.31-21.37,16.17h-4.15V67.35Z"/><rect class="cls-3" x="630.71" y="105.86" width="4.72" height="58.35"/><rect class="cls-5" x="615.32" y="105.86" width="15.39" height="58.35"/><rect class="cls-3" x="610.38" y="105.86" width="4.94" height="58.35"/><path class="cls-2" d="M686.43,131.69a2.15,2.15,0,0,0-1.6-.8h-2.16a3.75,3.75,0,0,0-3.77-3,4,4,0,0,0-.5,0,.85.85,0,1,1,1.64-.23h0a3.68,3.68,0,0,0,2.88-2.94,4,4,0,0,0-.09-2.22,1.74,1.74,0,0,1-1.5-.32,1.71,1.71,0,0,1-1.47-.39,4,4,0,0,0-.95,1.48,4,4,0,0,0-1-1.28l-.08-.06-.07.07a1.64,1.64,0,0,1-1.33.49l-.07,0-.05.06a1.42,1.42,0,0,1-.83.39,1.89,1.89,0,0,1-.54,0h-.1l0,.1a4,4,0,0,0,.11,2.29,5.3,5.3,0,0,0,.55,1.11,3.42,3.42,0,0,0,2.26,1.59,3.66,3.66,0,0,0-2.26,1.89,4,4,0,0,0-.34.92h-2.16a2.13,2.13,0,0,0-1.35.54V164.2h25V131.69Z"/><path class="cls-2" d="M677.71,128.09a3.66,3.66,0,0,0-2.26,1.89v-3.49A3.42,3.42,0,0,0,677.71,128.09Z"/><path class="cls-8" d="M686.43,131.69a2.15,2.15,0,0,0-1.6-.8h-2.16a3.75,3.75,0,0,0-3.77-3,4,4,0,0,0-.5,0,.85.85,0,1,1,1.64-.23h0a3.68,3.68,0,0,0,2.88-2.94,4,4,0,0,0-.09-2.22,1.74,1.74,0,0,1-1.5-.32,1.71,1.71,0,0,1-1.47-.39,4,4,0,0,0-.95,1.48,4,4,0,0,0-1-1.28l-.08-.06-.07.07a1.64,1.64,0,0,1-1.33.49l-.07,0-.05.06a1.42,1.42,0,0,1-.83.39,1.89,1.89,0,0,1-.54,0h-.1l0,.1a4,4,0,0,0,.11,2.29,5.3,5.3,0,0,0,.55,1.11,3.42,3.42,0,0,0,2.26,1.59,3.66,3.66,0,0,0-2.26,1.89,4,4,0,0,0-.34.92h-2.16a2.13,2.13,0,0,0-1.35.54V164.2h25V131.69Z"/><polygon class="cls-1" points="315.06 73.01 315.06 164.2 294.81 164.2 294.81 91.35 310.58 72.87 314.94 72.87 315.06 73.01"/><polygon class="cls-9" points="330.72 91.35 330.72 164.2 315.06 164.2 315.06 73.01 330.72 91.35"/><path id="_Compound_Path_" data-name="&lt;Compound Path&gt;" class="cls-5" d="M473.07,164.2h39.58V147.94H473.07Zm0-24.45v5.74h39.58v-5.74Z"/><path id="_Compound_Path_2" data-name="&lt;Compound Path&gt;" class="cls-1" d="M489.54,164.2h6.64V152.38h-6.64Z"/><path id="_Compound_Path_3" data-name="&lt;Compound Path&gt;" class="cls-1" d="M475.45,161.53h11.69V149.7H475.45Z"/><path id="_Path_5" data-name="&lt;Path&gt;" class="cls-10" d="M480.26,157.07c-.87,1.07-.48,3.2-.48,3.2a4.78,4.78,0,0,0,1.32.26v1h.42l0-1a2.17,2.17,0,0,0,1.27-.29c.3-2.29-.38-3.08-.47-3.17Z"/><path id="_Path_6" data-name="&lt;Path&gt;" class="cls-10" d="M482.38,156.66c.14-1.65.61-1.93.61-1.93l.13-.84a3.2,3.2,0,0,0-1.35-.6v-.63a.69.69,0,0,0-.93,0l-.08.63a5.35,5.35,0,0,0-1.3.58l.16.87a3.4,3.4,0,0,1,.66,1.93Z"/><path id="_Compound_Path_4" data-name="&lt;Compound Path&gt;" class="cls-1" d="M498.41,161.53H510.1V149.7H498.41Z"/><polygon id="_Path_7" data-name="&lt;Path&gt;" class="cls-5" points="506.92 151.24 506.95 151.8 507.44 151.53 507.35 152.08 507.89 151.92 507.68 152.44 508.25 152.4 507.93 152.87 508.49 152.94 508.09 153.34 508.62 153.52 508.15 153.82 508.63 154.12 508.1 154.31 508.51 154.7 507.96 154.78 508.28 155.25 507.71 155.21 507.93 155.73 507.39 155.58 507.5 156.14 507 155.88 506.98 156.44 506.55 156.08 506.42 156.63 506.07 156.19 505.83 156.7 505.57 156.19 505.23 156.64 505.09 156.1 504.67 156.47 504.64 155.9 504.15 156.17 504.24 155.62 503.7 155.78 503.9 155.26 503.34 155.3 503.65 154.83 503.1 154.76 503.5 154.37 502.96 154.18 503.44 153.88 502.96 153.59 503.49 153.39 503.07 153 503.63 152.92 503.31 152.46 503.87 152.49 503.66 151.97 504.2 152.12 504.09 151.56 504.59 151.82 504.61 151.26 505.04 151.62 505.17 151.07 505.52 151.51 505.76 151 506.01 151.51 506.36 151.06 506.5 151.6 506.92 151.24"/><path id="_Compound_Path_5" data-name="&lt;Compound Path&gt;" class="cls-1" d="M504.78,153.81c-.48-.21-.46-.61-.29-1s.45-.7.94-.49.43.65.27,1S505.23,154,504.78,153.81Zm.53-1.21c-.23-.1-.37.15-.46.36s-.15.48.06.57.34-.12.44-.36S505.53,152.69,505.31,152.6Zm-.55,2.4-.29-.13,2.2-2.18.29.13Zm1.23.47c-.48-.21-.46-.61-.29-1s.45-.69.93-.49.43.65.27,1S506.43,155.66,506,155.47Zm.53-1.21c-.23-.1-.37.15-.46.36s-.16.48.06.58.34-.12.44-.36S506.73,154.35,506.51,154.26Z"/><path id="_Compound_Path_6" data-name="&lt;Compound Path&gt;" class="cls-5" d="M674.31,164.2h9.15V150.07h-9.15Z"/><path id="_Compound_Path_7" data-name="&lt;Compound Path&gt;" class="cls-5" d="M654.89,161H671V146.87H654.89Z"/><path id="_Path_8" data-name="&lt;Path&gt;" class="cls-10" d="M661.53,155.68c-1.2,1.28-.66,3.82-.66,3.82a7.48,7.48,0,0,0,1.82.31V161h.58l0-1.19a3.34,3.34,0,0,0,1.75-.35c.41-2.74-.53-3.68-.64-3.79Z"/><path id="_Path_9" data-name="&lt;Path&gt;" class="cls-10" d="M664.44,155.18c.19-2,.84-2.31.84-2.31l.18-1a4.8,4.8,0,0,0-1.86-.72v-.75a1,1,0,0,0-1.28,0l-.11.75a8,8,0,0,0-1.79.69l.22,1c.59.41.82,1.65.91,2.31Z"/><path id="_Compound_Path_8" data-name="&lt;Compound Path&gt;" class="cls-5" d="M686.54,161h16.11V146.87H686.54Z"/><polygon id="_Path_10" data-name="&lt;Path&gt;" class="cls-5" points="698.26 148.7 698.3 149.37 698.98 149.05 698.85 149.71 699.6 149.52 699.31 150.15 700.08 150.09 699.66 150.65 700.43 150.74 699.87 151.21 700.61 151.43 699.95 151.79 700.62 152.14 699.89 152.38 700.45 152.84 699.69 152.94 700.13 153.5 699.35 153.46 699.65 154.08 698.91 153.9 699.05 154.56 698.36 154.25 698.34 154.92 697.75 154.49 697.57 155.15 697.08 154.62 696.75 155.23 696.4 154.63 695.93 155.16 695.74 154.51 695.15 154.95 695.12 154.28 694.44 154.6 694.56 153.94 693.82 154.13 694.1 153.51 693.33 153.56 693.76 153 692.99 152.91 693.54 152.44 692.81 152.22 693.46 151.86 692.8 151.51 693.52 151.27 692.96 150.81 693.73 150.71 693.28 150.16 694.06 150.2 693.76 149.58 694.51 149.75 694.36 149.09 695.05 149.4 695.07 148.73 695.67 149.16 695.85 148.5 696.33 149.03 696.66 148.42 697.01 149.02 697.48 148.49 697.67 149.14 698.26 148.7"/><path id="_Compound_Path_9" data-name="&lt;Compound Path&gt;" class="cls-5" d="M695.31,151.77c-.66-.25-.63-.73-.4-1.2a1,1,0,0,1,1.29-.59c.67.25.59.77.37,1.2A1,1,0,0,1,695.31,151.77Zm.73-1.45c-.31-.12-.52.18-.64.43s-.21.57.08.68.47-.14.61-.42S696.34,150.44,696,150.32Zm-.76,2.88-.4-.15,3-2.6.4.15Zm1.69.56c-.66-.25-.63-.73-.4-1.2a1,1,0,0,1,1.29-.58c.67.25.59.77.37,1.2A1,1,0,0,1,697,153.76Zm.73-1.45c-.31-.12-.52.18-.64.43s-.22.58.08.69.47-.14.61-.43S698,152.43,697.7,152.31Z"/><path id="_Compound_Path_10" data-name="&lt;Compound Path&gt;" class="cls-5" d="M682.83,122.57a1.74,1.74,0,0,1-1.5-.32,1.71,1.71,0,0,1-1.47-.39,4,4,0,0,0-.95,1.48,3.21,3.21,0,0,0-.14.47,4.22,4.22,0,0,0,.4,3,2.87,2.87,0,0,0,.87.91h0a3.68,3.68,0,0,0,2.88-2.94A4,4,0,0,0,682.83,122.57Zm-3.38,1.31a0,0,0,0,1,0,0c0-.08.47-.24.57-.25h.11a.4.4,0,0,1,.26.11c.08.08.12.15.11.21s0,.07,0,.08a.12.12,0,0,1-.08,0,.16.16,0,0,1-.11,0l0,0a.2.2,0,0,0-.2-.09H680a2.32,2.32,0,0,0-.47,0Zm2,2a.94.94,0,0,1-.91.61,1.09,1.09,0,0,1-.25,0,1,1,0,0,1-.8-1v-.15l.06.14a1.1,1.1,0,0,0,.86.49,3.28,3.28,0,0,0,.42,0,1,1,0,0,0,.57-.13l.08-.06Zm.81-1.3h0s0,0-.05,0a2.26,2.26,0,0,0-.39-.27l0,0a.22.22,0,0,0-.23,0l-.06,0h-.06a.11.11,0,0,1-.11-.09.1.1,0,0,1,0,0,.06.06,0,0,1,0,0,.34.34,0,0,1,.2-.12l.13,0a.35.35,0,0,1,.23.09h0c.11.07.41.43.39.49Z"/><path id="_Compound_Path_11" data-name="&lt;Compound Path&gt;" class="cls-5" d="M679.17,124a2.92,2.92,0,0,0-.27-.62,4,4,0,0,0-1-1.28l-.08-.06-.07.07a1.64,1.64,0,0,1-1.33.49l-.07,0-.05.06a1.42,1.42,0,0,1-.83.39,1.89,1.89,0,0,1-.54,0h-.1l0,.1a4,4,0,0,0,.11,2.29,5.3,5.3,0,0,0,.55,1.11,3.42,3.42,0,0,0,2.26,1.59,3,3,0,0,0,.43,0h.07l0,0a1.15,1.15,0,0,0,.16-.15,2.87,2.87,0,0,0,.78-1.14A4.59,4.59,0,0,0,679.17,124Zm-2,.2a.15.15,0,0,1,.1,0,.17.17,0,0,1,.11,0l0,0a.2.2,0,0,0,.21,0h0a2.07,2.07,0,0,0,.45-.13h0a0,0,0,0,1,0,0c0,.09-.44.33-.53.36h0l-.15,0a.41.41,0,0,1-.23-.07c-.09-.07-.15-.13-.15-.2A.14.14,0,0,1,677.22,124.16Zm-.64.54a.36.36,0,0,1-.27.26h0a2.06,2.06,0,0,1-.5.06c-.09,0-.15,0-.15,0s0-.06.06-.06a4.16,4.16,0,0,0,.45-.16l0,0a.2.2,0,0,0,.14-.16.18.18,0,0,1,0-.07.15.15,0,0,1,.13-.12h.05a.1.1,0,0,1,.06.06C676.63,124.51,676.62,124.59,676.58,124.7Zm2.12,1.82a.14.14,0,0,1-.15,0,1.71,1.71,0,0,0-.84,0,1.38,1.38,0,0,0-.73.51.16.16,0,0,1-.14.07.38.38,0,0,1-.1-.21,1.5,1.5,0,0,1,0-.55c0-.08,0-.11.11-.16s.13,0,.29,0a1.1,1.1,0,0,0,.4,0,1,1,0,0,0,.28-.2c.11-.11.19-.15.24-.15a.21.21,0,0,1,.19.07,1.28,1.28,0,0,1,.36.41A.38.38,0,0,1,678.71,126.52Z"/><rect class="cls-5" x="651.61" y="148.17" width="54.56" height="16.04"/><path class="cls-5" d="M699,131.69v1.36H687a2.09,2.09,0,0,0-.56-1.36Z"/><rect class="cls-4" x="703.12" y="134.59" width="3.05" height="1.95"/><rect class="cls-4" x="651.61" y="134.59" width="3.05" height="1.95"/><path class="cls-5" d="M671.34,131.69a2.09,2.09,0,0,0-.56,1.36h-12v-1.36Z"/><path id="_Compound_Path_12" data-name="&lt;Compound Path&gt;" class="cls-11" d="M675.66,159.8h6.64v-7.42h-6.64Z"/><path id="_Compound_Path_13" data-name="&lt;Compound Path&gt;" class="cls-11" d="M684.75,164.2h17V152.38h-17Z"/><path id="_Compound_Path_14" data-name="&lt;Compound Path&gt;" class="cls-11" d="M656.24,164.2h17V152.38h-17Z"/><path class="cls-3" d="M686.43,131.69H671.34a1.58,1.58,0,0,1,.26-.26,2.13,2.13,0,0,1,1.35-.54h2.16a4,4,0,0,1,.34-.92,3.66,3.66,0,0,1,2.26-1.89,4.79,4.79,0,0,1,.68-.13,4,4,0,0,1,.5,0,3.75,3.75,0,0,1,3.77,3h2.16A2.15,2.15,0,0,1,686.43,131.69Z"/><path class="cls-11" d="M706.17,136.54v11.62H651.61V136.54h3v-2h4.16v-1.53h12a2.09,2.09,0,0,1,.56-1.36h15.09a2.09,2.09,0,0,1,.56,1.36h12v1.53h4.16v2Z"/><rect class="cls-3" x="698.95" y="133.06" width="4.16" height="1.53"/><rect class="cls-3" x="706.17" y="136.54" width="2.28" height="11.62"/><rect class="cls-3" x="648.88" y="136.54" width="2.73" height="11.62"/><rect class="cls-3" x="654.65" y="133.06" width="4.16" height="1.53"/><line class="cls-12" x1="702.71" y1="146.28" x2="702.71" y2="146.28"/><line class="cls-13" x1="701.57" y1="146.28" x2="655.57" y2="146.28"/><line class="cls-12" x1="655" y1="146.28" x2="655" y2="146.28"/><line class="cls-14" x1="655" y1="145.19" x2="655" y2="140.31"/><line class="cls-12" x1="655" y1="139.76" x2="655" y2="139.76"/><line class="cls-13" x1="656.14" y1="139.76" x2="702.14" y2="139.76"/><line class="cls-12" x1="702.71" y1="139.76" x2="702.71" y2="139.76"/><line class="cls-14" x1="702.71" y1="140.85" x2="702.71" y2="145.73"/><path id="_Compound_Path_15" data-name="&lt;Compound Path&gt;" class="cls-5" d="M682.83,132.33a34,34,0,0,1-3-.7,4,4,0,0,0-1.08,1.95,3.69,3.69,0,0,0,1.26,3.92h0a3.69,3.69,0,0,0,2.88-2.94A4,4,0,0,0,682.83,132.33Zm-3.37,1.31a0,0,0,0,1,0,0c0-.08.47-.24.57-.25h.1a.36.36,0,0,1,.26.12.29.29,0,0,1,.11.21.1.1,0,0,1,0,.08h0a.11.11,0,0,1-.08,0,.15.15,0,0,1-.11-.05l0-.05a.2.2,0,0,0-.19-.09H680a2.42,2.42,0,0,0-.47.06Zm2,2a1,1,0,0,1-.9.61l-.25,0a1,1,0,0,1-.8-1V135l.06.14s.17.37.85.49a2.45,2.45,0,0,0,.42,0,1,1,0,0,0,.57-.12l.08-.06Zm.82-1.32v0h0l0,0a2.4,2.4,0,0,0-.39-.28l0,0a.21.21,0,0,0-.22,0l-.06,0h-.06a.12.12,0,0,1-.12-.09h0a.1.1,0,0,1,0-.08.29.29,0,0,1,.2-.12l.12,0a.37.37,0,0,1,.24.09h0C682,133.85,682.29,134.21,682.27,134.27Z"/><path id="_Compound_Path_16" data-name="&lt;Compound Path&gt;" class="cls-5" d="M679.17,133.72a4.13,4.13,0,0,0-1.29-1.9l-.08-.06-.07.06a1.62,1.62,0,0,1-1.33.49l-.07,0,0,.06a1.62,1.62,0,0,1-1.36.41h-.1l0,.09a4.13,4.13,0,0,0,.11,2.3c.15.44,1,2.66,3.24,2.75h.09C679.95,136.46,679.32,134.17,679.17,133.72Zm-1.95.2a.12.12,0,0,1,.1-.05.17.17,0,0,1,.1,0l.05,0a.19.19,0,0,0,.21.05h0a2.38,2.38,0,0,0,.45-.14h0a.05.05,0,0,1,.05,0c0,.09-.44.33-.53.36h0a.49.49,0,0,1-.15,0,.4.4,0,0,1-.22-.08.3.3,0,0,1-.15-.19A.12.12,0,0,1,677.22,133.92Zm-.64.53a.38.38,0,0,1-.27.26h0a2,2,0,0,1-.5.06c-.09,0-.14,0-.15-.05s0-.06.06-.06a2.39,2.39,0,0,0,.45-.16l0,0c.11-.05.12-.09.14-.16l0-.07a.14.14,0,0,1,.13-.11h0a.1.1,0,0,1,.07.05A.3.3,0,0,1,676.59,134.46Zm2.12,1.83a.15.15,0,0,1-.16,0,1.76,1.76,0,0,0-.84,0,1.44,1.44,0,0,0-.73.51.15.15,0,0,1-.14.07.38.38,0,0,1-.1-.21,1.46,1.46,0,0,1,0-.55.21.21,0,0,1,.11-.16s.13,0,.28,0a1,1,0,0,0,.4-.05,1.08,1.08,0,0,0,.28-.19c.12-.11.19-.15.24-.15a.21.21,0,0,1,.19.06,1.46,1.46,0,0,1,.36.41A.38.38,0,0,1,678.71,136.28Z"/><polygon id="_Path_11" data-name="&lt;Path&gt;" class="cls-15" points="447.82 146.72 330.55 146.74 330.6 148.02 447.82 148 447.82 146.72"/><path id="_Compound_Path_17" data-name="&lt;Compound Path&gt;" class="cls-5" d="M446.33,134.25h-55a.17.17,0,0,0,0,.07h55A.17.17,0,0,0,446.33,134.25Z"/><path class="cls-4" d="M391.29,134.32v11.15h4.58a1.57,1.57,0,0,1-.12-.61,1.69,1.69,0,0,1,1.69-1.69h0a1.69,1.69,0,0,1,1.68,1.7,1.52,1.52,0,0,1-.12.6h2a1.58,1.58,0,0,1-.12-.61,1.7,1.7,0,1,1,3.4,0,1.53,1.53,0,0,1-.12.6h10.56a1.57,1.57,0,0,1-.12-.61,1.69,1.69,0,0,1,1.69-1.69h0a1.69,1.69,0,0,1,1.68,1.7,1.52,1.52,0,0,1-.12.6h2a1.57,1.57,0,0,1-.12-.61,1.69,1.69,0,0,1,1.69-1.69h0a1.69,1.69,0,0,1,1.68,1.7,1.52,1.52,0,0,1-.12.6H433.5a1.57,1.57,0,0,1-.12-.61,1.7,1.7,0,0,1,1.69-1.69h0a1.7,1.7,0,0,1,1.69,1.7,1.72,1.72,0,0,1-.12.6h2a1.58,1.58,0,0,1-.12-.61,1.69,1.69,0,0,1,1.69-1.69h0a1.69,1.69,0,0,1,1.68,1.7,1.52,1.52,0,0,1-.12.6h4.58V134.32Zm3.62,5.95h-2.63V135h2.63Zm7.16,0H396.5V135h5.57Zm7.52,4.77h-3.47V135h3.47Zm3.75,0h-3.47V135h3.47Zm14.91,0h-3.47V135h3.47Zm3.75,0h-3.46V135H432Zm9.05-4.77h-5.57V135h5.57Zm4.22,0h-2.63V135h2.63Z"/><path class="cls-4" d="M441,144.87a.28.28,0,0,1,0,.09.76.76,0,0,1-.26.51.39.39,0,0,1-.1.08l-.13.07a.77.77,0,0,1-.31.06.74.74,0,0,1-.44-.14l0,0,0,0a.79.79,0,0,1-.28-.6.86.86,0,0,1,0-.24.8.8,0,0,1,.77-.57.77.77,0,0,1,.57.24l0,0,0,.06a.6.6,0,0,1,.13.25A.67.67,0,0,1,441,144.87Z"/><path class="cls-4" d="M435.89,144.87V145a.78.78,0,0,1-.27.51.39.39,0,0,1-.1.08l-.12.07a.86.86,0,0,1-.32.06.76.76,0,0,1-.44-.14l0,0s0,0,0,0a.78.78,0,0,1-.27-.6.89.89,0,0,1,0-.24.81.81,0,0,1,.77-.57h0a.8.8,0,0,1,.57.24l0,0,0,.06a.77.77,0,0,1,.14.25A1,1,0,0,1,435.89,144.87Z"/><path class="cls-4" d="M422.19,144.87s0,.06,0,.09a.76.76,0,0,1-.26.51.39.39,0,0,1-.1.08l-.13.07a.81.81,0,0,1-.31.06.72.72,0,0,1-.44-.14l-.05,0a.08.08,0,0,1,0,0,.76.76,0,0,1-.28-.6.6.6,0,0,1,0-.24.8.8,0,0,1,.77-.57.78.78,0,0,1,.57.24l0,0,.05.06a.76.76,0,0,1,.13.25A1,1,0,0,1,422.19,144.87Z"/><path class="cls-4" d="M417.08,144.87a.27.27,0,0,1,0,.09.76.76,0,0,1-.26.51.39.39,0,0,1-.1.08l-.13.07a.78.78,0,0,1-.31.06.74.74,0,0,1-.44-.14l-.05,0,0,0a.79.79,0,0,1-.28-.6.86.86,0,0,1,0-.24.8.8,0,0,1,.77-.57.77.77,0,0,1,.57.24l0,0,0,.06a.6.6,0,0,1,.13.25A.67.67,0,0,1,417.08,144.87Z"/><path class="cls-4" d="M403.36,144.87V145a.78.78,0,0,1-.27.51l-.09.08-.13.07a.82.82,0,0,1-.32.06.76.76,0,0,1-.44-.14l-.05,0,0,0a.78.78,0,0,1-.27-.6.61.61,0,0,1,0-.24.8.8,0,0,1,1.33-.33l0,0,.05.06a.74.74,0,0,1,.16.49Z"/><path class="cls-6" d="M446.33,134.25h-55c.05-1.44,1.84-2.08,2.66-2.08h49.71C444.49,132.17,446.28,132.81,446.33,134.25Z"/><path class="cls-6" d="M446.34,134.32h-55a.17.17,0,0,1,0-.07h55A.17.17,0,0,1,446.34,134.32Z"/><path class="cls-6" d="M440.19,143.17h0a1.69,1.69,0,0,0-1.69,1.69,1.58,1.58,0,0,0,.12.61.15.15,0,0,0,0,.07,1.72,1.72,0,0,0,1.55,1,1.69,1.69,0,0,0,1.55-1,.24.24,0,0,0,0-.08,1.52,1.52,0,0,0,.12-.6A1.69,1.69,0,0,0,440.19,143.17ZM441,145a.76.76,0,0,1-.26.51.39.39,0,0,1-.1.08l-.13.07a.77.77,0,0,1-.31.06.74.74,0,0,1-.44-.14l0,0,0,0a.79.79,0,0,1-.28-.6.86.86,0,0,1,0-.24.8.8,0,0,1,.77-.57.77.77,0,0,1,.57.24l0,0,0,.06a.6.6,0,0,1,.13.25.67.67,0,0,1,0,.24A.28.28,0,0,1,441,145Z"/><path class="cls-6" d="M435.08,143.17h0a1.7,1.7,0,0,0-1.69,1.69,1.57,1.57,0,0,0,.12.61.15.15,0,0,0,0,.07,1.72,1.72,0,0,0,1.55,1,1.69,1.69,0,0,0,1.55-1l0-.08a1.72,1.72,0,0,0,.12-.6A1.7,1.7,0,0,0,435.08,143.17Zm.81,1.79a.78.78,0,0,1-.27.51.39.39,0,0,1-.1.08l-.12.07a.86.86,0,0,1-.32.06.76.76,0,0,1-.44-.14l0,0s0,0,0,0a.78.78,0,0,1-.27-.6.89.89,0,0,1,0-.24.81.81,0,0,1,.77-.57h0a.8.8,0,0,1,.57.24l0,0,0,.06a.77.77,0,0,1,.14.25,1,1,0,0,1,0,.24Z"/><path class="cls-6" d="M421.38,143.17h0a1.69,1.69,0,0,0-1.69,1.69,1.57,1.57,0,0,0,.12.61.14.14,0,0,0,0,.07,1.7,1.7,0,0,0,1.54,1h0a1.71,1.71,0,0,0,1.55-1,.23.23,0,0,0,0-.08,1.52,1.52,0,0,0,.12-.6A1.69,1.69,0,0,0,421.38,143.17Zm.8,1.79a.76.76,0,0,1-.26.51.39.39,0,0,1-.1.08l-.13.07a.81.81,0,0,1-.31.06.72.72,0,0,1-.44-.14l-.05,0a.08.08,0,0,1,0,0,.76.76,0,0,1-.28-.6.6.6,0,0,1,0-.24.8.8,0,0,1,.77-.57.78.78,0,0,1,.57.24l0,0,.05.06a.76.76,0,0,1,.13.25,1,1,0,0,1,0,.24S422.18,144.93,422.18,145Z"/><path class="cls-6" d="M416.27,143.17h0a1.69,1.69,0,0,0-1.69,1.69,1.57,1.57,0,0,0,.12.61.15.15,0,0,0,0,.07,1.72,1.72,0,0,0,1.55,1,1.69,1.69,0,0,0,1.55-1,.23.23,0,0,0,0-.08,1.52,1.52,0,0,0,.12-.6A1.69,1.69,0,0,0,416.27,143.17Zm.8,1.79a.76.76,0,0,1-.26.51.39.39,0,0,1-.1.08l-.13.07a.78.78,0,0,1-.31.06.74.74,0,0,1-.44-.14l-.05,0,0,0a.79.79,0,0,1-.28-.6.86.86,0,0,1,0-.24.8.8,0,0,1,.77-.57.77.77,0,0,1,.57.24l0,0,0,.06a.6.6,0,0,1,.13.25.67.67,0,0,1,0,.24A.27.27,0,0,1,417.07,145Z"/><path class="cls-6" d="M402.56,143.17a1.71,1.71,0,0,0-1.7,1.69,1.58,1.58,0,0,0,.12.61.15.15,0,0,0,0,.07,1.72,1.72,0,0,0,1.55,1h0a1.69,1.69,0,0,0,1.54-1l0-.08a1.53,1.53,0,0,0,.12-.6A1.7,1.7,0,0,0,402.56,143.17Zm.81,1.79a.78.78,0,0,1-.27.51l-.09.08-.13.07a.82.82,0,0,1-.32.06.76.76,0,0,1-.44-.14l-.05,0,0,0a.78.78,0,0,1-.27-.6.61.61,0,0,1,0-.24.8.8,0,0,1,1.33-.33l0,0,.05.06a.74.74,0,0,1,.16.49Z"/><path class="cls-4" d="M398.26,144.87s0,.06,0,.09a.76.76,0,0,1-.26.51.39.39,0,0,1-.1.08l-.13.07a.81.81,0,0,1-.31.06.72.72,0,0,1-.44-.14l-.05,0,0,0a.79.79,0,0,1-.28-.6.61.61,0,0,1,0-.24.8.8,0,0,1,.77-.57.78.78,0,0,1,.57.24l0,0,.05.06a.74.74,0,0,1,.13.25A1,1,0,0,1,398.26,144.87Z"/><path class="cls-6" d="M397.46,143.17h0a1.69,1.69,0,0,0-1.69,1.69,1.57,1.57,0,0,0,.12.61.14.14,0,0,0,0,.07,1.7,1.7,0,0,0,1.54,1h0a1.71,1.71,0,0,0,1.55-1,.23.23,0,0,0,0-.08,1.52,1.52,0,0,0,.12-.6A1.69,1.69,0,0,0,397.46,143.17Zm.8,1.79a.76.76,0,0,1-.26.51.39.39,0,0,1-.1.08l-.13.07a.81.81,0,0,1-.31.06.72.72,0,0,1-.44-.14l-.05,0,0,0a.79.79,0,0,1-.28-.6.61.61,0,0,1,0-.24.8.8,0,0,1,.77-.57.78.78,0,0,1,.57.24l0,0,.05.06a.74.74,0,0,1,.13.25,1,1,0,0,1,0,.24S398.25,144.93,398.25,145Z"/><path class="cls-6" d="M406.12,135v10h3.47V135Zm2.83,5.92h-2.18v-5.23h2.18Z"/><rect class="cls-4" x="406.77" y="135.72" width="2.18" height="5.23"/><path class="cls-6" d="M409.88,135v10h3.47V135Zm2.82,5.92h-2.18v-5.23h2.18Z"/><rect class="cls-4" x="410.51" y="135.72" width="2.18" height="5.23"/><path class="cls-6" d="M424.79,135v10h3.47V135Zm2.82,5.92h-2.18v-5.23h2.18Z"/><rect class="cls-4" x="425.42" y="135.72" width="2.18" height="5.23"/><path class="cls-6" d="M428.54,135v10H432V135Zm2.82,5.92h-2.18v-5.23h2.18Z"/><rect class="cls-4" x="429.18" y="135.72" width="2.18" height="5.23"/><rect class="cls-6" x="392.28" y="135.03" width="2.63" height="5.24"/><rect class="cls-6" x="396.5" y="135.03" width="5.57" height="5.24"/><rect class="cls-6" x="442.64" y="135.03" width="2.63" height="5.24"/><rect class="cls-6" x="435.48" y="135.03" width="5.57" height="5.24"/><path id="_Compound_Path_18" data-name="&lt;Compound Path&gt;" class="cls-5" d="M607.64,151a2.62,2.62,0,0,0-5.07,0,2.63,2.63,0,0,1-2.54-2,2.57,2.57,0,0,1-1.54,1.75,2.37,2.37,0,0,1-1,.21,2.62,2.62,0,0,1-2.54-2,2.06,2.06,0,0,1-.18.47,2.61,2.61,0,0,1-4.89-.47,6.41,6.41,0,0,0-7.61,2,2.64,2.64,0,0,1-1.8-.72v-2.35h-.83c0,.33,0,.38,0,.44V164.2h30.62V148.36A2.63,2.63,0,0,1,607.64,151Z"/><rect id="_Rectangle_" data-name="&lt;Rectangle&gt;" class="cls-1" x="582.46" y="153.73" width="25.01" height="7.18"/><path id="_Compound_Path_19" data-name="&lt;Compound Path&gt;" class="cls-5" d="M606.53,133.92a3,3,0,0,0-3.86-.54,14,14,0,0,1-7.7,2.27h-.18a13.87,13.87,0,0,1-7.53-2.27,3,3,0,0,0-3.85.55,2.54,2.54,0,0,0-.5,2,3.49,3.49,0,0,0,1.57,2.34,18.9,18.9,0,0,0,6.8,2.78v1.27h.82v-1.13a20.12,20.12,0,0,0,2.69.22H595a19.66,19.66,0,0,0,2.87-.22v1.13h.82V141a18.6,18.6,0,0,0,6.79-2.78,3.43,3.43,0,0,0,1.57-2.34A2.5,2.5,0,0,0,606.53,133.92Z"/><path id="_Path_12" data-name="&lt;Path&gt;" class="cls-16" d="M604,135.88c-.52.25-.64.65-.85,1.29a2.27,2.27,0,0,1-1.49,1.72,2.22,2.22,0,0,1-2.18-.57c-.52-.42-.85-.67-1.4-.59s-.79.42-1.17,1a2.11,2.11,0,0,1-3.8,0c-.37-.56-.6-.9-1.15-1s-.88.16-1.41.56a2.13,2.13,0,0,1-3.63-1.21c-.19-.64-.31-1-.82-1.3a.35.35,0,0,1-.16-.48.37.37,0,0,1,.49-.14,2.55,2.55,0,0,1,1.21,1.77c.2.63.38,1,.94,1.23s1,0,1.49-.42a2.21,2.21,0,0,1,3.67.61c.38.54.66.87,1.26.88s.89-.32,1.28-.86a2.22,2.22,0,0,1,3.69-.54c.53.4.91.63,1.48.45s.76-.58,1-1.22a2.58,2.58,0,0,1,1.26-1.76.35.35,0,1,1,.31.63Z"/><path class="cls-16" d="M610.27,148.36a8.06,8.06,0,0,0-7.7,2.63,2.63,2.63,0,0,1-2.54-2,2.57,2.57,0,0,1-1.54,1.75,2.37,2.37,0,0,1-1,.21,2.62,2.62,0,0,1-2.54-2,2.06,2.06,0,0,1-.18.47,2.61,2.61,0,0,1-4.89-.47,6.41,6.41,0,0,0-7.61,2,2.64,2.64,0,0,1-1.8-.72v-2.35h29.79C610.26,148.25,610.27,148.3,610.27,148.36Z"/><path class="cls-16" d="M580.48,147.92v2.35a2.62,2.62,0,0,1-.83-1.91c0-.06,0-.11,0-.44Z"/><rect id="_Path_13" data-name="&lt;Path&gt;" class="cls-4" x="340.31" y="35.85" width="27.59" height="128.35"/><rect class="cls-16" x="363.11" y="42.16" width="0.76" height="116.59"/><rect class="cls-16" x="359.91" y="42.16" width="0.76" height="116.59"/><rect class="cls-16" x="356.72" y="42.16" width="0.76" height="116.59"/><rect class="cls-16" x="353.52" y="42.16" width="0.76" height="116.59"/><rect class="cls-16" x="350.33" y="42.16" width="0.76" height="116.59"/><rect class="cls-16" x="343.94" y="42.16" width="0.76" height="116.59"/><rect class="cls-16" x="347.13" y="42.16" width="0.76" height="116.59"/><path class="cls-1" d="M738.8,162.67c-.13,3.2-1.59,5.61-5.57,5.87v4H732v-4c-3.47-.14-5-1.87-5.46-4.34s.33-6,1.48-9.17a65.67,65.67,0,0,1,4.92-10.33,63.93,63.93,0,0,1,4.41,10A23.3,23.3,0,0,1,738.8,162.67Z"/><path class="cls-5" d="M741.22,163v3.14H740V163a3.86,3.86,0,0,1-1.25-.34,23.3,23.3,0,0,0-1.44-8,53.36,53.36,0,0,1,3.48-10S748.56,162,741.22,163Z"/><polygon class="cls-5" points="551 164.2 519.68 164.2 525.08 68.5 531.02 68.5 531.02 51.22 532.37 51.22 532.37 68.5 538.31 68.5 538.31 51.22 539.66 51.22 539.66 68.5 545.6 68.5 546.85 90.56 548.35 117.3 551 164.2"/><path class="cls-3" d="M293.49,164.2h-5.4V153.38A13.86,13.86,0,0,1,293.49,164.2Z"/><path class="cls-17" d="M293.5,164.61c0,1.84-1.69,6.11-6.31,6-2.36-.06-1.79.41-9-2.93a16,16,0,0,0-14.27,0c-7.19,3.34-6.62,2.87-9,2.93-4.62.1-6.31-4.16-6.31-6,0-.14,0-.28,0-.41H285V151.35a21,21,0,0,1,3.07,2V164.2h5.4C293.5,164.34,293.5,164.47,293.5,164.61Z"/><path class="cls-11" d="M285,151.35V164.2H248.64C249,151.35,264,148,270,148a18.68,18.68,0,0,1,2.11,0A29.7,29.7,0,0,1,285,151.35Z"/><path id="_Compound_Path_20" data-name="&lt;Compound Path&gt;" class="cls-5" d="M208.47,102.24a2.11,2.11,0,0,0-2.11-2.11h-3.45a2.11,2.11,0,0,0-2.1,2.11v27a2.11,2.11,0,0,0,2.11,2.1h3.45a2.11,2.11,0,0,0,2.1-2.11Z"/><path id="_Compound_Path_21" data-name="&lt;Compound Path&gt;" class="cls-18" d="M203.32,103.33H204v1.24h1.27v-1.24H206v3.14h-.69v-1.26H204v1.26h-.69Z"/><path id="_Compound_Path_22" data-name="&lt;Compound Path&gt;" class="cls-18" d="M203,110.32h0a1.67,1.67,0,0,1,3.34,0h0a1.67,1.67,0,0,1-3.34,0Zm2.61,0h0a1,1,0,0,0-1-1,.94.94,0,0,0-.94,1h0a1,1,0,0,0,1,1A.94.94,0,0,0,205.59,110.32Z"/><path id="_Compound_Path_23" data-name="&lt;Compound Path&gt;" class="cls-18" d="M204.3,114.79h-1v-.64h2.6v.64h-1v2.5h-.69Z"/><path id="_Compound_Path_24" data-name="&lt;Compound Path&gt;" class="cls-18" d="M203.52,119.56h2.37v.61H204.2v.64h1.48v.61H204.2v.66h1.7v.61h-2.39Z"/><path id="_Compound_Path_25" data-name="&lt;Compound Path&gt;" class="cls-18" d="M203.63,125h.69v2.51h1.57v.63h-2.26Z"/><path class="cls-4" d="M164.13,100.21v64h9.13V152.27c-1,.46-1.61.82-1.61.82v-3s5.42-3.07,10.49-3.07,10.49,3.07,10.49,3.07v3a15.88,15.88,0,0,0-1.61-.87v12h9.13v-64Zm11.19,42.93h-6.57v-6.57h6.57Zm0-9.13h-6.57v-6.57h6.57Zm0-9.13h-6.57V118.3h6.57Zm0-9.12h-6.57v-6.58h6.57Zm10.1,27.39h-6.57v-6.57h6.57Zm0-9.13h-6.57v-6.57h6.57Zm0-9.13h-6.57V118.3h6.57Zm0-9.12h-6.57v-6.58h6.57Zm10.1,27.39H189v-6.57h6.57Zm0-9.13H189v-6.57h6.57Zm0-9.13H189V118.3h6.57Zm0-9.12H189v-6.58h6.57Z"/><rect class="cls-4" x="174.88" y="152.1" width="14.52" height="12.1"/><path class="cls-11" d="M192.63,150.09v3a15.88,15.88,0,0,0-1.61-.87v12H189.4V152.1H174.88v12.1h-1.61V152.27c-1,.46-1.61.82-1.61.82v-3s5.42-3.07,10.49-3.07S192.63,150.09,192.63,150.09Z"/><rect class="cls-11" x="168.75" y="118.3" width="6.57" height="6.57"/><rect class="cls-11" x="178.85" y="118.3" width="6.57" height="6.57"/><rect class="cls-11" x="188.95" y="118.3" width="6.57" height="6.57"/><rect class="cls-11" x="168.75" y="109.16" width="6.57" height="6.58"/><rect class="cls-11" x="178.85" y="109.16" width="6.57" height="6.58"/><rect class="cls-11" x="188.95" y="109.16" width="6.57" height="6.58"/><rect class="cls-11" x="168.75" y="127.43" width="6.57" height="6.57"/><rect class="cls-11" x="178.85" y="127.43" width="6.57" height="6.57"/><rect class="cls-11" x="188.95" y="127.43" width="6.57" height="6.57"/><rect class="cls-11" x="168.75" y="136.56" width="6.57" height="6.57"/><rect class="cls-11" x="178.85" y="136.56" width="6.57" height="6.57"/><rect class="cls-11" x="188.95" y="136.56" width="6.57" height="6.57"/><polygon class="cls-1" points="514.36 147.94 471.37 147.94 473.07 145.49 512.65 145.49 514.36 147.94"/><path class="cls-1" d="M6.4,162.67c.13,3.2,1.59,5.61,5.57,5.87v4H13.2v-4c3.47-.14,5-1.87,5.46-4.34s-.33-6-1.48-9.17a65.67,65.67,0,0,0-4.92-10.33,63.93,63.93,0,0,0-4.41,10A23.3,23.3,0,0,0,6.4,162.67Z"/><path class="cls-5" d="M4,163v3.14H5.14V163a3.86,3.86,0,0,0,1.25-.34,23.3,23.3,0,0,1,1.44-8,53.36,53.36,0,0,0-3.48-10S-3.36,162,4,163Z"/></svg>