<!-- Generator: Adobe Illustrator 21.1.0, SVG Export Plug-In  -->
<svg version="1.1"
	 xmlns="http://www.w3.org/2000/svg" xmlns:xlink="http://www.w3.org/1999/xlink" xmlns:a="http://ns.adobe.com/AdobeSVGViewerExtensions/3.0/"
	 x="0px" y="0px" width="222.5px" height="62px" viewBox="0 0 222.5 62" style="enable-background:new 0 0 222.5 62;"
	 xml:space="preserve">
<style type="text/css">
	.st0{fill:#FFFFFF;}
</style>
<defs>
</defs>
<g>
	<rect id="XMLID_9_" x="53.5" class="st0" width="1.3" height="62"/>
	<path id="XMLID_1_" class="st0" d="M44.6,9.6v42.2H0V9.6H44.6z M5.7,14.7v7h14.6v-7H5.7 M24.2,21.7h14.6v-7H24.2V21.7z M10.2,37.1
		h10.2V24.9H10.2V37.1z M24.2,37.1H35V24.9H24.2V37.1z M5.7,47.3h14.6v-7H5.7V47.3z M24.2,47.3h14.6v-7H24.2V47.3z"/>
	<g>
		<path class="st0" d="M80.8,46.8c-1.4,3.2-4.4,5-8,5c-4.9,0-8.8-3.5-8.8-8.9c0-5.4,3.8-8.9,8.8-8.9c4,0,6.7,2.1,7.7,4.6l-1.4,0.4
			c-0.6-1.1-2.3-3.7-6.4-3.7c-4.3,0-7.4,2.9-7.4,7.5c0,4.7,3.2,7.6,7.3,7.6c2.9,0,5.5-1.5,6.7-4.1L80.8,46.8z"/>
		<path class="st0" d="M91.8,34.1c4.9,0,8.8,3.5,8.8,8.9s-3.9,8.9-8.8,8.9c-4.9,0-8.8-3.5-8.8-8.9S86.9,34.1,91.8,34.1z M91.8,50.6
			c4.1,0,7.4-2.8,7.4-7.6c0-4.7-3.3-7.5-7.4-7.5c-4.1,0-7.4,2.9-7.4,7.5C84.4,47.7,87.7,50.6,91.8,50.6z"/>
		<path class="st0" d="M117.8,42.9c0-2.2,0.1-6.2,0.1-6.2h0c0,0-0.6,1.3-2.4,4.4l-3.5,6.3H111l-3.5-6.2c-1.8-3.2-2.4-4.5-2.4-4.5h0
			c0,0,0.1,4,0.1,6.2v8.7h-1.4V34.4h1.5l6.3,11.2h0l6.2-11.2h1.5v17.1h-1.4V42.9z"/>
		<path class="st0" d="M128.1,34.4c3.9,0,6.3,1.7,6.3,5.2c0,3.4-2.4,5.2-6.3,5.2h-3.5v6.8h-1.4V34.4H128.1z M128.1,43.5
			c3.2,0,4.9-1.3,4.9-3.9c0-2.7-1.8-3.9-4.9-3.9h-3.5v7.7H128.1z"/>
		<path class="st0" d="M137.3,46.6l-2.2,5h-1.5l7.5-17.1h1.5l7.5,17.1h-1.5l-2.2-5H137.3z M143.8,40.5c-0.7-1.6-1.9-4.4-1.9-4.4h0
			c0,0-1.2,2.8-1.9,4.4l-2.1,4.8h8L143.8,40.5z"/>
		<path class="st0" d="M154.1,36.6L154.1,36.6c0,0,0,2,0,4.1v10.9h-1.4V34.4h1.4L165,49.3h0c0,0,0-2,0-4V34.4h1.4v17.1h-1.4
			L154.1,36.6z"/>
		<path class="st0" d="M170.4,34.4h1.4v17.1h-1.4V34.4z"/>
		<path class="st0" d="M175.9,34.4h11.3v1.3h-9.9v6.1h7.8v1.3h-7.8v7h9.9v1.3h-11.3V34.4z"/>
		<path class="st0" d="M190.7,46.6c0.1,2.8,2.4,4,5.3,4c2.8,0,4.4-1.1,4.4-3.5c0-3.1-3.1-3.3-5.2-3.8c-2.4-0.5-5.3-1.3-5.3-4.7
			c0-2.8,2.1-4.5,5.6-4.5c3.1,0,5.4,1.3,6.1,4.2l-1.4,0.4c-0.5-2.1-2-3.3-4.8-3.3c-2.7,0-4.2,1.2-4.2,3.2c0,2.5,2.3,3.1,4.8,3.6
			c2.6,0.5,5.8,1.2,5.8,5c0,3.2-2.2,4.8-5.9,4.8c-2.8,0-6.1-1-6.6-4.9L190.7,46.6z"/>
	</g>
	<g>
		<path class="st0" d="M79.6,27.1c0-2.2,0-2.6,0-2.8h0c-0.8,1-3,3.1-6.8,3.1c-4.9,0-8.8-3.5-8.8-8.9c0-5.5,3.8-8.9,8.8-8.9
			c3.9,0,6.7,2.1,7.7,4.6l-1.4,0.4C78.7,13.6,77,11,72.9,11c-4.3,0-7.4,2.9-7.4,7.5c0,4.7,3.3,7.6,7.4,7.6c3.5,0,6-2,6.7-3.5v-2.9
			h-5.3v-1.3h6.7v8.7H79.6z"/>
		<path class="st0" d="M90.1,20.1c-0.4,0-1.4,0-1.8,0h-2.4v7h-1.4V10h4.9c3.9,0,6.3,1.9,6.3,5.2c0,2.7-1.6,4.2-4.1,4.7l4.3,7.3h-1.7
			L90.1,20.1z M89.5,18.9c2.8,0,4.7-0.9,4.7-3.7c0-2.7-1.9-3.9-4.9-3.9h-3.5v7.6H89.5z"/>
		<path class="st0" d="M98.9,10h11.3v1.3h-9.9v6.1h7.8v1.3h-7.8v7h9.9v1.3H98.9V10z"/>
		<path class="st0" d="M113.5,10h11.3v1.3h-9.9v6.1h7.8v1.3h-7.8v7h9.9v1.3h-11.3V10z"/>
		<path class="st0" d="M129.5,12.2L129.5,12.2c0,0,0,2,0,4.1v10.9h-1.4V10h1.4l10.8,14.8h0c0,0,0-2,0-4V10h1.4v17.1h-1.4L129.5,12.2
			z"/>
		<path class="st0" d="M146,22.2c0.1,2.8,2.4,4,5.3,4c2.8,0,4.4-1.1,4.4-3.5c0-3.1-3.1-3.3-5.2-3.8c-2.4-0.5-5.3-1.3-5.3-4.7
			c0-2.8,2.1-4.5,5.6-4.5c3.1,0,5.4,1.3,6.1,4.2l-1.4,0.4c-0.5-2.1-2-3.3-4.8-3.3c-2.7,0-4.2,1.2-4.2,3.2c0,2.5,2.3,3.1,4.8,3.6
			c2.6,0.5,5.8,1.2,5.8,5c0,3.2-2.2,4.8-5.9,4.8c-2.8,0-6.1-1-6.6-4.9L146,22.2z"/>
		<path class="st0" d="M165.9,11.3v15.8h-1.4V11.3h-6.1V10H172v1.3H165.9z"/>
		<path class="st0" d="M181.7,9.7c4.9,0,8.8,3.5,8.8,8.9s-3.9,8.9-8.8,8.9c-4.9,0-8.8-3.5-8.8-8.9S176.7,9.7,181.7,9.7z M181.7,26.1
			c4.1,0,7.4-2.8,7.4-7.6c0-4.7-3.3-7.5-7.4-7.5c-4.1,0-7.4,2.9-7.4,7.5C174.3,23.3,177.5,26.1,181.7,26.1z"/>
		<path class="st0" d="M194.9,12.2L194.9,12.2c0,0,0,2,0,4.1v10.9h-1.4V10h1.4l10.8,14.8h0c0,0,0-2,0-4V10h1.4v17.1h-1.4L194.9,12.2
			z"/>
		<path class="st0" d="M211.2,10h11.3v1.3h-9.9v6.1h7.8v1.3h-7.8v7h9.9v1.3h-11.3V10z"/>
	</g>
</g>
</svg>
