<!-- Generator: Adobe Illustrator 21.1.0, SVG Export Plug-In  -->
<svg version="1.1"
	 xmlns="http://www.w3.org/2000/svg" xmlns:xlink="http://www.w3.org/1999/xlink" xmlns:a="http://ns.adobe.com/AdobeSVGViewerExtensions/3.0/"
	 x="0px" y="0px" width="134.3px" height="37.2px" viewBox="0 0 134.3 37.2" style="enable-background:new 0 0 134.3 37.2;"
	 xml:space="preserve">
<style type="text/css">
	.st0{fill:#797A77;}
	.st1{fill:#148E70;}
</style>
<defs>
</defs>
<g>
	<rect id="XMLID_9_" x="32.1" class="st0" width="0.8" height="37.2"/>
	<path id="XMLID_1_" class="st1" d="M26.7,5.8v25.3H0V5.8H26.7z M3.4,8.8V13h8.8V8.8H3.4 M14.5,13h8.8V8.8h-8.8V13z M6.1,22.2h6.1
		V15H6.1V22.2z M14.5,22.2H21V15h-6.5V22.2z M3.4,28.4h8.8v-4.2H3.4V28.4z M14.5,28.4h8.8v-4.2h-8.8V28.4z"/>
	<g>
		<path class="st0" d="M41.9,20.9c2.4,0,3.8,1.1,3.8,3.2c0,2.1-1.4,3.2-3.8,3.2h-2.1v4.1H39V20.9H41.9z M42,26.5
			c1.9,0,2.9-0.8,2.9-2.4c0-1.7-1.1-2.4-2.9-2.4h-2.1v4.7H42z"/>
		<path class="st0" d="M47.5,28.4l-1.3,3.1h-0.9l4.5-10.5h0.9l4.5,10.5h-0.9L53,28.4H47.5z M51.4,24.6c-0.4-1-1.1-2.7-1.1-2.7h0
			c0,0-0.7,1.7-1.1,2.7l-1.3,2.9h4.8L51.4,24.6z"/>
		<path class="st0" d="M60.2,27.1c-0.2,0-0.8,0-1.1,0h-1.5v4.3h-0.8V20.9h3c2.4,0,3.8,1.2,3.8,3.2c0,1.7-1,2.6-2.5,2.8l2.6,4.4h-1
			L60.2,27.1z M59.9,26.4c1.7,0,2.8-0.6,2.8-2.2c0-1.7-1.1-2.4-2.9-2.4h-2.1v4.7H59.9z"/>
		<path class="st0" d="M69.1,21.7v9.7h-0.9v-9.7h-3.7v-0.8h8.2v0.8H69.1z"/>
		<path class="st0" d="M75.5,22.3L75.5,22.3c0,0,0,1.2,0,2.5v6.7h-0.8V20.9h0.9L82,30h0c0,0,0-1.2,0-2.4v-6.6h0.8v10.5H82L75.5,22.3
			z"/>
		<path class="st0" d="M85.3,20.9h6.8v0.8h-6v3.7h4.7v0.8h-4.7v4.3h6v0.8h-6.8V20.9z"/>
		<path class="st0" d="M97.5,27.1c-0.2,0-0.8,0-1.1,0H95v4.3h-0.8V20.9h3c2.4,0,3.8,1.2,3.8,3.2c0,1.7-1,2.6-2.5,2.8l2.6,4.4h-1
			L97.5,27.1z M97.2,26.4c1.7,0,2.8-0.6,2.8-2.2c0-1.7-1.1-2.4-2.9-2.4H95v4.7H97.2z"/>
		<path class="st0" d="M103,28.4c0.1,1.7,1.5,2.4,3.2,2.4c1.7,0,2.7-0.7,2.7-2.1c0-1.9-1.9-2-3.1-2.3c-1.4-0.3-3.2-0.8-3.2-2.9
			c0-1.7,1.2-2.8,3.4-2.8c1.9,0,3.3,0.8,3.7,2.6l-0.8,0.2c-0.3-1.3-1.2-2-2.9-2c-1.7,0-2.5,0.7-2.5,1.9c0,1.5,1.4,1.9,2.9,2.2
			c1.6,0.3,3.5,0.7,3.5,3.1c0,1.9-1.3,2.9-3.6,2.9c-1.7,0-3.7-0.6-4-3L103,28.4z"/>
	</g>
	<g>
		<path class="st1" d="M47.8,16.3c0-1.4,0-1.6,0-1.7h0c-0.5,0.6-1.8,1.9-4.1,1.9c-3,0-5.3-2.1-5.3-5.4c0-3.3,2.3-5.4,5.4-5.4
			c2.4,0,4,1.3,4.7,2.8l-0.8,0.2c-0.3-0.6-1.4-2.2-3.9-2.2c-2.6,0-4.5,1.8-4.5,4.6c0,2.9,2,4.6,4.5,4.6c2.1,0,3.6-1.2,4-2.1v-1.8
			h-3.2V11h4v5.3H47.8z"/>
		<path class="st1" d="M54.1,12c-0.2,0-0.8,0-1.1,0h-1.5v4.3h-0.8V5.9h3c2.4,0,3.8,1.2,3.8,3.2c0,1.7-1,2.6-2.5,2.8l2.6,4.4h-1
			L54.1,12z M53.8,11.3c1.7,0,2.8-0.6,2.8-2.2c0-1.7-1.1-2.4-2.9-2.4h-2.1v4.7H53.8z"/>
		<path class="st1" d="M59.5,5.9h6.8v0.8h-6v3.7h4.7v0.8h-4.7v4.3h6v0.8h-6.8V5.9z"/>
		<path class="st1" d="M68.3,5.9h6.8v0.8h-6v3.7h4.7v0.8h-4.7v4.3h6v0.8h-6.8V5.9z"/>
		<path class="st1" d="M78,7.2L78,7.2c0,0,0,1.2,0,2.5v6.7h-0.8V5.9H78l6.5,9.1h0c0,0,0-1.2,0-2.4V5.9h0.8v10.5h-0.9L78,7.2z"/>
		<path class="st1" d="M88,13.3c0.1,1.7,1.5,2.4,3.2,2.4c1.7,0,2.7-0.7,2.7-2.1c0-1.9-1.9-2-3.1-2.3c-1.4-0.3-3.2-0.8-3.2-2.9
			c0-1.7,1.2-2.8,3.4-2.8c1.9,0,3.3,0.8,3.7,2.6l-0.8,0.2c-0.3-1.3-1.2-2-2.9-2c-1.7,0-2.5,0.7-2.5,1.9c0,1.5,1.4,1.9,2.9,2.2
			c1.6,0.3,3.5,0.7,3.5,3.1c0,1.9-1.3,2.9-3.6,2.9c-1.7,0-3.7-0.6-4-3L88,13.3z"/>
		<path class="st1" d="M100,6.7v9.7h-0.9V6.7h-3.7V5.9h8.2v0.8H100z"/>
		<path class="st1" d="M109.6,5.6c3,0,5.4,2.2,5.4,5.4s-2.4,5.4-5.4,5.4c-3,0-5.4-2.2-5.4-5.4S106.6,5.6,109.6,5.6z M109.6,15.7
			c2.5,0,4.5-1.7,4.5-4.6c0-2.9-2-4.6-4.5-4.6c-2.5,0-4.5,1.8-4.5,4.6C105.1,14,107.1,15.7,109.6,15.7z"/>
		<path class="st1" d="M117.6,7.2L117.6,7.2c0,0,0,1.2,0,2.5v6.7h-0.8V5.9h0.9l6.5,9.1h0c0,0,0-1.2,0-2.4V5.9h0.8v10.5h-0.9
			L117.6,7.2z"/>
		<path class="st1" d="M127.5,5.9h6.8v0.8h-6v3.7h4.7v0.8h-4.7v4.3h6v0.8h-6.8V5.9z"/>
	</g>
</g>
</svg>
