<?xml version="1.0" encoding="utf-8"?>
<!-- Generator: Adobe Illustrator 21.0.0, SVG Export Plug-In . SVG Version: 6.00 Build 0)  -->
<svg version="1.1" id="Layer_1" xmlns="http://www.w3.org/2000/svg" xmlns:xlink="http://www.w3.org/1999/xlink" x="0px" y="0px"
	 viewBox="0 0 88.64 110.97" style="enable-background:new 0 0 88.64 110.97;" xml:space="preserve">
<path style="fill:#106950;" d="M52.95,30.44l-1.85,0.18l-1.81-0.37c0,22.86-5.68,55.01-5.68,55.01l7.49,3.37v6.22h1.85l1.08-6.22
	l8.17-2.44c0,0-7.44-33.26-7.44-56.12L52.95,30.44z"/>
<path style="fill:#5AC0A0;" d="M52.95,30.44l1.08,58.18l8.17-2.44c0,0-7.44-33.26-7.44-56.12L52.95,30.44z"/>
<polygon style="fill:none;" points="51.1,94.85 52.95,94.85 52.95,30.44 51.1,30.62 "/>
<polygon style="fill:#8BD3BC;" points="52.95,94.85 54.03,88.62 52.95,30.44 "/>
<path style="fill:#178F70;" d="M43.61,85.26l7.49,3.37v-58l-1.81-0.37C49.29,53.11,43.61,85.26,43.61,85.26z"/>
<path style="fill:#004B36;" d="M46.22,33.84c-0.21,0.58-0.7,2.42,0.04,3.58c0.34,0.52,0.9,1.01,1.57,1.4c2.29,1.32,6.01,1.32,8.3,0
	c2.98-1.75,1.72-4.62,1.72-4.62S46.58,33.32,46.22,33.84z"/>
<path style="fill:#5AC0A0;" d="M56.13,35.46c-2.29-1.32-6.01-1.32-8.3,0c-1,0.58-1.72-1.53-1.72-1.53s0,0.9,0,1
	c-0.02,0.88,0.55,1.77,1.72,2.44c2.29,1.32,6.01,1.32,8.3,0c1.15-0.66,1.72-1.53,1.72-2.4c0-0.04-0.01-0.99-0.01-0.99
	S57.22,36.08,56.13,35.46z"/>
<path style="fill:#106950;" d="M56.13,31.75c-2.29-1.32-6.01-1.32-8.3,0c-2.29,1.32-2.29,3.47,0,4.79c2.29,1.32,6.01,1.32,8.3,0
	C58.43,35.22,58.43,33.08,56.13,31.75z"/>
<path style="fill:#5AC0A0;" d="M56.27,33.98c-2.37-1.37-6.21-1.37-8.57,0c-1.04,0.6-1.78-1.58-1.78-1.58s0,0.93,0,1.03
	c-0.02,0.91,0.57,1.82,1.78,2.52c2.37,1.37,6.21,1.37,8.57,0c1.18-0.68,1.78-1.58,1.78-2.48c0-0.05-0.01-1.03-0.01-1.03
	S57.39,34.63,56.27,33.98z"/>
<path style="fill:#178F70;" d="M56.27,30.21c-2.37-1.37-6.21-1.37-8.57,0c-2.37,1.37-2.37,3.58,0,4.95c2.37,1.37,6.21,1.37,8.57,0
	C58.64,33.8,58.64,31.58,56.27,30.21z"/>
<path style="fill:#5AC0A0;" d="M56.41,32.43c-2.45-1.41-6.41-1.41-8.86,0c-1.07,0.62-1.84-1.19-1.84-1.19s0,0.52,0,0.62
	c-0.02,0.94,0.59,1.89,1.83,2.6c2.45,1.41,6.41,1.41,8.86,0c1.22-0.71,1.84-1.63,1.84-2.56c0-0.05-0.01-0.8-0.01-0.8
	S57.57,33.11,56.41,32.43z"/>
<path style="fill:#8BD3BC;" d="M57.2,28.78l-10.44,0.13c0,0-1.04,1.27-1.04,2.2c0,0.93,0.61,1.85,1.84,2.56
	c2.45,1.41,6.41,1.41,8.86,0c1.31-0.75,1.91-1.76,1.83-2.75C58.16,30.06,57.2,28.78,57.2,28.78z"/>
<path style="fill:#178F70;" d="M55.72,27c-2.05-1.18-5.38-1.18-7.43,0c-0.9,0.52-1.54,0.17-1.54,0.17s0,1.85,0,1.94
	c-0.02,0.79,0.5,1.58,1.54,2.18c2.05,1.18,5.38,1.18,7.43,0c1.03-0.59,1.54-1.37,1.54-2.14c0-0.04-0.01-1.71-0.01-1.71
	S56.69,27.56,55.72,27z"/>
<path style="fill:#37AC8C;" d="M55.72,25.29c-2.05-1.18-5.38-1.18-7.43,0c-2.05,1.18-2.05,3.1,0,4.29c2.05,1.18,5.38,1.18,7.43,0
	C57.77,28.4,57.77,26.47,55.72,25.29z"/>
<path style="fill:#8BD3BC;" d="M55.09,25.65c-1.7-0.98-4.47-0.98-6.17,0c-1.7,0.98-1.7,2.58,0,3.56c1.7,0.98,4.47,0.98,6.17,0
	C56.79,28.23,56.79,26.64,55.09,25.65z"/>
<path style="fill:#106950;" d="M53.11,20.95v6.35c0,0.13-0.08,0.25-0.22,0.34c-0.21,0.15-0.54,0.24-0.91,0.24s-0.7-0.09-0.91-0.24
	c-0.07-0.04-0.12-0.09-0.16-0.15c0-0.01-0.01-0.02-0.01-0.03c-0.03-0.05-0.05-0.1-0.05-0.16v-6.35c0,0.06,0.02,0.11,0.05,0.16
	c0,0.01,0.01,0.02,0.01,0.03c0.04,0.06,0.09,0.11,0.16,0.15c0.21,0.15,0.54,0.24,0.91,0.24c0.36,0,0.68-0.09,0.89-0.23
	c0.01,0,0.01-0.01,0.02-0.01C53.03,21.2,53.11,21.08,53.11,20.95z"/>
<path style="fill:#8BD3BC;" d="M52.55,6.88c0,0.17-0.25,0.31-0.56,0.31c-0.27,0-0.48-0.1-0.55-0.23c-0.01-0.02-0.02-0.05-0.02-0.08
	c0-0.03,0.01-0.07,0.03-0.1V6.76h0.01c0.08-0.12,0.29-0.2,0.53-0.2C52.31,6.56,52.55,6.7,52.55,6.88z"/>
<path style="fill:#178F70;" d="M52.6,8.49V8.5c-0.13,0.11-0.36,0.19-0.62,0.19s-0.48-0.07-0.61-0.18l0.01-0.43l0.04-1.15
	c0.07,0.13,0.29,0.23,0.56,0.23c0.32,0,0.57-0.14,0.57-0.31l0.04,1.24L52.6,8.49z"/>
<path style="fill:#106950;" d="M52.66,10.12c-0.1,0.16-0.37,0.26-0.68,0.26s-0.57-0.1-0.67-0.25l0.01-0.29l0.05-1.33
	c0.13,0.11,0.35,0.18,0.61,0.18s0.49-0.08,0.62-0.19l0.05,1.35L52.66,10.12z"/>
<path style="fill:#178F70;" d="M52.71,11.74c-0.11,0.16-0.39,0.28-0.73,0.28c-0.33,0-0.61-0.11-0.73-0.27v-0.01l0.01-0.32l0.05-1.29
	c0.1,0.15,0.36,0.25,0.67,0.25s0.58-0.1,0.68-0.26l0.04,1.3L52.71,11.74z"/>
<path style="fill:#178F70;" d="M52.92,13.41l-0.02,7.27c0,0.01,0,0.01,0,0.02c0,0.26-0.4,0.48-0.91,0.48c-0.5,0-0.89-0.21-0.91-0.46
	c0-0.01,0-0.01,0-0.02s0-0.01,0-0.02l-0.02-7.27c0,0.31,0.42,0.56,0.93,0.56C52.5,13.97,52.92,13.72,52.92,13.41z"/>
<path style="fill:#8BD3BC;" d="M53.11,20.95c0,0.13-0.08,0.25-0.22,0.34c-0.01,0-0.01,0.01-0.02,0.01
	c-0.21,0.14-0.53,0.23-0.89,0.23c-0.37,0-0.7-0.09-0.91-0.24c-0.07-0.04-0.12-0.09-0.16-0.15c0-0.01-0.01-0.02-0.01-0.03
	c-0.03-0.05-0.05-0.1-0.05-0.16c0-0.13,0.08-0.25,0.22-0.35v0.08c0,0.01,0,0.01,0,0.02s0,0.01,0,0.02c0,0.04,0.02,0.08,0.04,0.12
	c0.02,0.04,0.05,0.07,0.09,0.11c0.04,0.03,0.08,0.06,0.13,0.08c0.04,0.03,0.08,0.05,0.13,0.06c0.01,0,0.01,0,0.02,0.01
	c0.01,0,0.02,0.01,0.04,0.01c0.01,0.01,0.02,0.01,0.03,0.01c0.03,0.01,0.05,0.02,0.08,0.02c0.03,0.01,0.06,0.02,0.1,0.02
	c0.08,0.01,0.16,0.02,0.25,0.02c0.15,0,0.29-0.02,0.41-0.05l0.01-0.01c0.04,0,0.07-0.02,0.11-0.03c0.05-0.02,0.1-0.04,0.14-0.07
	c0.03-0.02,0.07-0.04,0.1-0.07h0.01c0.03-0.02,0.05-0.05,0.07-0.08c0.01-0.02,0.03-0.04,0.04-0.06c0.01-0.03,0.02-0.07,0.02-0.11
	c0-0.01,0-0.01,0-0.02V20.6C53.03,20.7,53.11,20.82,53.11,20.95z"/>
<path style="fill:#37AC8C;" d="M52.78,13.12v0.08c0,0.08-0.03,0.15-0.09,0.21c-0.13,0.16-0.4,0.26-0.7,0.26
	c-0.3,0-0.57-0.1-0.69-0.26c-0.06-0.06-0.09-0.13-0.09-0.21v-0.09l0.05-1.51c0.01,0.11,0.08,0.21,0.21,0.28
	C51.61,11.96,51.8,12,51.99,12c0.18,0,0.37-0.04,0.51-0.12c0.14-0.08,0.21-0.18,0.21-0.29l0.01,0.15l0.01,0.35L52.78,13.12z"/>
<path style="fill:#8BD3BC;" d="M52.92,13.41c0,0.31-0.42,0.56-0.93,0.56c-0.51,0-0.93-0.25-0.93-0.56c0-0.11,0.05-0.21,0.15-0.29
	v0.08c0,0.08,0.03,0.15,0.09,0.21c0.12,0.16,0.39,0.26,0.69,0.26c0.3,0,0.57-0.1,0.7-0.26c0.06-0.06,0.09-0.13,0.09-0.21v-0.08
	C52.87,13.2,52.92,13.3,52.92,13.41z"/>
</svg>
