<?xml version="1.0" encoding="utf-8"?>
<!-- Generator: Adobe Illustrator 21.0.0, SVG Export Plug-In . SVG Version: 6.00 Build 0)  -->
<svg version="1.1" id="Layer_1" xmlns="http://www.w3.org/2000/svg" xmlns:xlink="http://www.w3.org/1999/xlink" x="0px" y="0px"
	 viewBox="0 0 88.64 110.97" style="enable-background:new 0 0 88.64 110.97;" xml:space="preserve">
<g>
	<defs>
		<polygon id="SVGID_40_" points="52.15,79.41 52.15,90.63 60.95,85.23 60.95,74.38 60.95,74.38 		"/>
	</defs>
	<use xlink:href="#SVGID_40_"  style="overflow:visible;fill:#37AC8C;"/>
	<clipPath id="SVGID_61_">
		<use xlink:href="#SVGID_40_"  style="overflow:visible;"/>
	</clipPath>
	<g style="clip-path:url(#SVGID_61_);">
		
			<rect x="48.4" y="78.06" transform="matrix(4.504180e-03 -1 1 4.504180e-03 -26.2095 138.6815)" style="fill:#37AC8C;" width="16.3" height="8.88"/>
	</g>
</g>
<g>
	<defs>
		<polygon id="SVGID_38_" points="43.39,48.86 52.15,53.97 60.95,48.94 52.19,40.46 		"/>
	</defs>
	<use xlink:href="#SVGID_38_"  style="overflow:visible;fill:#8BD3BC;"/>
	<clipPath id="SVGID_62_">
		<use xlink:href="#SVGID_38_"  style="overflow:visible;"/>
	</clipPath>
	<g style="clip-path:url(#SVGID_62_);">
		<rect x="43.39" y="40.46" style="fill:#8BD3BC;" width="17.56" height="13.51"/>
	</g>
</g>
<g>
	<defs>
		<polygon id="SVGID_37_" points="43.39,27.11 52.14,32.58 52.19,18.34 		"/>
	</defs>
	<use xlink:href="#SVGID_37_"  style="overflow:visible;fill:#106950;"/>
	<clipPath id="SVGID_63_">
		<use xlink:href="#SVGID_37_"  style="overflow:visible;"/>
	</clipPath>
	<g style="clip-path:url(#SVGID_63_);">
		<rect x="43.39" y="18.34" style="fill:#106950;" width="8.81" height="13.88"/>
	</g>
</g>
<g>
	<g>
		<defs>
			<polygon id="SVGID_39_" points="43.36,74.31 43.4,85.17 52.17,90.62 52.14,79.39 43.36,74.31 			"/>
		</defs>
		<use xlink:href="#SVGID_39_"  style="overflow:visible;fill:#178F70;"/>
		<clipPath id="SVGID_64_">
			<use xlink:href="#SVGID_39_"  style="overflow:visible;"/>
		</clipPath>
		<g style="clip-path:url(#SVGID_64_);">
			
				<rect x="43.33" y="74.3" transform="matrix(1 -3.302594e-03 3.302594e-03 1 -0.2721 0.1582)" style="fill:#178F70;" width="8.87" height="16.34"/>
		</g>
	</g>
	<g>
		<defs>
			<polygon id="SVGID_41_" points="43.38,81.33 52.15,86.44 52.15,32.26 43.39,27.15 			"/>
		</defs>
		<use xlink:href="#SVGID_41_"  style="overflow:visible;fill:#178F70;"/>
		<clipPath id="SVGID_65_">
			<use xlink:href="#SVGID_41_"  style="overflow:visible;"/>
		</clipPath>
		<g style="clip-path:url(#SVGID_65_);">
			<rect x="43.38" y="27.15" style="fill:#178F70;" width="8.76" height="59.29"/>
		</g>
	</g>
</g>
<g>
	<defs>
		<polygon id="SVGID_43_" points="44.32,81.16 51.21,85.56 51.21,32.8 44.32,28.78 		"/>
	</defs>
	<use xlink:href="#SVGID_43_"  style="overflow:visible;fill:#004B36;"/>
	<clipPath id="SVGID_66_">
		<use xlink:href="#SVGID_43_"  style="overflow:visible;"/>
	</clipPath>
	<g style="clip-path:url(#SVGID_66_);">
		<rect x="44.32" y="28.78" style="fill:#004B36;" width="6.89" height="56.78"/>
	</g>
</g>
<g>
	<defs>
		<polygon id="SVGID_45_" points="52.15,53.97 52.15,86.44 52.15,86.44 60.95,81.41 60.95,48.94 		"/>
	</defs>
	<use xlink:href="#SVGID_45_"  style="overflow:visible;fill:#37AC8C;"/>
	<clipPath id="SVGID_67_">
		<use xlink:href="#SVGID_45_"  style="overflow:visible;"/>
	</clipPath>
	<g style="clip-path:url(#SVGID_67_);">
		
			<rect x="37.78" y="63.2" transform="matrix(4.497797e-03 -1 1 4.497797e-03 -11.395 123.9327)" style="fill:#37AC8C;" width="37.53" height="8.97"/>
	</g>
</g>
<g>
	<defs>
		<polygon id="SVGID_47_" points="53.08,54.52 53.08,85.57 60.02,81.24 60.02,50.55 		"/>
	</defs>
	<use xlink:href="#SVGID_47_"  style="overflow:visible;fill:#106950;"/>
	<clipPath id="SVGID_68_">
		<use xlink:href="#SVGID_47_"  style="overflow:visible;"/>
	</clipPath>
	<g style="clip-path:url(#SVGID_68_);">
		<rect x="53.08" y="50.55" style="fill:#106950;" width="6.93" height="35.02"/>
	</g>
</g>
<g>
	<line style="fill:#8BD3BC;" x1="52.15" y1="53.97" x2="43.39" y2="59.72"/>
	
		<rect x="42.15" y="56.47" transform="matrix(0.8368 -0.5475 0.5475 0.8368 -23.326 35.4248)" style="fill:#37AC8C;" width="11.22" height="0.75"/>
</g>
<g>
	<line style="fill:#8BD3BC;" x1="43.39" y1="48.86" x2="52.15" y2="64.83"/>
	
		<rect x="47.39" y="47.36" transform="matrix(0.8767 -0.481 0.481 0.8767 -21.4536 29.9835)" style="fill:#37AC8C;" width="0.75" height="18.96"/>
</g>
<g>
	<line style="fill:#8BD3BC;" x1="52.15" y1="43.12" x2="43.39" y2="48.86"/>
	
		<rect x="42.15" y="45.61" transform="matrix(0.8368 -0.5475 0.5475 0.8368 -17.3829 33.654)" style="fill:#37AC8C;" width="11.22" height="0.75"/>
</g>
<g>
	<line style="fill:#8BD3BC;" x1="43.39" y1="38.01" x2="52.15" y2="53.97"/>
	
		<rect x="47.39" y="36.51" transform="matrix(0.8768 -0.4809 0.4809 0.8768 -16.231 28.641)" style="fill:#37AC8C;" width="0.75" height="18.96"/>
</g>
<g>
	<line style="fill:#8BD3BC;" x1="52.15" y1="32.26" x2="43.39" y2="38.01"/>
	
		<rect x="42.15" y="34.76" transform="matrix(0.8368 -0.5475 0.5475 0.8368 -11.4405 31.8829)" style="fill:#37AC8C;" width="11.22" height="0.75"/>
</g>
<g>
	<line style="fill:#8BD3BC;" x1="43.39" y1="27.15" x2="52.15" y2="43.12"/>
	
		<rect x="47.39" y="25.65" transform="matrix(0.8767 -0.481 0.481 0.8767 -11.0105 27.3046)" style="fill:#37AC8C;" width="0.75" height="18.96"/>
</g>
<g>
	<line style="fill:#8BD3BC;" x1="52.15" y1="64.83" x2="43.38" y2="70.57"/>
	
		<rect x="42.15" y="67.32" transform="matrix(0.8368 -0.5475 0.5475 0.8368 -29.2684 37.1959)" style="fill:#37AC8C;" width="11.22" height="0.75"/>
</g>
<g>
	<line style="fill:#8BD3BC;" x1="43.39" y1="59.72" x2="52.14" y2="75.68"/>
	
		<rect x="47.39" y="58.22" transform="matrix(0.8768 -0.4809 0.4809 0.8768 -26.6724 31.3163)" style="fill:#37AC8C;" width="0.75" height="18.96"/>
</g>
<g>
	<line style="fill:#8BD3BC;" x1="52.14" y1="75.68" x2="43.39" y2="81.43"/>
	
		<rect x="42.15" y="78.18" transform="matrix(0.8358 -0.549 0.549 0.8358 -35.2824 39.1169)" style="fill:#37AC8C;" width="11.22" height="0.75"/>
</g>
<g>
	<line style="fill:#8BD3BC;" x1="43.39" y1="70.57" x2="52.14" y2="86.54"/>
	
		<rect x="47.39" y="69.07" transform="matrix(0.8767 -0.481 0.481 0.8767 -31.8941 32.6561)" style="fill:#37AC8C;" width="0.75" height="18.96"/>
</g>
<g>
	<line style="fill:#004B36;" x1="49.34" y1="21.19" x2="49.38" y2="11"/>
	
		<rect x="44.26" y="15.72" transform="matrix(5.208263e-03 -1 1 5.208263e-03 33.0073 65.3686)" style="fill:#004B36;" width="10.19" height="0.75"/>
</g>
<g>
	<line style="fill:#004B36;" x1="52.15" y1="22.87" x2="52.19" y2="12.68"/>
	
		<rect x="47.07" y="17.4" transform="matrix(5.208263e-03 -1 1 5.208263e-03 34.1231 69.8496)" style="fill:#004B36;" width="10.19" height="0.75"/>
</g>
<g>
	<path style="fill:#004B36;" d="M52.15,23.24c-0.07,0-0.13-0.02-0.19-0.05l-2.81-1.68c-0.11-0.07-0.18-0.19-0.18-0.32v-1.77h0.75
		v1.56l2.06,1.23v-2.79h0.75v3.45c0,0.13-0.07,0.26-0.19,0.33C52.27,23.23,52.21,23.24,52.15,23.24z"/>
</g>
<g>
	<line style="fill:#004B36;" x1="49.38" y1="18.96" x2="52.19" y2="20.64"/>
	
		<rect x="50.41" y="18.17" transform="matrix(0.5128 -0.8585 0.8585 0.5128 7.7437 53.251)" style="fill:#004B36;" width="0.75" height="3.27"/>
</g>
<g>
	<g>
		<line style="fill:#36AD8D;" x1="52.15" y1="53.97" x2="60.91" y2="59.72"/>
		
			<rect x="56.15" y="51.23" transform="matrix(0.5482 -0.8363 0.8363 0.5482 -22.0028 72.9577)" style="fill:#8BD3BC;" width="0.75" height="11.22"/>
	</g>
	<g>
		<line style="fill:#36AD8D;" x1="60.91" y1="48.86" x2="52.15" y2="64.83"/>
		
			<rect x="47.05" y="56.47" transform="matrix(0.4808 -0.8768 0.8768 0.4808 -20.4933 79.08)" style="fill:#8BD3BC;" width="18.96" height="0.75"/>
	</g>
	<g>
		<line style="fill:#36AD8D;" x1="52.15" y1="64.83" x2="60.91" y2="70.57"/>
		
			<rect x="56.15" y="62.09" transform="matrix(0.5482 -0.8363 0.8363 0.5482 -31.0812 77.858)" style="fill:#8BD3BC;" width="0.75" height="11.22"/>
	</g>
	<g>
		<line style="fill:#36AD8D;" x1="60.91" y1="59.72" x2="52.15" y2="75.68"/>
		
			<rect x="47.05" y="67.32" transform="matrix(0.4808 -0.8768 0.8768 0.4808 -30.0113 84.7167)" style="fill:#8BD3BC;" width="18.96" height="0.75"/>
	</g>
	<g>
		<line style="fill:#36AD8D;" x1="52.15" y1="75.68" x2="60.91" y2="81.43"/>
		
			<rect x="56.15" y="72.94" transform="matrix(0.5483 -0.8363 0.8363 0.5483 -40.1593 82.7599)" style="fill:#8BD3BC;" width="0.75" height="11.23"/>
	</g>
	<g>
		<line style="fill:#36AD8D;" x1="60.91" y1="70.57" x2="52.15" y2="86.54"/>
		
			<rect x="47.05" y="78.18" transform="matrix(0.4808 -0.8768 0.8768 0.4808 -39.5294 90.353)" style="fill:#8BD3BC;" width="18.96" height="0.75"/>
	</g>
</g>
</svg>
