<?xml version="1.0" encoding="utf-8"?>
<!-- Generator: Adobe Illustrator 21.0.0, SVG Export Plug-In . SVG Version: 6.00 Build 0)  -->
<svg version="1.1" id="Layer_1" xmlns="http://www.w3.org/2000/svg" xmlns:xlink="http://www.w3.org/1999/xlink" x="0px" y="0px"
	 viewBox="0 0 88.64 110.97" style="enable-background:new 0 0 88.64 110.97;" xml:space="preserve">
<rect x="53.02" y="31.8" style="fill:#106950;" width="0.01" height="0.01"/>
<rect x="53.03" y="32.47" style="fill:#106950;" width="0.01" height="0.01"/>
<rect x="53.03" y="31.8" style="fill:#106950;" width="0.01" height="0.01"/>
<rect x="53.02" y="32.47" style="fill:#106950;" width="0.01" height="0.01"/>
<polygon style="fill:#106950;" points="53.05,32.87 53.05,32.9 53.04,32.9 53.04,32.89 53.03,32.89 53.03,32.88 "/>
<polygon style="fill:#106950;" points="53.03,32.88 53.03,32.89 53.02,32.89 53.02,32.9 53.01,32.9 53.01,32.87 "/>
<polygon style="fill:#106950;" points="53.04,33.7 53.04,33.71 53.03,33.7 "/>
<rect x="53.02" y="32.47" style="fill:#106950;" width="0.01" height="0.01"/>
<rect x="53.03" y="31.8" style="fill:#106950;" width="0.01" height="0.01"/>
<rect x="53.02" y="31.8" style="fill:#106950;" width="0.01" height="0.01"/>
<polygon style="fill:#106950;" points="53.03,32.88 53.03,32.89 53.02,32.89 53.02,32.9 53.01,32.9 53.01,32.87 "/>
<rect x="53.03" y="32.47" style="fill:#106950;" width="0.01" height="0.01"/>
<rect x="53.02" y="33.7" style="fill:#106950;" width="0.01" height="0.01"/>
<polygon style="fill:#106950;" points="53.05,32.87 53.05,32.9 53.04,32.9 53.04,32.89 53.03,32.89 53.03,32.88 "/>
<polygon id="SVGID_57_" style="fill:#8BD3BC;" points="48.18,92.34 53.03,95.17 57.92,92.39 53.06,89.55 "/>
<polygon id="SVGID_56_" style="fill:#15765C;" points="48.16,93.08 53.02,95.91 53.03,95.17 48.18,92.34 "/>
<polygon id="SVGID_55_" style="fill:#178F70;" points="53.03,95.17 53.02,95.91 57.9,93.12 57.92,92.39 "/>
<polygon id="SVGID_60_" style="fill:#8BD3BC;" points="48.18,74.87 53.03,77.7 57.92,74.92 53.06,72.08 "/>
<polygon id="SVGID_59_" style="fill:#15765C;" points="48.16,75.61 53.02,78.44 53.03,77.7 48.18,74.87 "/>
<polygon id="SVGID_58_" style="fill:#178F70;" points="53.03,77.7 53.02,78.44 57.9,75.65 57.92,74.92 "/>
<polygon id="SVGID_54_" style="fill:#8BD3BC;" points="64.4,82.96 69.25,85.79 74.13,83 69.27,80.17 "/>
<polygon id="SVGID_44_" style="fill:#15765C;" points="64.38,83.69 69.23,86.53 69.25,85.79 64.4,82.96 "/>
<polygon id="SVGID_42_" style="fill:#178F70;" points="69.25,85.79 69.23,86.53 74.12,83.74 74.13,83 "/>
<polygon id="SVGID_362_" style="fill:#8BD3BC;" points="32.14,82.96 36.99,85.79 41.87,83 37.02,80.17 "/>
<polygon id="SVGID_360_" style="fill:#15765C;" points="32.12,83.69 36.97,86.53 36.99,85.79 32.14,82.96 "/>
<polygon id="SVGID_358_" style="fill:#178F70;" points="36.99,85.79 36.97,86.53 41.86,83.74 41.87,83 "/>
<g>
	<defs>
		<polygon id="SVGID_350_" points="53.09,69.51 62.02,74.69 62.77,74.26 53.11,68.65 		"/>
	</defs>
	<use xlink:href="#SVGID_350_"  style="overflow:visible;fill:#15765C;"/>
	<clipPath id="SVGID_61_">
		<use xlink:href="#SVGID_350_"  style="overflow:visible;"/>
	</clipPath>
	<rect x="53.09" y="68.65" style="clip-path:url(#SVGID_61_);fill:#15765C;" width="9.68" height="6.04"/>
</g>
<g>
	<defs>
		<polygon id="SVGID_348_" points="43.35,74.15 44.12,74.62 53.09,69.51 53.11,68.65 		"/>
	</defs>
	<use xlink:href="#SVGID_348_"  style="overflow:visible;fill:#178F70;"/>
	<clipPath id="SVGID_62_">
		<use xlink:href="#SVGID_348_"  style="overflow:visible;"/>
	</clipPath>
	<rect x="43.35" y="68.65" style="clip-path:url(#SVGID_62_);fill:#178F70;" width="9.75" height="5.98"/>
</g>
<g>
	<defs>
		<path id="SVGID_346_" d="M44.71,73.41l8.4-4.76l8.35,4.87l-8.4,4.76L44.71,73.41z M42.07,73.4l10.98,6.4l11.05-6.27l-10.98-6.41
			L42.07,73.4z"/>
	</defs>
	<use xlink:href="#SVGID_346_"  style="overflow:visible;fill:#8BD3BC;"/>
	<clipPath id="SVGID_63_">
		<use xlink:href="#SVGID_346_"  style="overflow:visible;"/>
	</clipPath>
	<rect x="42.07" y="67.12" style="clip-path:url(#SVGID_63_);fill:#8BD3BC;" width="22.03" height="12.68"/>
</g>
<g>
	<defs>
		<polygon id="SVGID_344_" points="42.04,74.29 53.04,80.67 53.05,79.81 42.07,73.4 		"/>
	</defs>
	<use xlink:href="#SVGID_344_"  style="overflow:visible;fill:#15765C;"/>
	<clipPath id="SVGID_64_">
		<use xlink:href="#SVGID_344_"  style="overflow:visible;"/>
	</clipPath>
	<rect x="42.04" y="73.4" style="clip-path:url(#SVGID_64_);fill:#15765C;" width="11.02" height="7.27"/>
</g>
<g>
	<defs>
		<polygon id="SVGID_342_" points="53.05,79.81 53.04,80.67 64.07,74.36 64.08,73.5 		"/>
	</defs>
	<use xlink:href="#SVGID_342_"  style="overflow:visible;fill:#178F70;"/>
	<clipPath id="SVGID_65_">
		<use xlink:href="#SVGID_342_"  style="overflow:visible;"/>
	</clipPath>
	<rect x="53.04" y="73.5" style="clip-path:url(#SVGID_65_);fill:#178F70;" width="11.05" height="7.17"/>
</g>
<g>
	<defs>
		<polygon id="SVGID_340_" points="53.06,62.07 57.41,64.58 58.16,64.15 53.08,61.21 		"/>
	</defs>
	<use xlink:href="#SVGID_340_"  style="overflow:visible;fill:#15765C;"/>
	<clipPath id="SVGID_66_">
		<use xlink:href="#SVGID_340_"  style="overflow:visible;"/>
	</clipPath>
	<rect x="53.06" y="61.21" style="clip-path:url(#SVGID_66_);fill:#15765C;" width="5.1" height="3.37"/>
</g>
<g>
	<defs>
		<polygon id="SVGID_338_" points="47.93,64.11 48.7,64.59 53.06,62.07 53.08,61.21 		"/>
	</defs>
	<use xlink:href="#SVGID_338_"  style="overflow:visible;fill:#178F70;"/>
	<clipPath id="SVGID_67_">
		<use xlink:href="#SVGID_338_"  style="overflow:visible;"/>
	</clipPath>
	<rect x="47.93" y="61.21" style="clip-path:url(#SVGID_67_);fill:#178F70;" width="5.15" height="3.38"/>
</g>
<g>
	<defs>
		<path id="SVGID_336_" d="M49.29,63.38l3.79-2.17l3.77,2.2l-3.79,2.16L49.29,63.38z M46.65,63.37l6.4,3.73l6.44-3.67l-6.4-3.74
			L46.65,63.37z"/>
	</defs>
	<use xlink:href="#SVGID_336_"  style="overflow:visible;fill:#8BD3BC;"/>
	<clipPath id="SVGID_68_">
		<use xlink:href="#SVGID_336_"  style="overflow:visible;"/>
	</clipPath>
	<rect x="46.65" y="59.68" style="clip-path:url(#SVGID_68_);fill:#8BD3BC;" width="12.84" height="7.41"/>
</g>
<g>
	<defs>
		<polygon id="SVGID_334_" points="46.62,64.25 53.04,67.96 53.05,67.1 46.65,63.37 		"/>
	</defs>
	<use xlink:href="#SVGID_334_"  style="overflow:visible;fill:#15765C;"/>
	<clipPath id="SVGID_69_">
		<use xlink:href="#SVGID_334_"  style="overflow:visible;"/>
	</clipPath>
	<rect x="46.62" y="63.36" style="clip-path:url(#SVGID_69_);fill:#15765C;" width="6.44" height="4.59"/>
</g>
<g>
	<defs>
		<polygon id="SVGID_332_" points="53.05,67.1 53.04,67.96 59.45,64.25 59.47,63.39 		"/>
	</defs>
	<use xlink:href="#SVGID_332_"  style="overflow:visible;fill:#178F70;"/>
	<clipPath id="SVGID_70_">
		<use xlink:href="#SVGID_332_"  style="overflow:visible;"/>
	</clipPath>
	<rect x="53.04" y="63.39" style="clip-path:url(#SVGID_70_);fill:#178F70;" width="6.44" height="4.57"/>
</g>
<path style="fill:#106950;" d="M53.2,32.91l-2.37-1.32c-0.1-0.06-0.23-0.05-0.33,0c-0.1,0.06-0.17,0.17-0.17,0.29
	c0,8.41-0.99,25.34-4.72,35.46c-0.93,2.53-2.23,4.78-3.63,6.74c-0.06,0.01-0.1,0.05-0.14,0.1c-0.02,0.03-0.01,0.06-0.01,0.09
	c-3.99,5.47-8.8,8.54-8.87,8.58c-0.1,0.06-0.16,0.17-0.16,0.29s0.07,0.23,0.17,0.28l2.91,1.64c0.12,0.07,0.28,0.05,0.38-0.04
	c1.52-1.33,6.13-5.37,9.27-3.94c2.29,1.04,3.45,4.8,3.45,11.16c0,0.12,0.07,0.23,0.17,0.29l3.7,2.08c0.05,0.03,0.11,0.04,0.16,0.04
	c0.06,0,0.12-0.01,0.17-0.05c0.1-0.06,0.17-0.17,0.17-0.29V33.2C53.37,33.08,53.31,32.96,53.2,32.91z M50.19,89.47l2.51,1.44v2.66
	L50.19,89.47z M42.53,78.28c0.12-0.15,0.24-0.3,0.35-0.45l4.46,2.56l0.03,0.07c0,0.01,0.01,0.01,0.02,0.02
	c0.01,0.02,0.02,0.02,0.03,0.04c0.02,0.03,0.05,0.05,0.09,0.07c0.01,0,0.01,0.01,0.02,0.02c0.02,0,0.04,0.01,0.06,0.01
	c0.03,0,0.05,0,0.08-0.01c0.01,0,0.01-0.01,0.02-0.02l2.21,1.26c-0.01,0.21-0.03,0.42-0.04,0.62L42.53,78.28z M36.26,84.15
	l-0.09-2.71l1.92,1.1c-0.2,0.2-0.39,0.39-0.6,0.6C37.01,83.51,36.6,83.86,36.26,84.15z M36.41,81.06c0.48-0.41,1-0.87,1.54-1.38
	l0.17,2.36L36.41,81.06z M38.57,82.06l-0.19-2.6l1.72,0.99C39.63,80.98,39.11,81.52,38.57,82.06z M40.6,79.9l-0.32-2.4l1.58,0.9
	C41.46,78.9,41.04,79.39,40.6,79.9z M40.45,77.09c0.12-0.14,0.24-0.29,0.37-0.44l1.67,0.96c-0.11,0.15-0.23,0.3-0.35,0.44
	L40.45,77.09z M47.38,63.94l2.83,0.23l2.49,2.83v2.88L51,66.79c0-0.05,0-0.09,0-0.14c0-0.12-0.1-0.22-0.22-0.22c0,0,0,0,0,0
	c-0.12,0-0.22,0.1-0.22,0.22c-0.01,3.21-0.22,7.68-0.48,11.99l-3.74-2.14c0,0,0,0,0,0c0,0,0,0,0,0l-1.79-1.02
	c0.58-0.89,1.07-1.76,1.52-2.6c0,0,0.01-0.01,0.01-0.01c0,0,0.01,0,0.01-0.01c0-0.01,0-0.01,0-0.02c0.4-0.77,0.76-1.53,1.07-2.26
	c0.06-0.01,0.11-0.04,0.15-0.1c0.04-0.07,0.02-0.15-0.01-0.22c0.29-0.71,0.55-1.4,0.79-2.08c0.08,0,0.15-0.04,0.19-0.11
	c0.05-0.1,0.02-0.21-0.06-0.27c0.26-0.78,0.49-1.54,0.7-2.28c0.03-0.12-0.04-0.24-0.15-0.28c-0.11-0.04-0.24,0.04-0.28,0.15
	c-0.16,0.58-0.34,1.17-0.53,1.77l-0.72-2.62C47.27,64.33,47.33,64.14,47.38,63.94z M48.65,58.41l0.08,0.05l1.61,2.28l-2.23,0.24
	C48.31,60.14,48.49,59.28,48.65,58.41z M52.7,73.67v2.27l-1.56-3.09L52.7,73.67z M52.7,70.76v1.97l-1.61-2.81L52.7,70.76z
	 M52.33,72.96l-1.47-0.77c0.02-0.58,0.05-1.14,0.06-1.69L52.33,72.96z M52.33,76.19l-1.62-0.93c0.04-0.7,0.07-1.39,0.1-2.07
	L52.33,76.19z M52.7,76.92v2.29l-1.6-3.2L52.7,76.92z M52.7,82.63l-1.79-3l1.79,1.03V82.63z M50.96,69.34
	c0.02-0.57,0.03-1.12,0.03-1.64l1.29,2.34L50.96,69.34z M50.67,76.13l1.98,3.98l-2.14-1.23C50.56,77.97,50.62,77.04,50.67,76.13z
	 M45.21,78.14l-0.61-2.13l1.33,0.76L45.21,78.14z M42.99,76.92l-0.47-2.1l1.38,0.79C43.62,76.04,43.32,76.48,42.99,76.92z
	 M44.15,76.06l0.68,2.38l-1.68-0.96C43.5,76.99,43.83,76.52,44.15,76.06z M46.19,77.24l0.91,2.5l-1.72-0.98L46.19,77.24z
	 M46.65,77.19l1.33,0.76l-0.44,1.69L46.65,77.19z M48.29,78.52l1.25,2.62l-1.69-0.97L48.29,78.52z M48.71,78.37l1.33,0.76
	c-0.04,0.6-0.07,1.2-0.11,1.79L48.71,78.37z M50.46,79.74l1.75,2.93l-1.87-1.07C50.38,80.98,50.42,80.36,50.46,79.74z M52.7,86.84
	l-2.07-3.4l2.07,1.18V86.84z M52.19,86.86l-2.13-1.22c0.05-0.66,0.09-1.34,0.14-2.05L52.19,86.86z M50,86.48l2.19,3.63l-2.36-1.35
	C49.89,88.07,49.94,87.3,50,86.48z M50.47,86.39l2.23,1.28v2.41L50.47,86.39z M52.68,37.36l-0.82,0.86l-0.72-1.75L52.68,37.36z
	 M51.02,35.9l0.73-0.9l0.79,1.78L51.02,35.9z M52.7,37.99v2.31l-0.66-1.62L52.7,37.99z M52.42,40.78l-1.54-0.88l0.82-0.86
	L52.42,40.78z M52.53,41.36L51.7,42.4l-0.74-1.94L52.53,41.36z M52.7,41.86v3.17l-0.82-2.16L52.7,41.86z M52.4,45.49l-1.79-1.03
	l0.95-1.18L52.4,45.49z M52.56,46.09l-0.9,0.84l-0.73-1.78L52.56,46.09z M52.7,46.57v2.91l-0.86-2.11L52.7,46.57z M52.43,49.99
	l-2.11-1.18l1.18-1.1L52.43,49.99z M52.64,50.62l-1.19,0.99l-1.02-2.22L52.64,50.62z M52.7,51.16v3.18l-1.06-2.3L52.7,51.16z
	 M52.54,55.05l-2.69-1.54l1.43-1.19L52.54,55.05z M52.61,55.61l-1.4,0.91L50,54.11L52.61,55.61z M52.7,56.08v3.42l-1.29-2.58
	L52.7,56.08z M52.51,60.11l-3.19-1.83l1.71-1.11L52.51,60.11z M52.33,60.52l-1.48,0.16l-1.2-1.7L52.33,60.52z M52.7,60.93v2.37
	l-1.55-2.2L52.7,60.93z M52.27,63.46l-3.64-2.08l2.01-0.22L52.27,63.46z M52.09,63.87l-1.66-0.13l-1.45-1.65L52.09,63.87z
	 M52.7,64.37v1.95l-1.84-2.1L52.7,64.37z M52.7,36.02l-0.63-1.41l0.63-0.77V36.02z M51.87,34.15l-0.73-1.63l1.41,0.78L51.87,34.15z
	 M51.56,34.54l-0.6,0.74c0.02-0.7,0.03-1.37,0.04-2.01L51.56,34.54z M50.9,37.06l0.62,1.52l-0.72,0.76
	C50.83,38.56,50.87,37.8,50.9,37.06z M50.7,41.04l0.67,1.76l-0.86,1.06C50.58,42.9,50.65,41.96,50.7,41.04z M50.41,45.06l0.9,2.2
	l-1.22,1.14C50.21,47.28,50.32,46.16,50.41,45.06z M49.98,49.49l1.11,2.42l-1.59,1.32C49.68,51.98,49.84,50.73,49.98,49.49z
	 M49.41,53.93l1.42,2.84l-1.94,1.27l-0.09-0.05c-0.02-0.01-0.04,0-0.06-0.01C48.98,56.64,49.21,55.29,49.41,53.93z M47.98,61.62
	l1.82,2.07l-2.28-0.19C47.67,62.89,47.83,62.26,47.98,61.62z M44.41,74.84l-0.19-2.8l1.37,0.78C45.23,73.48,44.84,74.15,44.41,74.84
	z M47.54,67.39l-1.04-0.6c0.16-0.47,0.33-0.95,0.48-1.45L47.54,67.39z M47.66,67.98c-0.2,0.57-0.41,1.15-0.65,1.75l-0.54-2.43
	L47.66,67.98z M46.73,70.4c-0.23,0.54-0.49,1.09-0.76,1.65L45.5,69.7L46.73,70.4z M45.13,70.12l0.44,2.18l-1.22-0.7
	C44.62,71.12,44.88,70.63,45.13,70.12z M43.98,75.14l-1.38-0.79c0.41-0.58,0.81-1.18,1.2-1.81L43.98,75.14z M42.11,75.03l0.48,2.13
	l-1.48-0.85C41.44,75.89,41.78,75.47,42.11,75.03z M50.31,82.09l2.4,1.37v0.64l-2.44-1.4C50.28,82.5,50.29,82.3,50.31,82.09z
	 M46.13,67.83l0.44,1.97l-1.01-0.58C45.77,68.77,45.95,68.3,46.13,67.83z M39.86,77.74l0.3,2.22l-1.57-0.9
	C39,78.66,39.43,78.21,39.86,77.74z M35.73,81.64l0.08,2.62l-2.03-1.14C34.2,82.82,34.89,82.32,35.73,81.64z M39.56,81.69
	c1-1.05,1.89-2.07,2.69-3.06l2.77,1.59C43.26,79.85,41.27,80.64,39.56,81.69z M47.13,81.43l2.67,1.53
	c-0.12,1.85-0.25,3.56-0.35,4.99C49.09,84.88,48.32,82.7,47.13,81.43z M49.65,91.08c0.03-0.4,0.07-0.89,0.11-1.45l2.31,3.77
	l-2.41-1.35C49.67,91.72,49.66,91.4,49.65,91.08z"/>
<path style="fill:#37AC8C;" d="M73.16,82.8c-0.07-0.04-4.88-3.1-8.87-8.58c0-0.03,0-0.06-0.01-0.09c-0.03-0.05-0.08-0.09-0.13-0.1
	c-1.4-1.95-2.69-4.2-3.63-6.73c-3.73-10.11-4.72-27.05-4.72-35.46c0-0.12-0.06-0.23-0.17-0.29c-0.1-0.06-0.23-0.06-0.33,0
	l-2.37,1.32c-0.11,0.06-0.17,0.17-0.17,0.29v61.14c0,0.12,0.06,0.23,0.17,0.29c0.05,0.03,0.11,0.05,0.17,0.05
	c0.06,0,0.11-0.01,0.16-0.04l3.7-2.08c0.11-0.06,0.17-0.17,0.17-0.29c0-6.37,1.16-10.12,3.46-11.16c3.13-1.43,7.75,2.61,9.27,3.94
	c0.11,0.09,0.26,0.11,0.38,0.04l2.91-1.64c0.1-0.06,0.17-0.17,0.17-0.28S73.26,82.86,73.16,82.8z M56.3,82.41
	c-0.01-0.2-0.03-0.41-0.04-0.62l2.21-1.26c0.01,0,0.01,0.01,0.02,0.02c0.03,0.01,0.05,0.01,0.08,0.01c0.02,0,0.04,0,0.06-0.01
	c0.01,0,0.01-0.01,0.02-0.02c0.04-0.01,0.06-0.04,0.09-0.07c0.01-0.01,0.02-0.02,0.03-0.04c0-0.01,0.01-0.01,0.02-0.02l0.03-0.07
	l4.46-2.56c0.11,0.15,0.23,0.3,0.35,0.44L56.3,82.41z M53.43,33.79l0.63,0.77l-0.63,1.41V33.79z M58.01,60.94l-2.23-0.25l1.61-2.28
	l0.09-0.05C57.64,59.23,57.82,60.09,58.01,60.94z M62.22,75.56l1.39-0.79l-0.47,2.1C62.81,76.43,62.51,75.99,62.22,75.56z
	 M60.2,76.72l1.34-0.77l-0.61,2.13L60.2,76.72z M55.42,75.21l-1.62,0.93l1.52-3C55.35,73.82,55.38,74.52,55.42,75.21z M53.43,73.62
	l1.56-0.82l-1.56,3.09V73.62z M55.27,72.15l-1.47,0.77l1.41-2.46C55.23,71.01,55.25,71.57,55.27,72.15z M53.43,72.68v-1.97
	l1.61-0.84L53.43,72.68z M53.43,76.87l1.59-0.92l-1.59,3.2V76.87z M53.43,80.6l1.79-1.03l-1.79,3V80.6z M53.48,80.06l1.98-3.99
	c0.05,0.92,0.1,1.84,0.16,2.76L53.48,80.06z M55.17,69.29l-1.32,0.69l1.29-2.33C55.15,68.17,55.16,68.72,55.17,69.29z M53.43,87.62
	l2.23-1.28l-2.23,3.69V87.62z M56.3,88.7l-2.36,1.35l2.19-3.63C56.19,87.25,56.25,88.02,56.3,88.7z M56.07,85.59l-2.13,1.22
	l1.99-3.28C55.97,84.25,56.02,84.93,56.07,85.59z M53.43,86.79v-2.22l2.07-1.18L53.43,86.79z M55.67,79.69
	c0.04,0.63,0.08,1.25,0.12,1.86l-1.87,1.07L55.67,79.69z M56.08,79.08l1.33-0.76l-1.22,2.55C56.16,80.28,56.12,79.68,56.08,79.08z
	 M57.84,78.47l0.43,1.65l-1.69,0.97L57.84,78.47z M58.15,77.9l1.33-0.76l-0.89,2.45L58.15,77.9z M59.94,77.19l0.81,1.52l-1.72,0.98
	L59.94,77.19z M61.98,76.01c0.31,0.46,0.65,0.93,1,1.41l-1.68,0.96L61.98,76.01z M64.02,74.98c0.33,0.44,0.67,0.87,1,1.27
	l-1.48,0.85L64.02,74.98z M62.15,75.09l0.18-2.6c0.39,0.63,0.79,1.23,1.2,1.81L62.15,75.09z M61.73,74.8
	c-0.43-0.69-0.83-1.37-1.18-2.02l1.37-0.78L61.73,74.8z M60.56,72.25L61,70.07c0.25,0.51,0.51,1,0.78,1.48L60.56,72.25z M60.16,72
	c-0.28-0.56-0.53-1.11-0.76-1.65l1.24-0.71L60.16,72z M58.47,67.93l1.19-0.68l-0.54,2.43C58.88,69.08,58.66,68.5,58.47,67.93z
	 M58.58,67.35l0.57-2.05c0.15,0.5,0.32,0.98,0.48,1.46L58.58,67.35z M58.91,64.47l-0.72,2.63c-0.19-0.6-0.37-1.19-0.53-1.76
	c-0.04-0.12-0.17-0.19-0.28-0.15c-0.12,0.03-0.19,0.16-0.15,0.28c0.21,0.74,0.44,1.5,0.7,2.28c-0.08,0.07-0.11,0.18-0.06,0.27
	c0.04,0.07,0.11,0.11,0.19,0.11c0.23,0.68,0.49,1.37,0.79,2.08c-0.04,0.07-0.06,0.14-0.01,0.22c0.03,0.06,0.09,0.09,0.14,0.1
	c0.31,0.73,0.67,1.49,1.07,2.26c0,0.01,0,0.01,0,0.02c0,0,0.01,0,0.01,0.01c0,0,0.01,0.01,0.01,0.01c0.44,0.84,0.94,1.71,1.51,2.6
	l-5.53,3.17c-0.26-4.31-0.47-8.78-0.48-11.98c0-0.12-0.1-0.22-0.22-0.22c0,0,0,0,0,0c-0.12,0-0.22,0.1-0.22,0.22
	c0,0.05,0,0.09,0,0.14l-1.7,3.09v-2.88l2.49-2.83l2.83-0.23C58.8,64.09,58.86,64.28,58.91,64.47z M56.34,63.64l1.82-2.07
	c0.15,0.64,0.3,1.27,0.47,1.88L56.34,63.64z M53.71,49.94l0.93-2.28l1.18,1.11L53.71,49.94z M55.7,49.34l-1.02,2.22l-1.19-0.99
	L55.7,49.34z M53.43,49.44v-2.92l0.86,0.81L53.43,49.44z M53.57,46.04l1.63-0.93l-0.73,1.78L53.57,46.04z M53.74,45.43l0.84-2.2
	l0.95,1.17L53.74,45.43z M53.43,44.99v-3.18l0.82,1.02L53.43,44.99z M53.6,41.31l1.58-0.91l-0.74,1.94L53.6,41.31z M53.71,40.73
	l0.72-1.75l0.82,0.86L53.71,40.73z M53.43,40.25v-2.31l0.66,0.7L53.43,40.25z M53.45,37.32l1.54-0.88l-0.72,1.75L53.45,37.32z
	 M53.57,36.73l0.8-1.78l0.74,0.9L53.57,36.73z M53.43,51.11l1.06,0.88l-1.06,2.3V51.11z M53.43,63.25v-2.37l1.55,0.17L53.43,63.25z
	 M55.49,61.11l2.01,0.22l-3.64,2.08L55.49,61.11z M53.8,60.47l2.68-1.53l-1.2,1.69L53.8,60.47z M53.62,60.06l1.47-2.94l1.71,1.11
	L53.62,60.06z M53.43,59.45v-3.42l1.29,0.84L53.43,59.45z M53.52,55.56l2.61-1.49l-1.21,2.41L53.52,55.56z M53.58,55.01l1.25-2.73
	l1.43,1.19L53.58,55.01z M57.14,62.04l-1.45,1.65l-1.66,0.13L57.14,62.04z M57.33,57.93l-0.09,0.05l-1.95-1.27l1.42-2.84
	c0.2,1.37,0.43,2.72,0.67,4.05C57.37,57.93,57.35,57.92,57.33,57.93z M55.03,51.86l1.11-2.42c0.14,1.25,0.3,2.5,0.48,3.74
	L55.03,51.86z M54.82,47.22l0.9-2.2c0.09,1.1,0.2,2.22,0.32,3.35L54.82,47.22z M54.76,42.75L55.43,41c0.06,0.92,0.12,1.86,0.19,2.82
	L54.76,42.75z M54.61,38.53l0.62-1.52c0.03,0.74,0.06,1.49,0.1,2.28L54.61,38.53z M55.18,35.24l-0.6-0.74l0.57-1.27
	C55.15,33.86,55.16,34.53,55.18,35.24z M54.26,34.11l-0.69-0.84l1.41-0.79L54.26,34.11z M53.43,64.32l1.84-0.15l-1.84,2.1V64.32z
	 M53.43,90.86l2.51-1.44l-2.51,4.1V90.86z M53.43,84.06v-0.64l2.4-1.37c0.01,0.21,0.03,0.42,0.04,0.62L53.43,84.06z M63.64,77.56
	l1.67-0.96c0.12,0.14,0.24,0.3,0.37,0.44L63.99,78C63.88,77.86,63.75,77.71,63.64,77.56z M65.85,77.45l-0.32,2.4
	c-0.45-0.51-0.86-1-1.26-1.49L65.85,77.45z M68.63,83.08c-0.21-0.2-0.39-0.39-0.59-0.59l1.92-1.1l-0.09,2.71
	C69.53,83.81,69.11,83.45,68.63,83.08z M68,82l0.17-2.37c0.54,0.51,1.06,0.97,1.54,1.39L68,82z M67.56,82.01
	c-0.54-0.54-1.05-1.08-1.53-1.61l1.72-0.99L67.56,82.01z M67.54,79.02l-1.57,0.9l0.3-2.23C66.7,78.16,67.13,78.61,67.54,79.02z
	 M60.57,69.17l-1.01,0.58L60,67.78C60.18,68.25,60.36,68.71,60.57,69.17z M54.05,93.36l2.31-3.78c0.04,0.56,0.08,1.05,0.11,1.44
	c-0.01,0.32-0.01,0.65-0.02,0.98L54.05,93.36z M56.68,87.9c-0.11-1.43-0.23-3.14-0.35-4.99L59,81.38
	C57.81,82.64,57.04,84.83,56.68,87.9z M61.11,80.17l2.78-1.59c0.79,0.99,1.68,2,2.68,3.05C64.85,80.59,62.87,79.79,61.11,80.17z
	 M70.32,84.2l0.08-2.62c0.84,0.68,1.53,1.19,1.95,1.48L70.32,84.2z"/>
<path style="fill:#178F70;" d="M54.08,28.95v1.4l-1.04,0.59h-0.01v-1.68h0.01c0.09,0,0.17-0.01,0.25-0.02
	c0.08,0,0.16-0.02,0.24-0.04c0.07-0.02,0.14-0.04,0.21-0.07c0.07-0.03,0.13-0.06,0.19-0.09C53.99,29.02,54.04,28.99,54.08,28.95z"/>
<path style="fill:#106950;" d="M53.03,29.26v1.68h-0.01l-1.04-0.59v-1.4c0.24,0.19,0.62,0.31,1.04,0.31H53.03z"/>
<rect x="53.03" y="30.94" style="fill:#106950;" width="0.01" height="0.01"/>
<polygon style="fill:#178F70;" points="55.51,30.39 55.51,31.03 53.05,32.46 53.05,32.47 53.03,32.47 53.03,31.81 53.04,31.81 
	53.04,31.8 53.82,31.35 54.49,30.97 55.22,30.55 55.23,30.55 "/>
<polygon style="fill:#106950;" points="53.03,31.81 53.03,32.47 53.01,32.47 53.01,32.46 50.55,31.03 50.55,30.39 50.83,30.55 
	50.84,30.55 51.57,30.97 52.24,31.35 53.02,31.8 53.02,31.81 "/>
<rect x="53.02" y="30.94" style="fill:#106950;" width="0.01" height="0.01"/>
<polygon style="fill:#178F70;" points="56.17,31.09 56.17,31.83 56.16,31.83 56.16,31.87 53.04,33.7 53.03,33.7 53.03,32.89 
	53.04,32.89 53.04,32.9 53.05,32.9 53.05,32.87 55.84,31.27 56.16,31.09 "/>
<polygon style="fill:#106950;" points="53.03,32.89 53.03,33.7 53.02,33.7 49.9,31.87 49.9,31.83 49.89,31.83 49.89,31.08 
	49.9,31.09 50.22,31.27 53.01,32.87 53.01,32.9 53.02,32.9 53.02,32.89 "/>
<rect x="53.02" y="30.94" style="fill:#106950;" width="0.01" height="0.01"/>
<polygon style="fill:#8BD3BC;" points="55.51,30.39 55.23,30.55 55.22,30.55 54.49,30.97 53.82,31.35 53.04,31.8 53.03,31.8 
	53.03,30.95 53.04,30.95 53.04,30.94 54.08,30.35 54.08,29.59 "/>
<polygon style="fill:#8BD3BC;" points="53.03,30.95 53.03,31.8 53.02,31.8 52.24,31.35 51.57,30.97 50.84,30.55 50.83,30.55 
	50.55,30.39 51.98,29.59 51.98,30.35 53.02,30.94 53.02,30.95 "/>
<rect x="53.03" y="30.94" style="fill:#106950;" width="0.01" height="0.01"/>
<polygon style="fill:#8BD3BC;" points="56.17,31.08 56.17,31.09 56.16,31.09 55.84,31.27 53.05,32.87 53.03,32.88 53.03,32.48 
	53.04,32.48 53.04,32.47 53.05,32.47 53.05,32.46 55.51,31.03 55.51,30.71 56.16,31.07 "/>
<polygon style="fill:#8BD3BC;" points="53.03,32.48 53.03,32.88 53.01,32.87 50.22,31.27 49.9,31.09 49.89,31.08 49.9,31.07 
	50.55,30.71 50.55,31.03 53.01,32.46 53.01,32.47 53.02,32.47 53.02,32.48 "/>
<path style="fill:#106950;" d="M54.32,28.56c0.01-0.01,0.01-0.02,0.01-0.04v0.02C54.33,28.55,54.33,28.55,54.32,28.56z"/>
<path style="fill:#106950;" d="M54.34,28.44v0.04c0,0.01,0,0.03-0.01,0.04C54.34,28.5,54.34,28.47,54.34,28.44z"/>
<path style="fill:#8BD3BC;" d="M54.34,28.02c0,0.08-0.02,0.18-0.06,0.25c-0.05,0.1-0.14,0.2-0.25,0.27c-0.24,0.19-0.59,0.3-0.99,0.3
	c-0.01,0-0.01,0-0.02,0c-0.3,0-0.58-0.06-0.8-0.17c-0.06-0.02-0.11-0.05-0.16-0.08c-0.14-0.09-0.24-0.2-0.3-0.32
	c-0.05-0.07-0.07-0.17-0.07-0.25v-0.03h0.01c0.02-0.43,0.61-0.77,1.32-0.77C53.75,27.22,54.34,27.58,54.34,28.02z"/>
<path style="fill:#5AC0A0;" d="M54.34,28.01v0.47c0,0.01,0,0.03-0.01,0.04v0.02c0,0.01,0,0.01-0.01,0.02v0.01
	c0,0.01,0,0.03-0.01,0.04c-0.04,0.18-0.18,0.33-0.38,0.45c-0.06,0.03-0.12,0.06-0.19,0.09c-0.07,0.03-0.14,0.05-0.21,0.07
	c-0.08,0.02-0.16,0.03-0.24,0.04c-0.08,0.01-0.16,0.02-0.25,0.02h-0.02c-0.42,0-0.8-0.12-1.04-0.31c-0.18-0.12-0.28-0.29-0.29-0.47
	v-0.49c0,0.08,0.02,0.17,0.07,0.24c0.06,0.12,0.16,0.22,0.3,0.32c0.05,0.03,0.1,0.06,0.16,0.08c0.22,0.1,0.5,0.16,0.8,0.16h0.02
	c0.4,0,0.75-0.11,0.99-0.3c0.11-0.07,0.2-0.16,0.25-0.26C54.32,28.18,54.34,28.09,54.34,28.01z"/>
<path style="fill:#106950;" d="M54.34,28.47v0.04h-0.01C54.34,28.5,54.34,28.48,54.34,28.47z"/>
<path style="fill:#106950;" d="M53,27.94C53,27.94,53,27.94,53,27.94c-0.06,0-0.11-0.05-0.11-0.11l0.04-8.95
	c0-0.06,0.05-0.11,0.11-0.11c0,0,0,0,0,0c0.06,0,0.11,0.05,0.11,0.11l-0.04,8.95C53.1,27.89,53.06,27.94,53,27.94z"/>
</svg>
