<?xml version="1.0" encoding="utf-8"?>
<!-- Generator: Adobe Illustrator 21.0.0, SVG Export Plug-In . SVG Version: 6.00 Build 0)  -->
<svg version="1.1" id="Layer_1" xmlns="http://www.w3.org/2000/svg" xmlns:xlink="http://www.w3.org/1999/xlink" x="0px" y="0px"
	 viewBox="0 0 88.64 110.97" style="enable-background:new 0 0 88.64 110.97;" xml:space="preserve">
<path style="fill:#178F70;" d="M44.85,59.4l-6.02,3.48v13.84l-0.46,0.27v12.57l-0.31,0.18v1.03l7.29,4.21l0.31-1.2l0.76-6.55
	l1.25-2.01c0,0,4.63-13.35,7.17-19.6c-0.05-0.04-0.1-0.09-0.16-0.13C51.69,62.99,48.31,61.11,44.85,59.4z"/>
<path style="fill:#106950;" d="M65.76,73.73l7.29-8.36l-7.29-4.21l6.83-9.36l-7.29-4.21l-13.24,7.64l-7.01,4.05
	c3.48,1.72,6.88,3.66,9.86,6.16c0.92-2.26,1.55-3.52,1.55-2.77c0,1.43,0,17.46,0,17.46l7.29,4.21l0.61-8.77l7.8,3.45l1.2-1.25
	l-7.29-4.21L65.76,73.73z"/>
<path style="fill:#5AC0A0;" d="M73.05,65.38l-0.46,0.27V51.8l-13.24,7.64l-13.24,7.64v13.84l-0.46,0.27v12.57l-0.31,0.18v1.03
	l9.61-5.55c0,0,0-17.47,0-18.9c0-2.8,1.97-6.21,4.39-7.61c2.43-1.4,4.39-0.27,4.39,2.54c0,1.43,0,18.9,0,18.9l9.61-5.55v-1.03
	l-0.31,0.18V65.38z"/>
<path style="fill:#106950;" d="M50.04,67.24c-0.82,0.48-1.49,1.63-1.49,2.58c0,0.95,0.67,1.34,1.49,0.86
	c0.82-0.48,1.49-1.63,1.49-2.58S50.87,66.76,50.04,67.24z"/>
<path style="fill:#106950;" d="M68.67,56.48c-0.82,0.48-1.49,1.63-1.49,2.58s0.67,1.34,1.49,0.86c0.82-0.48,1.49-1.63,1.49-2.58
	C70.16,56.39,69.49,56.01,68.67,56.48z"/>
<polygon style="fill:#106950;" points="71.65,65.96 71.65,79.78 66.02,83.03 66.02,69.22 66.51,68.93 66.51,64.12 66.97,63.86 
	66.97,61.12 70.65,58.99 70.65,61.72 71.19,61.41 71.19,66.22 "/>
<polygon style="fill:#8BD3BC;" points="38.36,76.98 45.65,81.19 46.12,80.93 38.82,76.72 "/>
<polygon style="fill:#8BD3BC;" points="37,62.93 45.42,67.78 74.27,51.13 65.86,46.27 "/>
<path style="fill:#5AC0A0;" d="M41.77,81.32l-0.25-0.14c-1.03-0.59-1.86,0.07-1.86,1.47v9.04l3.97,2.29v-9.04
	C43.63,83.54,42.8,81.91,41.77,81.32z"/>
<path style="fill:#178F70;" d="M59.98,70.58l-0.25-0.14c-1.03-0.59-1.86,0.07-1.86,1.47v9.04l3.97,2.29V74.2
	C61.84,72.79,61.01,71.17,59.98,70.58z"/>
<path style="fill:#106950;" d="M41.77,81.32l-0.25-0.14c-1.03-0.59-1.86,0.07-1.86,1.47v9.04l3.97-2.29v-4.45
	C43.63,83.54,42.8,81.91,41.77,81.32z"/>
<path style="fill:#004B36;" d="M59.98,70.58l-0.25-0.14c-1.03-0.59-1.86,0.07-1.86,1.47v9.04l3.97-2.29V74.2
	C61.84,72.79,61.01,71.17,59.98,70.58z"/>
<polygon style="fill:#8BD3BC;" points="40.08,58.7 47.03,62.72 71.06,48.84 64.11,44.83 "/>
<g>
	<polygon style="fill:#36AD8D;" points="45.42,68.36 74.27,51.7 74.27,51.13 45.42,67.78 	"/>
	<polygon style="fill:#36AD8D;" points="47.03,65.79 71.06,51.91 71.06,48.84 47.03,62.72 	"/>
	<polygon style="fill:#36AD8D;" points="47.71,61.68 68.68,49.58 68.68,46.9 47.71,59.01 	"/>
</g>
<polygon style="fill:#8BD3BC;" points="41.65,55.5 47.71,59.01 68.68,46.9 62.62,43.4 "/>
<g>
	<polygon style="fill:#106950;" points="37,63.5 45.42,68.36 45.42,67.78 37,62.93 	"/>
	<polygon style="fill:#106950;" points="40.08,61.77 47.03,65.79 47.03,62.72 40.08,58.7 	"/>
	<polygon style="fill:#106950;" points="41.65,58.18 47.71,61.68 47.71,59.01 41.65,55.5 	"/>
</g>
<polygon style="fill:#36AD8D;" points="48.1,58.23 66.77,47.45 66.77,44.24 48.1,55.02 "/>
<polygon style="fill:#8BD3BC;" points="42.7,51.9 48.1,55.02 66.77,44.24 61.37,41.12 "/>
<polygon style="fill:#106950;" points="42.7,55.11 48.1,58.23 48.1,55.02 42.7,51.9 "/>
<polygon style="fill:#106950;" points="52.79,76.91 52.79,90.73 47.15,93.98 47.15,80.17 47.52,79.95 47.52,75.13 48.06,74.81 
	48.06,72.12 51.74,69.91 51.74,72.65 52.2,72.37 52.2,77.25 "/>
</svg>
