<?xml version="1.0" encoding="utf-8"?>
<!-- Generator: Adobe Illustrator 21.0.0, SVG Export Plug-In . SVG Version: 6.00 Build 0)  -->
<svg version="1.1" id="Layer_1" xmlns="http://www.w3.org/2000/svg" xmlns:xlink="http://www.w3.org/1999/xlink" x="0px" y="0px"
	 viewBox="0 0 88.64 110.97" style="enable-background:new 0 0 88.64 110.97;" xml:space="preserve">
<g>
	<defs>
		<path id="SVGID_53_" d="M33.37,68.91v14.38c0,6.31,8.59,11.42,19.18,11.42c10.6,0,19.19-5.11,19.19-11.42V68.91H33.37z"/>
	</defs>
	<use xlink:href="#SVGID_53_"  style="overflow:visible;fill:#36AD8D;"/>
	<clipPath id="SVGID_61_">
		<use xlink:href="#SVGID_53_"  style="overflow:visible;"/>
	</clipPath>
	<g style="clip-path:url(#SVGID_61_);">
		<rect x="33.37" y="68.91" style="fill:#36AD8D;" width="38.37" height="25.8"/>
	</g>
</g>
<g>
	<defs>
		<path id="SVGID_52_" d="M34.33,69.39c0,5.99,8.16,10.85,18.22,10.85c10.07,0,18.23-4.86,18.23-10.85
			c0-5.99-8.16-10.85-18.23-10.85C42.49,58.54,34.33,63.4,34.33,69.39"/>
	</defs>
	<use xlink:href="#SVGID_52_"  style="overflow:visible;fill:#36AD8D;"/>
	<clipPath id="SVGID_62_">
		<use xlink:href="#SVGID_52_"  style="overflow:visible;"/>
	</clipPath>
	<g style="clip-path:url(#SVGID_62_);">
		<rect x="34.33" y="58.54" style="fill:#36AD8D;" width="36.45" height="21.7"/>
	</g>
</g>
<g>
	<defs>
		<path id="SVGID_51_" d="M40.75,75.33c0,1.51,0.81,2.92,2.18,4.06h19.25c1.37-1.15,2.18-2.55,2.18-4.06
			c0-3.88-5.28-7.03-11.81-7.03C46.04,68.3,40.75,71.45,40.75,75.33"/>
	</defs>
	<use xlink:href="#SVGID_51_"  style="overflow:visible;fill:#057052;"/>
	<clipPath id="SVGID_63_">
		<use xlink:href="#SVGID_51_"  style="overflow:visible;"/>
	</clipPath>
	<g style="clip-path:url(#SVGID_63_);">
		
			<rect x="42.02" y="60.83" transform="matrix(0.4803 -0.8771 0.8771 0.4803 -37.4623 84.4758)" style="fill:#057052;" width="21.07" height="26.03"/>
	</g>
</g>
<g>
	<path style="fill:#057052;" d="M52.55,81.42c-8.36,0-15.15-4.06-15.15-9.06c0-5,6.8-9.06,15.15-9.06c8.36,0,15.16,4.07,15.16,9.06
		C67.71,77.36,60.91,81.42,52.55,81.42z M52.55,63.49c-8.25,0-14.96,3.98-14.96,8.88c0,4.89,6.71,8.87,14.96,8.87
		c8.25,0,14.97-3.98,14.97-8.87C67.52,67.47,60.81,63.49,52.55,63.49z"/>
</g>
<g>
	<defs>
		<path id="SVGID_50_" d="M34.33,69.39c0-5.99,8.16-10.85,18.22-10.85c10.07,0,18.23,4.86,18.23,10.85
			c0,5.99-8.16,10.85-18.23,10.85C42.49,80.24,34.33,75.38,34.33,69.39 M33.37,69.39c0,6.3,8.59,11.42,19.18,11.42
			c10.6,0,19.19-5.12,19.19-11.42c0-6.31-8.59-11.43-19.19-11.43C41.96,57.97,33.37,63.08,33.37,69.39"/>
	</defs>
	<use xlink:href="#SVGID_50_"  style="overflow:visible;fill:#8BD3BC;"/>
	<clipPath id="SVGID_64_">
		<use xlink:href="#SVGID_50_"  style="overflow:visible;"/>
	</clipPath>
	<g style="clip-path:url(#SVGID_64_);">
		<rect x="33.37" y="57.97" style="fill:#8BD3BC;" width="38.37" height="22.85"/>
	</g>
</g>
<g>
	<defs>
		<path id="SVGID_49_" d="M46.69,49.95c-6.91,1.44-11.88,5.36-11.88,9.97c0,1.28-0.45,3.07,1.58,4.45
			c3.04-3.47,9.13-5.84,16.16-5.84c0.23,0,0.45,0,0.67,0.01c-0.23-0.26-0.5-0.58-0.46-0.58l-5.78-8.08
			C46.98,49.89,46.88,49.91,46.69,49.95"/>
	</defs>
	<use xlink:href="#SVGID_49_"  style="overflow:visible;fill:#014B35;"/>
	<clipPath id="SVGID_65_">
		<use xlink:href="#SVGID_49_"  style="overflow:visible;"/>
	</clipPath>
	<g style="clip-path:url(#SVGID_65_);">
		<rect x="34.37" y="49.89" style="fill:#014B35;" width="18.86" height="14.49"/>
	</g>
</g>
<g>
	<defs>
		<path id="SVGID_48_" d="M33.37,69.39c0,6.31,8.59,11.43,19.18,11.43c3.22,0,6.26-0.47,8.92-1.31l-6.32-9.06
			c-4.06,0.5-11.38,0.75-16.21-2.9c-4.57-3.45-5.57-7.62-5.57-7.62V69.39z"/>
	</defs>
	<use xlink:href="#SVGID_48_"  style="overflow:visible;fill:#36AD8D;"/>
	<clipPath id="SVGID_66_">
		<use xlink:href="#SVGID_48_"  style="overflow:visible;"/>
	</clipPath>
	<g style="clip-path:url(#SVGID_66_);">
		<rect x="33.37" y="59.93" style="fill:#36AD8D;" width="28.1" height="20.89"/>
	</g>
</g>
<g>
	<defs>
		<path id="SVGID_46_" d="M33.37,59.93c0,6.3,8.59,11.42,19.18,11.42c1.05,0,2.09-0.05,3.09-0.15l0.21-0.89V70.3
			c-1.07,0.12-2.18,0.19-3.3,0.19c-9.79,0-17.74-4.73-17.74-10.56c0-4.68,5.1-8.64,12.17-10.04l-0.45-0.81
			C38.89,50.58,33.37,54.87,33.37,59.93"/>
	</defs>
	<use xlink:href="#SVGID_46_"  style="overflow:visible;fill:#8BD3BC;"/>
	<clipPath id="SVGID_67_">
		<use xlink:href="#SVGID_46_"  style="overflow:visible;"/>
	</clipPath>
	<g style="clip-path:url(#SVGID_67_);">
		<rect x="33.37" y="49.08" style="fill:#8BD3BC;" width="22.49" height="22.27"/>
	</g>
</g>
<g>
	<path style="fill:#014B35;" d="M34.53,73.62v-3.6c0-0.37,0.09-0.62,0.23-0.62c0.04,0,0.21,0.02,0.48,0.33c0.55,0.63,1,1.85,1,2.7
		v3.15L34.53,73.62z"/>
</g>
<g>
	<path style="fill:#014B35;" d="M38.17,77.12v-3.56c0-0.52,0.21-0.85,0.55-0.85c0.13,0,0.28,0.05,0.44,0.14
		c0.65,0.38,1.18,1.38,1.18,2.21v3.33L38.17,77.12z"/>
</g>
<g>
	<path style="fill:#014B35;" d="M42.71,79.35v-3.52c0-0.63,0.4-1.05,0.99-1.05c0.12,0,0.25,0.02,0.37,0.05
		c0.81,0.22,1.47,1.07,1.47,1.88v3.42L42.71,79.35z"/>
</g>
<g>
	<path style="fill:#014B35;" d="M48.23,80.87v-3.5c0-0.74,0.6-1.3,1.39-1.3c0.04,0,0.09,0,0.14,0.01c0.86,0.07,1.56,0.78,1.56,1.58
		v3.46L48.23,80.87z"/>
</g>
<g>
	<path style="fill:#014B35;" d="M48.23,87.58v-3.49c0-0.74,0.6-1.3,1.39-1.3c0.04,0,0.09,0,0.14,0.01c0.86,0.07,1.56,0.78,1.56,1.58
		v3.46L48.23,87.58z"/>
</g>
<g>
	<path style="fill:#014B35;" d="M48.23,94.29V90.8c0-0.74,0.6-1.3,1.39-1.3c0.04,0,0.09,0,0.14,0.01c0.86,0.07,1.56,0.78,1.56,1.58
		v3.46L48.23,94.29z"/>
</g>
<g>
	<path style="fill:#014B35;" d="M42.74,86.25v-3.53c0-0.63,0.4-1.05,0.99-1.05c0.12,0,0.25,0.02,0.38,0.05
		c0.81,0.22,1.47,1.07,1.47,1.88v3.42L42.74,86.25z"/>
</g>
<g>
	<path style="fill:#014B35;" d="M42.74,92.87v-3.53c0-0.63,0.4-1.05,0.99-1.05c0.12,0,0.25,0.02,0.38,0.05
		c0.81,0.22,1.47,1.07,1.47,1.88v3.42L42.74,92.87z"/>
</g>
<g>
	<path style="fill:#014B35;" d="M38.2,83.93v-3.56c0-0.52,0.21-0.85,0.55-0.85c0.13,0,0.28,0.05,0.44,0.14
		c0.65,0.38,1.19,1.38,1.19,2.21v3.33L38.2,83.93z"/>
</g>
<g>
	<path style="fill:#014B35;" d="M38.2,90.74v-3.56c0-0.52,0.21-0.85,0.55-0.85c0.13,0,0.28,0.05,0.44,0.14
		c0.65,0.38,1.19,1.38,1.19,2.21v3.33L38.2,90.74z"/>
</g>
<g>
	<path style="fill:#014B35;" d="M34.56,80.31v-3.6c0-0.37,0.09-0.63,0.23-0.63c0.04,0,0.21,0.02,0.47,0.33c0.55,0.63,1,1.85,1,2.7
		v3.16L34.56,80.31z"/>
</g>
<g>
	<path style="fill:#014B35;" d="M34.56,87.02v-3.6c0-0.37,0.09-0.63,0.23-0.63c0.04,0,0.21,0.02,0.47,0.33c0.55,0.63,1,1.85,1,2.7
		v3.16L34.56,87.02z"/>
</g>
<g>
	<path style="fill:#057052;" d="M53.94,77.65c0-0.8,0.7-1.51,1.56-1.58c0.05,0,0.09-0.01,0.14-0.01c0.79,0,1.39,0.56,1.39,1.3v3.49
		l-3.08,0.26V77.65z"/>
</g>
<g>
	<path style="fill:#057052;" d="M53.94,84.36c0-0.8,0.7-1.51,1.56-1.58c0.05,0,0.09-0.01,0.14-0.01c0.79,0,1.39,0.56,1.39,1.3v3.49
		l-3.08,0.26V84.36z"/>
</g>
<g>
	<path style="fill:#057052;" d="M53.94,91.09c0-0.8,0.7-1.51,1.56-1.58c0.05,0,0.09-0.01,0.14-0.01c0.79,0,1.39,0.56,1.39,1.3v3.49
		l-3.08,0.26V91.09z"/>
</g>
<g>
	<path style="fill:#057052;" d="M59.67,83.59c0-0.82,0.66-1.66,1.47-1.88c0.13-0.04,0.25-0.05,0.37-0.05c0.59,0,0.99,0.42,0.99,1.05
		v3.52l-2.83,0.78V83.59z"/>
</g>
<g>
	<path style="fill:#057052;" d="M59.67,90.24c0-0.81,0.66-1.66,1.47-1.88c0.13-0.03,0.25-0.05,0.37-0.05c0.59,0,0.99,0.42,0.99,1.05
		v3.53l-2.83,0.78V90.24z"/>
</g>
<g>
	<path style="fill:#057052;" d="M64.87,81.86c0-0.83,0.53-1.83,1.19-2.21c0.16-0.09,0.31-0.14,0.44-0.14c0.34,0,0.55,0.32,0.55,0.85
		v3.56l-2.18,1.28V81.86z"/>
</g>
<g>
	<path style="fill:#057052;" d="M64.87,88.69c0-0.83,0.53-1.83,1.19-2.21c0.16-0.09,0.31-0.14,0.44-0.14c0.34,0,0.55,0.32,0.55,0.85
		v3.56l-2.18,1.28V88.69z"/>
</g>
<g>
	<path style="fill:#057052;" d="M68.99,79.11c0-0.86,0.45-2.07,1-2.7c0.27-0.31,0.43-0.33,0.47-0.33c0.14,0,0.23,0.25,0.23,0.63v3.6
		l-1.7,1.96V79.11z"/>
</g>
<g>
	<path style="fill:#057052;" d="M68.99,85.82c0-0.86,0.45-2.07,1-2.7c0.27-0.31,0.43-0.33,0.47-0.33c0.14,0,0.23,0.25,0.23,0.62v3.6
		l-1.7,1.96V85.82z"/>
</g>
<g>
	<path style="fill:#057052;" d="M52.55,94.2c-10.59,0-19.18-5.11-19.18-11.42v0.52c0,6.31,8.59,11.42,19.18,11.42
		c10.6,0,19.19-5.11,19.19-11.42v-0.52C71.74,89.08,63.15,94.2,52.55,94.2"/>
</g>
<g>
	<path style="fill:#057052;" d="M52.55,87.63c-10.59,0-19.18-5.11-19.18-11.42v0.52c0,6.31,8.59,11.42,19.18,11.42
		c10.6,0,19.19-5.11,19.19-11.42V76.2C71.74,82.51,63.15,87.63,52.55,87.63"/>
</g>
<g>
	<path style="fill:#057052;" d="M52.55,80.81c-10.59,0-19.18-5.12-19.18-11.42v0.52c0,6.31,8.59,11.42,19.18,11.42
		c10.6,0,19.19-5.11,19.19-11.42v-0.52C71.74,75.7,63.15,80.81,52.55,80.81"/>
</g>
<g>
	<polygon style="fill:#8BD3BC;" points="55.86,70.3 61.47,78.85 61.47,79.51 55.65,71.19 	"/>
</g>
<g style="opacity:0.3;">
	<polygon style="fill:#FFFFFF;" points="55.86,70.3 61.47,78.85 61.47,79.51 55.65,71.19 	"/>
</g>
</svg>
