<?xml version="1.0" encoding="utf-8"?>
<!-- Generator: Adobe Illustrator 21.0.0, SVG Export Plug-In . SVG Version: 6.00 Build 0)  -->
<svg version="1.1" id="Layer_1" xmlns="http://www.w3.org/2000/svg" xmlns:xlink="http://www.w3.org/1999/xlink" x="0px" y="0px"
	 viewBox="0 0 88.64 110.97" style="enable-background:new 0 0 88.64 110.97;" xml:space="preserve">
<g>
	<g>
		<defs>
			<polygon id="SVGID_144_" points="41.6,50.35 50.85,55.75 60.16,50.44 50.91,45.04 			"/>
		</defs>
		<clipPath id="SVGID_61_">
			<use xlink:href="#SVGID_144_"  style="overflow:visible;"/>
		</clipPath>
		<g style="clip-path:url(#SVGID_61_);">
			<g>
				<defs>
					<rect id="SVGID_146_" x="41.6" y="45.04" width="18.56" height="10.71"/>
				</defs>
				<clipPath id="SVGID_62_">
					<use xlink:href="#SVGID_146_"  style="overflow:visible;"/>
				</clipPath>
				<rect x="41.6" y="45.04" style="clip-path:url(#SVGID_62_);fill:#BEDA81;" width="18.56" height="0.23"/>
				<rect x="41.6" y="45.26" style="clip-path:url(#SVGID_62_);fill:#BEDA81;" width="18.56" height="0.17"/>
				<rect x="41.6" y="45.43" style="clip-path:url(#SVGID_62_);fill:#BFDA82;" width="18.56" height="0.17"/>
				<rect x="41.6" y="45.6" style="clip-path:url(#SVGID_62_);fill:#BFDB83;" width="18.56" height="0.17"/>
				<rect x="41.6" y="45.78" style="clip-path:url(#SVGID_62_);fill:#C0DB84;" width="18.56" height="0.17"/>
				<rect x="41.6" y="45.95" style="clip-path:url(#SVGID_62_);fill:#C0DB85;" width="18.56" height="0.17"/>
				<rect x="41.6" y="46.12" style="clip-path:url(#SVGID_62_);fill:#C1DB86;" width="18.56" height="0.17"/>
				<rect x="41.6" y="46.29" style="clip-path:url(#SVGID_62_);fill:#C1DC87;" width="18.56" height="0.17"/>
				<rect x="41.6" y="46.46" style="clip-path:url(#SVGID_62_);fill:#C2DC88;" width="18.56" height="0.17"/>
				<rect x="41.6" y="46.63" style="clip-path:url(#SVGID_62_);fill:#C2DC89;" width="18.56" height="0.17"/>
				<rect x="41.6" y="46.8" style="clip-path:url(#SVGID_62_);fill:#C3DD8A;" width="18.56" height="0.17"/>
				<rect x="41.6" y="46.97" style="clip-path:url(#SVGID_62_);fill:#C3DD8B;" width="18.56" height="0.17"/>
				<rect x="41.6" y="47.15" style="clip-path:url(#SVGID_62_);fill:#C4DD8C;" width="18.56" height="0.17"/>
				<rect x="41.6" y="47.32" style="clip-path:url(#SVGID_62_);fill:#C5DD8D;" width="18.56" height="0.17"/>
				<rect x="41.6" y="47.49" style="clip-path:url(#SVGID_62_);fill:#C5DE8E;" width="18.56" height="0.17"/>
				<rect x="41.6" y="47.66" style="clip-path:url(#SVGID_62_);fill:#C6DE8F;" width="18.56" height="0.17"/>
				<rect x="41.6" y="47.83" style="clip-path:url(#SVGID_62_);fill:#C6DE90;" width="18.56" height="0.17"/>
				<rect x="41.6" y="48" style="clip-path:url(#SVGID_62_);fill:#C7DE91;" width="18.56" height="0.17"/>
				<rect x="41.6" y="48.17" style="clip-path:url(#SVGID_62_);fill:#C7DF92;" width="18.56" height="0.17"/>
				<rect x="41.6" y="48.34" style="clip-path:url(#SVGID_62_);fill:#C8DF93;" width="18.56" height="0.17"/>
				<rect x="41.6" y="48.51" style="clip-path:url(#SVGID_62_);fill:#C8DF94;" width="18.56" height="0.17"/>
				<rect x="41.6" y="48.69" style="clip-path:url(#SVGID_62_);fill:#C9E095;" width="18.56" height="0.17"/>
				<rect x="41.6" y="48.86" style="clip-path:url(#SVGID_62_);fill:#C9E096;" width="18.56" height="0.17"/>
				<rect x="41.6" y="49.03" style="clip-path:url(#SVGID_62_);fill:#CAE097;" width="18.56" height="0.17"/>
				<rect x="41.6" y="49.2" style="clip-path:url(#SVGID_62_);fill:#CBE098;" width="18.56" height="0.17"/>
				<rect x="41.6" y="49.37" style="clip-path:url(#SVGID_62_);fill:#CBE199;" width="18.56" height="0.17"/>
				<rect x="41.6" y="49.54" style="clip-path:url(#SVGID_62_);fill:#CCE19A;" width="18.56" height="0.17"/>
				<rect x="41.6" y="49.71" style="clip-path:url(#SVGID_62_);fill:#CCE19B;" width="18.56" height="0.17"/>
				<rect x="41.6" y="49.88" style="clip-path:url(#SVGID_62_);fill:#CDE29C;" width="18.56" height="0.17"/>
				<rect x="41.6" y="50.06" style="clip-path:url(#SVGID_62_);fill:#CDE29D;" width="18.56" height="0.17"/>
				<rect x="41.6" y="50.23" style="clip-path:url(#SVGID_62_);fill:#CEE29F;" width="18.56" height="0.17"/>
				<rect x="41.6" y="50.4" style="clip-path:url(#SVGID_62_);fill:#CEE2A0;" width="18.56" height="0.17"/>
				<rect x="41.6" y="50.57" style="clip-path:url(#SVGID_62_);fill:#CFE3A1;" width="18.56" height="0.17"/>
				<rect x="41.6" y="50.74" style="clip-path:url(#SVGID_62_);fill:#CFE3A2;" width="18.56" height="0.17"/>
				<rect x="41.6" y="50.91" style="clip-path:url(#SVGID_62_);fill:#D0E3A3;" width="18.56" height="0.17"/>
				<rect x="41.6" y="51.08" style="clip-path:url(#SVGID_62_);fill:#D0E4A4;" width="18.56" height="0.17"/>
				<rect x="41.6" y="51.25" style="clip-path:url(#SVGID_62_);fill:#D1E4A5;" width="18.56" height="0.17"/>
				<rect x="41.6" y="51.43" style="clip-path:url(#SVGID_62_);fill:#D2E4A6;" width="18.56" height="0.17"/>
				<rect x="41.6" y="51.6" style="clip-path:url(#SVGID_62_);fill:#D2E4A7;" width="18.56" height="0.17"/>
				<rect x="41.6" y="51.77" style="clip-path:url(#SVGID_62_);fill:#D3E5A8;" width="18.56" height="0.17"/>
				<rect x="41.6" y="51.94" style="clip-path:url(#SVGID_62_);fill:#D3E5A9;" width="18.56" height="0.17"/>
				<rect x="41.6" y="52.11" style="clip-path:url(#SVGID_62_);fill:#D4E5AA;" width="18.56" height="0.17"/>
				<rect x="41.6" y="52.28" style="clip-path:url(#SVGID_62_);fill:#D4E6AB;" width="18.56" height="0.17"/>
				<rect x="41.6" y="52.45" style="clip-path:url(#SVGID_62_);fill:#D5E6AC;" width="18.56" height="0.17"/>
				<rect x="41.6" y="52.62" style="clip-path:url(#SVGID_62_);fill:#D5E6AD;" width="18.56" height="0.17"/>
				<rect x="41.6" y="52.79" style="clip-path:url(#SVGID_62_);fill:#D6E6AE;" width="18.56" height="0.17"/>
				<rect x="41.6" y="52.97" style="clip-path:url(#SVGID_62_);fill:#D6E7AF;" width="18.56" height="0.17"/>
				<rect x="41.6" y="53.14" style="clip-path:url(#SVGID_62_);fill:#D7E7B0;" width="18.56" height="0.17"/>
				<rect x="41.6" y="53.31" style="clip-path:url(#SVGID_62_);fill:#D8E7B1;" width="18.56" height="0.17"/>
				<rect x="41.6" y="53.48" style="clip-path:url(#SVGID_62_);fill:#D8E7B2;" width="18.56" height="0.17"/>
				<rect x="41.6" y="53.65" style="clip-path:url(#SVGID_62_);fill:#D9E8B3;" width="18.56" height="0.17"/>
				<rect x="41.6" y="53.82" style="clip-path:url(#SVGID_62_);fill:#D9E8B4;" width="18.56" height="0.17"/>
				<rect x="41.6" y="53.99" style="clip-path:url(#SVGID_62_);fill:#DAE8B5;" width="18.56" height="0.17"/>
				<rect x="41.6" y="54.16" style="clip-path:url(#SVGID_62_);fill:#DAE9B6;" width="18.56" height="0.17"/>
				<rect x="41.6" y="54.34" style="clip-path:url(#SVGID_62_);fill:#DBE9B7;" width="18.56" height="0.17"/>
				<rect x="41.6" y="54.51" style="clip-path:url(#SVGID_62_);fill:#DBE9B8;" width="18.56" height="0.17"/>
				<rect x="41.6" y="54.68" style="clip-path:url(#SVGID_62_);fill:#DCE9B9;" width="18.56" height="0.17"/>
				<rect x="41.6" y="54.85" style="clip-path:url(#SVGID_62_);fill:#DCEABA;" width="18.56" height="0.17"/>
				<rect x="41.6" y="55.02" style="clip-path:url(#SVGID_62_);fill:#DDEABB;" width="18.56" height="0.17"/>
				<rect x="41.6" y="55.19" style="clip-path:url(#SVGID_62_);fill:#DDEABB;" width="18.56" height="0.56"/>
			</g>
		</g>
	</g>
	<g>
		<defs>
			<polygon id="SVGID_148_" points="41.6,85.94 50.85,91.34 50.85,55.75 41.6,50.35 			"/>
		</defs>
		<use xlink:href="#SVGID_148_"  style="overflow:visible;fill:#15765C;"/>
		<clipPath id="SVGID_63_">
			<use xlink:href="#SVGID_148_"  style="overflow:visible;"/>
		</clipPath>
		<g style="clip-path:url(#SVGID_63_);">
			
				<rect x="25.71" y="66.13" transform="matrix(4.499293e-03 -1 1 4.499293e-03 -24.8267 116.7548)" style="fill:#15765C;" width="41.04" height="9.44"/>
		</g>
	</g>
	<g>
		<defs>
			<polygon id="SVGID_150_" points="50.85,55.75 50.85,91.34 50.86,91.34 60.16,86.03 60.16,50.44 			"/>
		</defs>
		<use xlink:href="#SVGID_150_"  style="overflow:visible;fill:#37AC8C;"/>
		<clipPath id="SVGID_64_">
			<use xlink:href="#SVGID_150_"  style="overflow:visible;"/>
		</clipPath>
		<g style="clip-path:url(#SVGID_64_);">
			
				<rect x="35.03" y="66.15" transform="matrix(4.495936e-03 -1 1 4.495936e-03 -15.632 126.0775)" style="fill:#37AC8C;" width="40.95" height="9.49"/>
		</g>
	</g>
	<g>
		<defs>
			<polygon id="SVGID_152_" points="41.49,55.49 50.75,60.89 50.75,58.91 41.49,53.51 			"/>
		</defs>
		<use xlink:href="#SVGID_152_"  style="overflow:visible;fill:#004B36;"/>
		<clipPath id="SVGID_65_">
			<use xlink:href="#SVGID_152_"  style="overflow:visible;"/>
		</clipPath>
		<g style="clip-path:url(#SVGID_65_);">
			
				<rect x="42.41" y="52.56" transform="matrix(4.502798e-03 -1 1 4.502798e-03 -11.2877 103.062)" style="fill:#004B36;" width="7.42" height="9.29"/>
		</g>
	</g>
	<g>
		<defs>
			<polygon id="SVGID_154_" points="50.75,58.91 50.75,60.89 60.05,55.57 60.05,53.6 			"/>
		</defs>
		<use xlink:href="#SVGID_154_"  style="overflow:visible;fill:#106950;"/>
		<clipPath id="SVGID_66_">
			<use xlink:href="#SVGID_154_"  style="overflow:visible;"/>
		</clipPath>
		<g style="clip-path:url(#SVGID_66_);">
			
				<rect x="51.73" y="52.57" transform="matrix(4.498612e-03 -1 1 4.498612e-03 -2.0921 112.3854)" style="fill:#106950;" width="7.33" height="9.34"/>
		</g>
	</g>
	<g>
		<defs>
			<polygon id="SVGID_156_" points="41.49,67.9 50.75,73.3 50.75,71.32 41.49,65.92 			"/>
		</defs>
		<use xlink:href="#SVGID_156_"  style="overflow:visible;fill:#004B36;"/>
		<clipPath id="SVGID_67_">
			<use xlink:href="#SVGID_156_"  style="overflow:visible;"/>
		</clipPath>
		<g style="clip-path:url(#SVGID_67_);">
			
				<rect x="42.41" y="64.97" transform="matrix(4.502754e-03 -1 1 4.502754e-03 -23.6969 115.4154)" style="fill:#004B36;" width="7.42" height="9.29"/>
		</g>
	</g>
	<g>
		<defs>
			<polygon id="SVGID_158_" points="50.75,71.32 50.75,73.3 60.05,67.98 60.05,66.01 			"/>
		</defs>
		<use xlink:href="#SVGID_158_"  style="overflow:visible;fill:#106950;"/>
		<clipPath id="SVGID_68_">
			<use xlink:href="#SVGID_158_"  style="overflow:visible;"/>
		</clipPath>
		<g style="clip-path:url(#SVGID_68_);">
			
				<rect x="51.73" y="64.98" transform="matrix(4.498612e-03 -1 1 4.498612e-03 -14.5006 124.7382)" style="fill:#106950;" width="7.33" height="9.34"/>
		</g>
	</g>
	<g>
		<defs>
			<polygon id="SVGID_160_" points="41.49,80.31 50.75,85.71 50.75,83.73 41.49,78.33 			"/>
		</defs>
		<use xlink:href="#SVGID_160_"  style="overflow:visible;fill:#004B36;"/>
		<clipPath id="SVGID_69_">
			<use xlink:href="#SVGID_160_"  style="overflow:visible;"/>
		</clipPath>
		<g style="clip-path:url(#SVGID_69_);">
			
				<rect x="42.41" y="77.38" transform="matrix(4.492837e-03 -1 1 4.492837e-03 -36.1072 127.7713)" style="fill:#004B36;" width="7.42" height="9.29"/>
		</g>
	</g>
	<g>
		<defs>
			<polygon id="SVGID_162_" points="50.75,83.73 50.75,85.71 60.05,80.39 60.05,78.41 			"/>
		</defs>
		<use xlink:href="#SVGID_162_"  style="overflow:visible;fill:#106950;"/>
		<clipPath id="SVGID_70_">
			<use xlink:href="#SVGID_162_"  style="overflow:visible;"/>
		</clipPath>
		<g style="clip-path:url(#SVGID_70_);">
			
				<rect x="51.73" y="77.39" transform="matrix(4.498656e-03 -1 1 4.498656e-03 -26.9106 137.0924)" style="fill:#106950;" width="7.34" height="9.34"/>
		</g>
	</g>
	<g>
		<rect x="41.49" y="51.17" style="fill:#8BD3BC;" width="0.22" height="34.77"/>
	</g>
	<g>
		<rect x="43.34" y="52.25" style="fill:#8BD3BC;" width="0.22" height="34.77"/>
	</g>
	<g>
		<rect x="45.19" y="53.33" style="fill:#8BD3BC;" width="0.22" height="34.77"/>
	</g>
	<g>
		<rect x="47.04" y="54.41" style="fill:#8BD3BC;" width="0.22" height="34.77"/>
	</g>
	<g>
		<rect x="48.89" y="55.49" style="fill:#8BD3BC;" width="0.22" height="34.77"/>
	</g>
	<g>
		<rect x="50.74" y="56.57" style="fill:#8BD3BC;" width="0.22" height="34.77"/>
	</g>
	<g>
		<rect x="60.05" y="51.26" style="fill:#004B36;" width="0.22" height="34.77"/>
	</g>
	<g>
		<rect x="58.2" y="52.34" style="fill:#004B36;" width="0.22" height="34.77"/>
	</g>
	<g>
		<rect x="56.35" y="53.42" style="fill:#004B36;" width="0.22" height="34.77"/>
	</g>
	<g>
		<rect x="54.5" y="54.5" style="fill:#004B36;" width="0.22" height="34.77"/>
	</g>
	<g>
		<rect x="52.64" y="55.58" style="fill:#004B36;" width="0.22" height="34.77"/>
	</g>
	<g>
		<rect x="50.79" y="56.66" style="fill:#004B36;" width="0.22" height="34.77"/>
	</g>
	<g>
		<defs>
			<polygon id="SVGID_164_" points="41.08,39.38 50.82,45.14 60.68,39.58 50.94,33.82 			"/>
		</defs>
		<clipPath id="SVGID_71_">
			<use xlink:href="#SVGID_164_"  style="overflow:visible;"/>
		</clipPath>
		<g style="clip-path:url(#SVGID_71_);">
			<g>
				<defs>
					
						<rect id="SVGID_166_" x="45.17" y="29.65" transform="matrix(5.701328e-03 -1 1 5.701328e-03 11.1086 90.1343)" width="11.43" height="19.66"/>
				</defs>
				<clipPath id="SVGID_72_">
					<use xlink:href="#SVGID_166_"  style="overflow:visible;"/>
				</clipPath>
				<polygon style="clip-path:url(#SVGID_72_);fill:#BEDA81;" points="60.74,34.12 41.02,34.01 41.02,33.71 60.74,33.71 				"/>
				<polygon style="clip-path:url(#SVGID_72_);fill:#BEDA81;" points="60.74,34.3 41.02,34.19 41.02,34.01 60.74,34.12 				"/>
				<polygon style="clip-path:url(#SVGID_72_);fill:#BFDA82;" points="60.74,34.48 41.02,34.37 41.02,34.19 60.74,34.3 				"/>
				<polygon style="clip-path:url(#SVGID_72_);fill:#BFDB83;" points="60.74,34.66 41.02,34.55 41.02,34.37 60.74,34.48 				"/>
				<polygon style="clip-path:url(#SVGID_72_);fill:#C0DB84;" points="60.74,34.84 41.02,34.73 41.02,34.55 60.74,34.66 				"/>
				<polygon style="clip-path:url(#SVGID_72_);fill:#C0DB85;" points="60.74,35.02 41.02,34.91 41.02,34.73 60.74,34.84 				"/>
				<polygon style="clip-path:url(#SVGID_72_);fill:#C1DB86;" points="60.74,35.2 41.02,35.09 41.02,34.91 60.74,35.02 				"/>
				<polygon style="clip-path:url(#SVGID_72_);fill:#C1DC87;" points="60.74,35.39 41.02,35.27 41.02,35.09 60.74,35.2 				"/>
				<polygon style="clip-path:url(#SVGID_72_);fill:#C2DC88;" points="60.74,35.57 41.02,35.45 41.02,35.27 60.74,35.39 				"/>
				<polygon style="clip-path:url(#SVGID_72_);fill:#C2DC89;" points="60.74,35.75 41.02,35.63 41.02,35.45 60.74,35.57 				"/>
				<polygon style="clip-path:url(#SVGID_72_);fill:#C3DD8A;" points="60.74,35.93 41.02,35.82 41.02,35.63 60.74,35.75 				"/>
				<polygon style="clip-path:url(#SVGID_72_);fill:#C3DD8B;" points="60.74,36.11 41.02,36 41.02,35.82 60.74,35.93 				"/>
				<polygon style="clip-path:url(#SVGID_72_);fill:#C4DD8C;" points="60.74,36.29 41.02,36.18 41.02,36 60.74,36.11 				"/>
				<polygon style="clip-path:url(#SVGID_72_);fill:#C5DD8D;" points="60.74,36.47 41.02,36.36 41.02,36.18 60.74,36.29 				"/>
				<polygon style="clip-path:url(#SVGID_72_);fill:#C5DE8E;" points="60.74,36.65 41.02,36.54 41.02,36.36 60.74,36.47 				"/>
				<polygon style="clip-path:url(#SVGID_72_);fill:#C6DE8F;" points="60.74,36.83 41.02,36.72 41.02,36.54 60.74,36.65 				"/>
				<polygon style="clip-path:url(#SVGID_72_);fill:#C6DE90;" points="60.74,37.01 41.02,36.9 41.02,36.72 60.74,36.83 				"/>
				<polygon style="clip-path:url(#SVGID_72_);fill:#C7DE91;" points="60.74,37.19 41.02,37.08 41.02,36.9 60.74,37.01 				"/>
				<polygon style="clip-path:url(#SVGID_72_);fill:#C7DF92;" points="60.74,37.37 41.02,37.26 41.02,37.08 60.74,37.19 				"/>
				<polygon style="clip-path:url(#SVGID_72_);fill:#C8DF93;" points="60.74,37.55 41.02,37.44 41.02,37.26 60.74,37.37 				"/>
				<polygon style="clip-path:url(#SVGID_72_);fill:#C8DF94;" points="60.74,37.74 41.02,37.62 41.02,37.44 60.74,37.55 				"/>
				<polygon style="clip-path:url(#SVGID_72_);fill:#C9E095;" points="60.74,37.92 41.02,37.8 41.02,37.62 60.74,37.74 				"/>
				<polygon style="clip-path:url(#SVGID_72_);fill:#C9E096;" points="60.74,38.1 41.02,37.98 41.02,37.8 60.74,37.92 				"/>
				<polygon style="clip-path:url(#SVGID_72_);fill:#CAE097;" points="60.74,38.28 41.02,38.17 41.02,37.98 60.74,38.1 				"/>
				<polygon style="clip-path:url(#SVGID_72_);fill:#CBE098;" points="60.74,38.46 41.02,38.35 41.02,38.17 60.74,38.28 				"/>
				<polygon style="clip-path:url(#SVGID_72_);fill:#CBE199;" points="60.74,38.64 41.02,38.53 41.02,38.35 60.74,38.46 				"/>
				<polygon style="clip-path:url(#SVGID_72_);fill:#CCE19A;" points="60.74,38.82 41.02,38.71 41.02,38.53 60.74,38.64 				"/>
				<polygon style="clip-path:url(#SVGID_72_);fill:#CCE19B;" points="60.74,39 41.02,38.89 41.02,38.71 60.74,38.82 				"/>
				<polygon style="clip-path:url(#SVGID_72_);fill:#CDE29C;" points="60.74,39.18 41.02,39.07 41.02,38.89 60.74,39 				"/>
				<polygon style="clip-path:url(#SVGID_72_);fill:#CDE29D;" points="60.74,39.36 41.02,39.25 41.02,39.07 60.74,39.18 				"/>
				<polygon style="clip-path:url(#SVGID_72_);fill:#CEE29F;" points="60.74,39.54 41.02,39.43 41.02,39.25 60.74,39.36 				"/>
				<polygon style="clip-path:url(#SVGID_72_);fill:#CEE2A0;" points="60.74,39.72 41.02,39.61 41.02,39.43 60.74,39.54 				"/>
				<polygon style="clip-path:url(#SVGID_72_);fill:#CFE3A1;" points="60.74,39.9 41.02,39.79 41.02,39.61 60.74,39.72 				"/>
				<polygon style="clip-path:url(#SVGID_72_);fill:#CFE3A2;" points="60.74,40.09 41.02,39.97 41.02,39.79 60.74,39.9 				"/>
				<polygon style="clip-path:url(#SVGID_72_);fill:#D0E3A3;" points="60.74,40.27 41.02,40.15 41.02,39.97 60.74,40.09 				"/>
				<polygon style="clip-path:url(#SVGID_72_);fill:#D0E4A4;" points="60.74,40.45 41.02,40.33 41.02,40.15 60.74,40.27 				"/>
				<polygon style="clip-path:url(#SVGID_72_);fill:#D1E4A5;" points="60.74,40.63 41.02,40.52 41.02,40.33 60.74,40.45 				"/>
				<polygon style="clip-path:url(#SVGID_72_);fill:#D2E4A6;" points="60.74,40.81 41.02,40.7 41.02,40.52 60.74,40.63 				"/>
				<polygon style="clip-path:url(#SVGID_72_);fill:#D2E4A7;" points="60.74,40.99 41.02,40.88 41.02,40.7 60.74,40.81 				"/>
				<polygon style="clip-path:url(#SVGID_72_);fill:#D3E5A8;" points="60.74,41.17 41.02,41.06 41.02,40.88 60.74,40.99 				"/>
				<polygon style="clip-path:url(#SVGID_72_);fill:#D3E5A9;" points="60.74,41.35 41.02,41.24 41.02,41.06 60.74,41.17 				"/>
				<polygon style="clip-path:url(#SVGID_72_);fill:#D4E5AA;" points="60.74,41.53 41.02,41.42 41.02,41.24 60.74,41.35 				"/>
				<polygon style="clip-path:url(#SVGID_72_);fill:#D4E6AB;" points="60.74,41.71 41.02,41.6 41.02,41.42 60.74,41.53 				"/>
				<polygon style="clip-path:url(#SVGID_72_);fill:#D5E6AC;" points="60.74,41.89 41.02,41.78 41.02,41.6 60.74,41.71 				"/>
				<polygon style="clip-path:url(#SVGID_72_);fill:#D5E6AD;" points="60.74,42.07 41.02,41.96 41.02,41.78 60.74,41.89 				"/>
				<polygon style="clip-path:url(#SVGID_72_);fill:#D6E6AE;" points="60.74,42.25 41.02,42.14 41.02,41.96 60.74,42.07 				"/>
				<polygon style="clip-path:url(#SVGID_72_);fill:#D6E7AF;" points="60.74,42.44 41.02,42.32 41.02,42.14 60.74,42.25 				"/>
				<polygon style="clip-path:url(#SVGID_72_);fill:#D7E7B0;" points="60.74,42.62 41.02,42.5 41.02,42.32 60.74,42.44 				"/>
				<polygon style="clip-path:url(#SVGID_72_);fill:#D8E7B1;" points="60.74,42.8 41.02,42.68 41.02,42.5 60.74,42.62 				"/>
				<polygon style="clip-path:url(#SVGID_72_);fill:#D8E7B2;" points="60.74,42.98 41.02,42.87 41.02,42.68 60.74,42.8 				"/>
				<polygon style="clip-path:url(#SVGID_72_);fill:#D9E8B3;" points="60.74,43.16 41.02,43.05 41.02,42.87 60.74,42.98 				"/>
				<polygon style="clip-path:url(#SVGID_72_);fill:#D9E8B4;" points="60.74,43.34 41.02,43.23 41.02,43.05 60.74,43.16 				"/>
				<polygon style="clip-path:url(#SVGID_72_);fill:#DAE8B5;" points="60.74,43.52 41.02,43.41 41.02,43.23 60.74,43.34 				"/>
				<polygon style="clip-path:url(#SVGID_72_);fill:#DAE9B6;" points="60.74,43.7 41.02,43.59 41.02,43.41 60.74,43.52 				"/>
				<polygon style="clip-path:url(#SVGID_72_);fill:#DBE9B7;" points="60.74,43.88 41.02,43.77 41.02,43.59 60.74,43.7 				"/>
				<polygon style="clip-path:url(#SVGID_72_);fill:#DBE9B8;" points="60.74,44.06 41.02,43.95 41.02,43.77 60.74,43.88 				"/>
				<polygon style="clip-path:url(#SVGID_72_);fill:#DCE9B9;" points="60.74,44.24 41.02,44.13 41.02,43.95 60.74,44.06 				"/>
				<polygon style="clip-path:url(#SVGID_72_);fill:#DCEABA;" points="60.74,44.42 41.02,44.31 41.02,44.13 60.74,44.24 				"/>
				<polygon style="clip-path:url(#SVGID_72_);fill:#DDEABB;" points="60.74,44.6 41.02,44.49 41.02,44.31 60.74,44.42 				"/>
				<polygon style="clip-path:url(#SVGID_72_);fill:#DDEABB;" points="41.02,44.49 60.74,44.6 60.74,45.25 41.02,45.25 				"/>
			</g>
		</g>
	</g>
	<g>
		<defs>
			<polygon id="SVGID_168_" points="41.08,53.15 50.85,58.85 50.85,45.14 41.08,39.44 			"/>
		</defs>
		<use xlink:href="#SVGID_168_"  style="overflow:visible;fill:#178F70;"/>
		<clipPath id="SVGID_73_">
			<use xlink:href="#SVGID_168_"  style="overflow:visible;"/>
		</clipPath>
		<g style="clip-path:url(#SVGID_73_);">
			
				<rect x="36.24" y="44.22" transform="matrix(4.495370e-03 -1 1 4.495370e-03 -3.3823 94.8924)" style="fill:#178F70;" width="19.46" height="9.86"/>
		</g>
	</g>
	<g>
		<defs>
			<polygon id="SVGID_170_" points="50.85,45.14 50.85,58.85 50.86,58.85 60.68,53.24 60.68,39.53 			"/>
		</defs>
		<use xlink:href="#SVGID_170_"  style="overflow:visible;fill:#5AC0A0;"/>
		<clipPath id="SVGID_74_">
			<use xlink:href="#SVGID_170_"  style="overflow:visible;"/>
		</clipPath>
		<g style="clip-path:url(#SVGID_74_);">
			
				<rect x="46.08" y="44.24" transform="matrix(4.501556e-03 -1 1 4.501556e-03 6.3257 104.7322)" style="fill:#5AC0A0;" width="19.37" height="9.91"/>
		</g>
	</g>
	<g>
		<defs>
			<polygon id="SVGID_172_" points="45.67,28.95 50.85,32.01 56.1,29.05 50.91,25.99 			"/>
		</defs>
		<use xlink:href="#SVGID_172_"  style="overflow:visible;fill:#8BD3BC;"/>
		<clipPath id="SVGID_75_">
			<use xlink:href="#SVGID_172_"  style="overflow:visible;"/>
		</clipPath>
		<g style="clip-path:url(#SVGID_75_);">
			
				<rect x="47.84" y="23.77" transform="matrix(5.689419e-03 -1 1 5.689419e-03 21.5939 79.7128)" style="fill:#8BD3BC;" width="6.08" height="10.46"/>
		</g>
	</g>
	<g>
		<defs>
			<polygon id="SVGID_174_" points="45.66,33.5 50.87,36.54 50.87,36.26 50.87,32.01 45.66,28.97 			"/>
		</defs>
		<use xlink:href="#SVGID_174_"  style="overflow:visible;fill:#178F70;"/>
		<clipPath id="SVGID_76_">
			<use xlink:href="#SVGID_174_"  style="overflow:visible;"/>
		</clipPath>
		<g style="clip-path:url(#SVGID_76_);">
			
				<rect x="44.47" y="30.14" transform="matrix(4.505493e-03 -1 1 4.505493e-03 15.2901 80.8759)" style="fill:#178F70;" width="7.59" height="5.24"/>
		</g>
	</g>
	<g>
		<defs>
			<polygon id="SVGID_176_" points="50.87,32.01 50.87,36.54 56.1,33.55 56.1,29.02 			"/>
		</defs>
		<use xlink:href="#SVGID_176_"  style="overflow:visible;fill:#5AC0A0;"/>
		<clipPath id="SVGID_78_">
			<use xlink:href="#SVGID_176_"  style="overflow:visible;"/>
		</clipPath>
		<g style="clip-path:url(#SVGID_78_);">
			
				<rect x="49.71" y="30.15" transform="matrix(4.501211e-03 -1 1 4.501211e-03 20.4591 86.1152)" style="fill:#5AC0A0;" width="7.54" height="5.26"/>
		</g>
	</g>
	<g>
		<polygon style="fill:#003423;" points="52.55,32.02 52.55,34.03 53.95,33.23 53.95,31.21 		"/>
	</g>
	<g>
		<defs>
			<polygon id="SVGID_178_" points="52.55,34.03 52.55,34.57 54.41,33.5 53.95,33.23 			"/>
		</defs>
		<use xlink:href="#SVGID_178_"  style="overflow:visible;fill:#8BD3BC;"/>
		<clipPath id="SVGID_80_">
			<use xlink:href="#SVGID_178_"  style="overflow:visible;"/>
		</clipPath>
		<g style="clip-path:url(#SVGID_80_);">
			
				<rect x="52.81" y="32.96" transform="matrix(4.500894e-03 -1 1 4.500894e-03 19.3412 87.2236)" style="fill:#8BD3BC;" width="1.34" height="1.87"/>
		</g>
	</g>
	<g>
		<defs>
			<polygon id="SVGID_180_" points="53.95,31.22 53.95,33.23 54.41,33.5 54.41,30.95 			"/>
		</defs>
		<clipPath id="SVGID_82_">
			<use xlink:href="#SVGID_180_"  style="overflow:visible;"/>
		</clipPath>
		<g style="clip-path:url(#SVGID_82_);">
			<g>
				<defs>
					
						<rect id="SVGID_182_" x="52.91" y="31.99" transform="matrix(4.495966e-03 -1 1 4.495966e-03 21.7154 86.2596)" width="2.55" height="0.47"/>
				</defs>
				<clipPath id="SVGID_84_">
					<use xlink:href="#SVGID_182_"  style="overflow:visible;"/>
				</clipPath>
				
					<rect x="54.18" y="30.71" transform="matrix(4.499994e-03 -1 1 4.499994e-03 22.9856 84.9947)" style="clip-path:url(#SVGID_84_);fill:#00442F;" width="0.01" height="0.49"/>
				<polygon style="clip-path:url(#SVGID_84_);fill:#004530;" points="54.42,31.01 53.94,31 53.94,30.96 54.42,30.96 				"/>
				<polygon style="clip-path:url(#SVGID_84_);fill:#004631;" points="54.42,31.05 53.94,31.05 53.94,31 54.42,31.01 				"/>
				<polygon style="clip-path:url(#SVGID_84_);fill:#004731;" points="54.42,31.1 53.94,31.1 53.94,31.05 54.42,31.05 				"/>
				<polygon style="clip-path:url(#SVGID_84_);fill:#004832;" points="54.42,31.15 53.94,31.14 53.94,31.1 54.42,31.1 				"/>
				<polygon style="clip-path:url(#SVGID_84_);fill:#004933;" points="54.42,31.19 53.94,31.19 53.94,31.14 54.42,31.15 				"/>
				<polygon style="clip-path:url(#SVGID_84_);fill:#014A34;" points="54.42,31.24 53.94,31.24 53.94,31.19 54.42,31.19 				"/>
				<polygon style="clip-path:url(#SVGID_84_);fill:#014B35;" points="54.42,31.28 53.94,31.28 53.94,31.24 54.42,31.24 				"/>
				<polygon style="clip-path:url(#SVGID_84_);fill:#014C36;" points="54.42,31.33 53.94,31.33 53.94,31.28 54.42,31.28 				"/>
				<polygon style="clip-path:url(#SVGID_84_);fill:#014D37;" points="54.42,31.38 53.94,31.38 53.94,31.33 54.42,31.33 				"/>
				<polygon style="clip-path:url(#SVGID_84_);fill:#014E38;" points="54.42,31.42 53.94,31.42 53.94,31.38 54.42,31.38 				"/>
				<polygon style="clip-path:url(#SVGID_84_);fill:#014F39;" points="54.42,31.47 53.94,31.47 53.94,31.42 54.42,31.42 				"/>
				<polygon style="clip-path:url(#SVGID_84_);fill:#01503A;" points="54.42,31.52 53.94,31.51 53.94,31.47 54.42,31.47 				"/>
				<polygon style="clip-path:url(#SVGID_84_);fill:#01513A;" points="54.42,31.56 53.94,31.56 53.94,31.51 54.42,31.52 				"/>
				<polygon style="clip-path:url(#SVGID_84_);fill:#01523B;" points="54.42,31.61 53.94,31.61 53.94,31.56 54.42,31.56 				"/>
				<polygon style="clip-path:url(#SVGID_84_);fill:#01533C;" points="54.42,31.66 53.94,31.65 53.94,31.61 54.42,31.61 				"/>
				<polygon style="clip-path:url(#SVGID_84_);fill:#01543D;" points="54.42,31.7 53.94,31.7 53.94,31.65 54.42,31.66 				"/>
				<polygon style="clip-path:url(#SVGID_84_);fill:#01553E;" points="54.42,31.75 53.94,31.75 53.94,31.7 54.42,31.7 				"/>
				<polygon style="clip-path:url(#SVGID_84_);fill:#01563F;" points="54.42,31.79 53.94,31.79 53.94,31.75 54.42,31.75 				"/>
				<polygon style="clip-path:url(#SVGID_84_);fill:#015740;" points="54.42,31.84 53.94,31.84 53.94,31.79 54.42,31.79 				"/>
				<polygon style="clip-path:url(#SVGID_84_);fill:#015841;" points="54.42,31.89 53.94,31.88 53.94,31.84 54.42,31.84 				"/>
				<polygon style="clip-path:url(#SVGID_84_);fill:#015942;" points="54.42,31.93 53.94,31.93 53.94,31.88 54.42,31.89 				"/>
				<polygon style="clip-path:url(#SVGID_84_);fill:#025B42;" points="54.42,31.98 53.94,31.98 53.94,31.93 54.42,31.93 				"/>
				<polygon style="clip-path:url(#SVGID_84_);fill:#025C43;" points="54.42,32.03 53.94,32.02 53.94,31.98 54.42,31.98 				"/>
				<polygon style="clip-path:url(#SVGID_84_);fill:#025D44;" points="54.42,32.07 53.94,32.07 53.94,32.02 54.42,32.03 				"/>
				<polygon style="clip-path:url(#SVGID_84_);fill:#025E45;" points="54.42,32.12 53.94,32.12 53.94,32.07 54.42,32.07 				"/>
				<polygon style="clip-path:url(#SVGID_84_);fill:#025F46;" points="54.42,32.17 53.94,32.16 53.94,32.12 54.42,32.12 				"/>
				<polygon style="clip-path:url(#SVGID_84_);fill:#026047;" points="54.42,32.21 53.94,32.21 53.94,32.16 54.42,32.17 				"/>
				<polygon style="clip-path:url(#SVGID_84_);fill:#026148;" points="54.42,32.26 53.94,32.26 53.94,32.21 54.42,32.21 				"/>
				<polygon style="clip-path:url(#SVGID_84_);fill:#026249;" points="54.42,32.3 53.94,32.3 53.94,32.26 54.42,32.26 				"/>
				<polygon style="clip-path:url(#SVGID_84_);fill:#02634A;" points="54.42,32.35 53.94,32.35 53.94,32.3 54.42,32.3 				"/>
				<polygon style="clip-path:url(#SVGID_84_);fill:#02644A;" points="54.42,32.4 53.94,32.39 53.94,32.35 54.42,32.35 				"/>
				<polygon style="clip-path:url(#SVGID_84_);fill:#02654B;" points="54.42,32.44 53.94,32.44 53.94,32.39 54.42,32.4 				"/>
				<polygon style="clip-path:url(#SVGID_84_);fill:#02664C;" points="54.42,32.49 53.94,32.49 53.94,32.44 54.42,32.44 				"/>
				<polygon style="clip-path:url(#SVGID_84_);fill:#02674D;" points="54.42,32.54 53.94,32.53 53.94,32.49 54.42,32.49 				"/>
				<polygon style="clip-path:url(#SVGID_84_);fill:#02684E;" points="54.42,32.58 53.94,32.58 53.94,32.53 54.42,32.54 				"/>
				<polygon style="clip-path:url(#SVGID_84_);fill:#02694F;" points="54.42,32.63 53.94,32.63 53.94,32.58 54.42,32.58 				"/>
				<polygon style="clip-path:url(#SVGID_84_);fill:#026A50;" points="54.42,32.67 53.94,32.67 53.94,32.63 54.42,32.63 				"/>
				<polygon style="clip-path:url(#SVGID_84_);fill:#036B51;" points="54.42,32.72 53.94,32.72 53.94,32.67 54.42,32.67 				"/>
				<polygon style="clip-path:url(#SVGID_84_);fill:#036C52;" points="54.42,32.77 53.94,32.77 53.94,32.72 54.42,32.72 				"/>
				<polygon style="clip-path:url(#SVGID_84_);fill:#036D53;" points="54.42,32.81 53.94,32.81 53.94,32.77 54.42,32.77 				"/>
				<polygon style="clip-path:url(#SVGID_84_);fill:#036E53;" points="54.42,32.86 53.94,32.86 53.94,32.81 54.42,32.81 				"/>
				<polygon style="clip-path:url(#SVGID_84_);fill:#036F54;" points="54.42,32.91 53.94,32.9 53.94,32.86 54.42,32.86 				"/>
				<polygon style="clip-path:url(#SVGID_84_);fill:#037055;" points="54.42,32.95 53.94,32.95 53.94,32.9 54.42,32.91 				"/>
				<polygon style="clip-path:url(#SVGID_84_);fill:#037156;" points="54.42,33 53.94,33 53.94,32.95 54.42,32.95 				"/>
				<polygon style="clip-path:url(#SVGID_84_);fill:#037257;" points="54.42,33.05 53.94,33.04 53.94,33 54.42,33 				"/>
				
					<rect x="53.95" y="33.03" transform="matrix(4.499994e-03 -1 1 4.499994e-03 20.6661 87.3038)" style="clip-path:url(#SVGID_84_);fill:#037257;" width="0.46" height="0.49"/>
			</g>
		</g>
	</g>
	<g>
		<polygon style="fill:#003423;" points="47.61,33.25 49.01,34.05 49.01,32.04 47.61,31.24 		"/>
	</g>
	<g>
		<defs>
			<polygon id="SVGID_184_" points="47.14,33.52 49.01,34.59 49.01,34.06 47.6,33.25 			"/>
		</defs>
		<use xlink:href="#SVGID_184_"  style="overflow:visible;fill:#8BD3BC;"/>
		<clipPath id="SVGID_86_">
			<use xlink:href="#SVGID_184_"  style="overflow:visible;"/>
		</clipPath>
		<g style="clip-path:url(#SVGID_86_);">
			
				<rect x="47.14" y="33.25" transform="matrix(1 -4.493782e-03 4.493782e-03 1 -0.1519 0.2164)" style="fill:#8BD3BC;" width="1.87" height="1.34"/>
		</g>
	</g>
	<g>
		<defs>
			<polygon id="SVGID_186_" points="47.14,30.97 47.14,33.52 47.6,33.25 47.6,31.24 			"/>
		</defs>
		<use xlink:href="#SVGID_186_"  style="overflow:visible;fill:#5AC0A0;"/>
		<clipPath id="SVGID_88_">
			<use xlink:href="#SVGID_186_"  style="overflow:visible;"/>
		</clipPath>
		<g style="clip-path:url(#SVGID_88_);">
			<rect x="47.14" y="30.97" style="fill:#5AC0A0;" width="0.47" height="2.55"/>
		</g>
	</g>
	<g>
		<defs>
			<polygon id="SVGID_188_" points="41.08,39.44 50.85,45.14 50.87,36.54 45.66,33.5 			"/>
		</defs>
		<use xlink:href="#SVGID_188_"  style="overflow:visible;fill:#106950;"/>
		<clipPath id="SVGID_90_">
			<use xlink:href="#SVGID_188_"  style="overflow:visible;"/>
		</clipPath>
		<g style="clip-path:url(#SVGID_90_);">
			
				<rect x="40.82" y="33.28" transform="matrix(0.9989 -0.0461 0.0461 0.9989 -1.7639 2.1614)" style="fill:#106950;" width="10.31" height="12.07"/>
		</g>
	</g>
	<g>
		<defs>
			<polygon id="SVGID_190_" points="50.87,36.54 50.85,45.14 60.68,39.53 56.1,33.55 			"/>
		</defs>
		<use xlink:href="#SVGID_190_"  style="overflow:visible;fill:#178F70;"/>
		<clipPath id="SVGID_91_">
			<use xlink:href="#SVGID_190_"  style="overflow:visible;"/>
		</clipPath>
		<g style="clip-path:url(#SVGID_91_);">
			<rect x="50.85" y="33.55" style="fill:#178F70;" width="9.82" height="11.58"/>
		</g>
	</g>
	<g>
		<defs>
			<polygon id="SVGID_192_" points="45.66,28.97 50.87,32.01 50.88,16.39 			"/>
		</defs>
		<use xlink:href="#SVGID_192_"  style="overflow:visible;fill:#106950;"/>
		<clipPath id="SVGID_92_">
			<use xlink:href="#SVGID_192_"  style="overflow:visible;"/>
		</clipPath>
		<g style="clip-path:url(#SVGID_92_);">
			<rect x="45.66" y="16.39" style="fill:#106950;" width="5.22" height="15.62"/>
		</g>
	</g>
	<g>
		<defs>
			<polygon id="SVGID_194_" points="50.84,16.39 50.85,32.01 56.05,28.97 			"/>
		</defs>
		<use xlink:href="#SVGID_194_"  style="overflow:visible;fill:#178F70;"/>
		<clipPath id="SVGID_93_">
			<use xlink:href="#SVGID_194_"  style="overflow:visible;"/>
		</clipPath>
		<g style="clip-path:url(#SVGID_93_);">
			<rect x="50.84" y="16.39" style="fill:#178F70;" width="5.21" height="15.62"/>
		</g>
	</g>
	<g>
		<defs>
			<path id="SVGID_196_" d="M43.01,44.47c-1.52,0.87-1.55,3.64-0.08,6.18c1.47,2.54,3.88,3.9,5.4,3.02
				c1.51-0.87,1.55-3.64,0.08-6.18c-1.16-2.02-2.93-3.29-4.36-3.29C43.67,44.2,43.32,44.29,43.01,44.47"/>
		</defs>
		<use xlink:href="#SVGID_196_"  style="overflow:visible;fill:#8BD3BC;"/>
		<clipPath id="SVGID_94_">
			<use xlink:href="#SVGID_196_"  style="overflow:visible;"/>
		</clipPath>
		<g style="clip-path:url(#SVGID_94_);">
			
				<rect x="39.54" y="43.92" transform="matrix(0.2727 -0.9621 0.9621 0.2727 -14.2912 79.8481)" style="fill:#8BD3BC;" width="12.25" height="10.91"/>
		</g>
	</g>
	<g>
		<path style="fill:#004B36;" d="M45.19,48.26c-0.27,0.15-0.28,0.65-0.01,1.1c0.26,0.45,0.69,0.69,0.96,0.54
			c0.27-0.15,0.27-0.65,0.02-1.1C45.89,48.34,45.46,48.1,45.19,48.26"/>
	</g>
	<g>
		<defs>
			<path id="SVGID_198_" d="M53.35,47.49c-1.46,2.54-1.43,5.31,0.08,6.18c1.51,0.88,3.93-0.48,5.4-3.02
				c1.47-2.54,1.43-5.31-0.08-6.18c-0.31-0.18-0.66-0.27-1.04-0.27C56.28,44.2,54.52,45.47,53.35,47.49"/>
		</defs>
		<use xlink:href="#SVGID_198_"  style="overflow:visible;fill:#8BD3BC;"/>
		<clipPath id="SVGID_95_">
			<use xlink:href="#SVGID_198_"  style="overflow:visible;"/>
		</clipPath>
		<g style="clip-path:url(#SVGID_95_);">
			
				<rect x="51.65" y="44.01" transform="matrix(0.9989 -0.0469 0.0469 0.9989 -2.2538 2.685)" style="fill:#8BD3BC;" width="8.89" height="10.73"/>
		</g>
	</g>
	<g>
		<defs>
			<polygon id="SVGID_200_" points="59.43,35.21 60.05,35.57 60.68,35.22 60.05,34.85 			"/>
		</defs>
		<use xlink:href="#SVGID_200_"  style="overflow:visible;fill:#8BD3BC;"/>
		<clipPath id="SVGID_96_">
			<use xlink:href="#SVGID_200_"  style="overflow:visible;"/>
		</clipPath>
		<g style="clip-path:url(#SVGID_96_);">
			<rect x="59.43" y="34.86" style="fill:#8BD3BC;" width="1.24" height="0.72"/>
		</g>
	</g>
	<g>
		<defs>
			<polygon id="SVGID_202_" points="59.43,39.58 60.05,39.94 60.05,35.57 59.43,35.21 			"/>
		</defs>
		<use xlink:href="#SVGID_202_"  style="overflow:visible;fill:#019070;"/>
		<clipPath id="SVGID_97_">
			<use xlink:href="#SVGID_202_"  style="overflow:visible;"/>
		</clipPath>
		<g style="clip-path:url(#SVGID_97_);">
			
				<rect x="57.38" y="37.25" transform="matrix(4.462956e-03 -1 1 4.462956e-03 21.9009 97.1482)" style="fill:#019070;" width="4.73" height="0.64"/>
		</g>
	</g>
	<g>
		<defs>
			<polygon id="SVGID_204_" points="60.05,35.57 60.05,39.94 60.68,39.58 60.68,35.22 60.67,35.22 			"/>
		</defs>
		<use xlink:href="#SVGID_204_"  style="overflow:visible;fill:#5AC0A0;"/>
		<clipPath id="SVGID_98_">
			<use xlink:href="#SVGID_204_"  style="overflow:visible;"/>
		</clipPath>
		<g style="clip-path:url(#SVGID_98_);">
			
				<rect x="58" y="37.26" transform="matrix(4.452060e-03 -1 1 4.452060e-03 22.518 97.774)" style="fill:#5AC0A0;" width="4.72" height="0.64"/>
		</g>
	</g>
	<g>
		<defs>
			<polygon id="SVGID_206_" points="50.2,40.41 50.82,40.77 51.44,40.42 50.82,40.05 			"/>
		</defs>
		<use xlink:href="#SVGID_206_"  style="overflow:visible;fill:#8BD3BC;"/>
		<clipPath id="SVGID_99_">
			<use xlink:href="#SVGID_206_"  style="overflow:visible;"/>
		</clipPath>
		<g style="clip-path:url(#SVGID_99_);">
			<rect x="50.2" y="40.05" style="fill:#8BD3BC;" width="1.24" height="0.72"/>
		</g>
	</g>
	<g>
		<defs>
			<polygon id="SVGID_208_" points="50.2,44.78 50.82,45.14 50.82,40.77 50.2,40.41 			"/>
		</defs>
		<use xlink:href="#SVGID_208_"  style="overflow:visible;fill:#019070;"/>
		<clipPath id="SVGID_100_">
			<use xlink:href="#SVGID_208_"  style="overflow:visible;"/>
		</clipPath>
		<g style="clip-path:url(#SVGID_100_);">
			
				<rect x="48.15" y="42.45" transform="matrix(4.473260e-03 -1 1 4.473260e-03 7.5114 93.0943)" style="fill:#019070;" width="4.73" height="0.64"/>
		</g>
	</g>
	<g>
		<defs>
			<polygon id="SVGID_210_" points="50.82,40.77 50.82,45.14 51.44,44.78 51.44,40.42 			"/>
		</defs>
		<use xlink:href="#SVGID_210_"  style="overflow:visible;fill:#5AC0A0;"/>
		<clipPath id="SVGID_101_">
			<use xlink:href="#SVGID_210_"  style="overflow:visible;"/>
		</clipPath>
		<g style="clip-path:url(#SVGID_101_);">
			
				<rect x="48.77" y="42.45" transform="matrix(4.451421e-03 -1 1 4.451421e-03 8.1291 93.7192)" style="fill:#5AC0A0;" width="4.73" height="0.64"/>
		</g>
	</g>
	<g>
		<defs>
			<polygon id="SVGID_212_" points="45.67,24.58 46.28,24.94 46.91,24.59 46.29,24.22 			"/>
		</defs>
		<use xlink:href="#SVGID_212_"  style="overflow:visible;fill:#8BD3BC;"/>
		<clipPath id="SVGID_102_">
			<use xlink:href="#SVGID_212_"  style="overflow:visible;"/>
		</clipPath>
		<g style="clip-path:url(#SVGID_102_);">
			<rect x="45.67" y="24.22" style="fill:#8BD3BC;" width="1.24" height="0.72"/>
		</g>
	</g>
	<g>
		<defs>
			<polygon id="SVGID_214_" points="45.67,28.95 46.28,29.31 46.28,24.94 45.67,24.58 			"/>
		</defs>
		<use xlink:href="#SVGID_214_"  style="overflow:visible;fill:#019070;"/>
		<clipPath id="SVGID_103_">
			<use xlink:href="#SVGID_214_"  style="overflow:visible;"/>
		</clipPath>
		<g style="clip-path:url(#SVGID_103_);">
			
				<rect x="43.61" y="26.63" transform="matrix(4.483611e-03 -1 1 4.483611e-03 18.8238 72.7989)" style="fill:#019070;" width="4.73" height="0.64"/>
		</g>
	</g>
	<g>
		<defs>
			<polygon id="SVGID_216_" points="46.28,24.94 46.28,29.31 46.91,28.95 46.91,24.59 			"/>
		</defs>
		<use xlink:href="#SVGID_216_"  style="overflow:visible;fill:#5AC0A0;"/>
		<clipPath id="SVGID_104_">
			<use xlink:href="#SVGID_216_"  style="overflow:visible;"/>
		</clipPath>
		<g style="clip-path:url(#SVGID_104_);">
			
				<rect x="44.24" y="26.62" transform="matrix(4.573994e-03 -1 1 4.573994e-03 19.4362 73.4215)" style="fill:#5AC0A0;" width="4.72" height="0.65"/>
		</g>
	</g>
	<g>
		<defs>
			<polygon id="SVGID_218_" points="50.23,27.28 50.85,27.65 51.47,27.29 50.85,26.93 			"/>
		</defs>
		<use xlink:href="#SVGID_218_"  style="overflow:visible;fill:#8BD3BC;"/>
		<clipPath id="SVGID_105_">
			<use xlink:href="#SVGID_218_"  style="overflow:visible;"/>
		</clipPath>
		<g style="clip-path:url(#SVGID_105_);">
			<rect x="50.23" y="26.93" style="fill:#8BD3BC;" width="1.24" height="0.72"/>
		</g>
	</g>
	<g>
		<defs>
			<polygon id="SVGID_220_" points="50.23,31.65 50.85,32.01 50.85,27.65 50.23,27.28 			"/>
		</defs>
		<use xlink:href="#SVGID_220_"  style="overflow:visible;fill:#019070;"/>
		<clipPath id="SVGID_106_">
			<use xlink:href="#SVGID_220_"  style="overflow:visible;"/>
		</clipPath>
		<g style="clip-path:url(#SVGID_106_);">
			
				<rect x="48.17" y="29.32" transform="matrix(4.462313e-03 -1 1 4.462313e-03 20.6684 80.0527)" style="fill:#019070;" width="4.73" height="0.64"/>
		</g>
	</g>
	<g>
		<defs>
			<polygon id="SVGID_222_" points="50.85,27.65 50.85,32.01 51.47,31.65 51.47,27.29 			"/>
		</defs>
		<use xlink:href="#SVGID_222_"  style="overflow:visible;fill:#5AC0A0;"/>
		<clipPath id="SVGID_107_">
			<use xlink:href="#SVGID_222_"  style="overflow:visible;"/>
		</clipPath>
		<g style="clip-path:url(#SVGID_107_);">
			
				<rect x="48.8" y="29.33" transform="matrix(4.595672e-03 -1 1 4.595672e-03 21.2781 80.6741)" style="fill:#5AC0A0;" width="4.72" height="0.64"/>
		</g>
	</g>
	<g>
		<defs>
			<polygon id="SVGID_224_" points="54.81,24.61 55.43,24.97 56.05,24.61 55.43,24.25 			"/>
		</defs>
		<use xlink:href="#SVGID_224_"  style="overflow:visible;fill:#8BD3BC;"/>
		<clipPath id="SVGID_108_">
			<use xlink:href="#SVGID_224_"  style="overflow:visible;"/>
		</clipPath>
		<g style="clip-path:url(#SVGID_108_);">
			<rect x="54.81" y="24.25" style="fill:#8BD3BC;" width="1.24" height="0.72"/>
		</g>
	</g>
	<g>
		<defs>
			<polygon id="SVGID_226_" points="54.81,28.97 55.43,29.33 55.43,24.97 54.81,24.61 			"/>
		</defs>
		<use xlink:href="#SVGID_226_"  style="overflow:visible;fill:#019070;"/>
		<clipPath id="SVGID_109_">
			<use xlink:href="#SVGID_226_"  style="overflow:visible;"/>
		</clipPath>
		<g style="clip-path:url(#SVGID_109_);">
			
				<rect x="52.75" y="26.65" transform="matrix(4.472614e-03 -1 1 4.472614e-03 27.9016 81.9656)" style="fill:#019070;" width="4.73" height="0.64"/>
		</g>
	</g>
	<g>
		<defs>
			<polygon id="SVGID_228_" points="55.43,24.97 55.43,29.33 56.05,28.97 56.05,24.61 			"/>
		</defs>
		<use xlink:href="#SVGID_228_"  style="overflow:visible;fill:#5AC0A0;"/>
		<clipPath id="SVGID_110_">
			<use xlink:href="#SVGID_228_"  style="overflow:visible;"/>
		</clipPath>
		<g style="clip-path:url(#SVGID_110_);">
			
				<rect x="53.38" y="26.65" transform="matrix(4.452699e-03 -1 1 4.452699e-03 28.519 82.5898)" style="fill:#5AC0A0;" width="4.72" height="0.64"/>
		</g>
	</g>
	<g>
		<defs>
			<polygon id="SVGID_230_" points="41.08,35.02 41.7,35.38 42.33,35.02 41.71,34.66 			"/>
		</defs>
		<use xlink:href="#SVGID_230_"  style="overflow:visible;fill:#8BD3BC;"/>
		<clipPath id="SVGID_111_">
			<use xlink:href="#SVGID_230_"  style="overflow:visible;"/>
		</clipPath>
		<g style="clip-path:url(#SVGID_111_);">
			<rect x="41.08" y="34.66" style="fill:#8BD3BC;" width="1.24" height="0.72"/>
		</g>
	</g>
	<g>
		<defs>
			<polygon id="SVGID_232_" points="41.08,39.38 41.7,39.74 41.7,35.38 41.08,35.02 			"/>
		</defs>
		<use xlink:href="#SVGID_232_"  style="overflow:visible;fill:#019070;"/>
		<clipPath id="SVGID_112_">
			<use xlink:href="#SVGID_232_"  style="overflow:visible;"/>
		</clipPath>
		<g style="clip-path:url(#SVGID_112_);">
			
				<rect x="39.03" y="37.06" transform="matrix(4.606256e-03 -1 1 4.606256e-03 3.8242 78.6001)" style="fill:#019070;" width="4.73" height="0.64"/>
		</g>
	</g>
	<g>
		<defs>
			<polygon id="SVGID_234_" points="41.7,35.38 41.7,39.74 42.33,39.39 42.33,35.02 			"/>
		</defs>
		<use xlink:href="#SVGID_234_"  style="overflow:visible;fill:#5AC0A0;"/>
		<clipPath id="SVGID_113_">
			<use xlink:href="#SVGID_234_"  style="overflow:visible;"/>
		</clipPath>
		<g style="clip-path:url(#SVGID_113_);">
			
				<rect x="39.65" y="37.06" transform="matrix(4.462956e-03 -1 1 4.462956e-03 4.4449 79.2307)" style="fill:#5AC0A0;" width="4.72" height="0.64"/>
		</g>
	</g>
	<g>
		<rect x="45.44" y="45.82" style="fill:#004B36;" width="0.44" height="3.25"/>
	</g>
	<g>
		
			<rect x="46.47" y="48.93" transform="matrix(0.8844 -0.4668 0.4668 0.8844 -18.4672 27.7052)" style="fill:#004B36;" width="0.44" height="4.38"/>
	</g>
	<g>
		<path style="fill:#004B36;" d="M56.57,48.25c0.27,0.16,0.27,0.65,0.02,1.1c-0.26,0.45-0.69,0.69-0.96,0.54
			c-0.27-0.15-0.28-0.65-0.02-1.1C55.87,48.34,56.3,48.1,56.57,48.25"/>
	</g>
	<g>
		<rect x="55.87" y="45.82" style="fill:#004B36;" width="0.44" height="3.25"/>
	</g>
	<g>
		
			<rect x="56.58" y="48.9" transform="matrix(0.8846 -0.4663 0.4663 0.8846 -16.9535 32.3059)" style="fill:#004B36;" width="0.44" height="3.03"/>
	</g>
</g>
</svg>
