<?xml version="1.0" encoding="utf-8"?>
<!-- Generator: Adobe Illustrator 21.0.0, SVG Export Plug-In . SVG Version: 6.00 Build 0)  -->
<svg version="1.1" id="Layer_1" xmlns="http://www.w3.org/2000/svg" xmlns:xlink="http://www.w3.org/1999/xlink" x="0px" y="0px"
	 viewBox="0 0 88.64 110.97" style="enable-background:new 0 0 88.64 110.97;" xml:space="preserve">
<g>
	<defs>
		<polygon id="SVGID_77_" points="58.37,30.49 59.58,31.2 60.28,30.81 59.06,30.09 		"/>
	</defs>
	<clipPath id="SVGID_61_">
		<use xlink:href="#SVGID_77_"  style="overflow:visible;"/>
	</clipPath>
	<g style="clip-path:url(#SVGID_61_);">
		<g>
			<defs>
				<rect id="SVGID_79_" x="58.37" y="30.09" width="1.91" height="1.11"/>
			</defs>
			<clipPath id="SVGID_62_">
				<use xlink:href="#SVGID_79_"  style="overflow:visible;"/>
			</clipPath>
			<rect x="58.37" y="30.09" style="clip-path:url(#SVGID_62_);fill:#BEDA81;" width="1.91" height="0.02"/>
			<rect x="58.37" y="30.12" style="clip-path:url(#SVGID_62_);fill:#BEDA81;" width="1.91" height="0.02"/>
			<rect x="58.37" y="30.13" style="clip-path:url(#SVGID_62_);fill:#BFDA82;" width="1.91" height="0.02"/>
			<rect x="58.37" y="30.15" style="clip-path:url(#SVGID_62_);fill:#BFDB83;" width="1.91" height="0.02"/>
			<rect x="58.37" y="30.17" style="clip-path:url(#SVGID_62_);fill:#C0DB84;" width="1.91" height="0.02"/>
			<rect x="58.37" y="30.19" style="clip-path:url(#SVGID_62_);fill:#C0DB85;" width="1.91" height="0.02"/>
			<rect x="58.37" y="30.21" style="clip-path:url(#SVGID_62_);fill:#C1DB86;" width="1.91" height="0.02"/>
			<rect x="58.37" y="30.22" style="clip-path:url(#SVGID_62_);fill:#C1DC87;" width="1.91" height="0.02"/>
			<rect x="58.37" y="30.24" style="clip-path:url(#SVGID_62_);fill:#C2DC88;" width="1.91" height="0.02"/>
			<rect x="58.37" y="30.26" style="clip-path:url(#SVGID_62_);fill:#C2DC89;" width="1.91" height="0.02"/>
			<rect x="58.37" y="30.28" style="clip-path:url(#SVGID_62_);fill:#C3DD8A;" width="1.91" height="0.02"/>
			<rect x="58.37" y="30.29" style="clip-path:url(#SVGID_62_);fill:#C3DD8B;" width="1.91" height="0.02"/>
			<rect x="58.37" y="30.31" style="clip-path:url(#SVGID_62_);fill:#C4DD8C;" width="1.91" height="0.02"/>
			<rect x="58.37" y="30.33" style="clip-path:url(#SVGID_62_);fill:#C5DD8D;" width="1.91" height="0.02"/>
			<rect x="58.37" y="30.35" style="clip-path:url(#SVGID_62_);fill:#C5DE8E;" width="1.91" height="0.02"/>
			<rect x="58.37" y="30.36" style="clip-path:url(#SVGID_62_);fill:#C6DE8F;" width="1.91" height="0.02"/>
			<rect x="58.37" y="30.38" style="clip-path:url(#SVGID_62_);fill:#C6DE90;" width="1.91" height="0.02"/>
			<rect x="58.37" y="30.4" style="clip-path:url(#SVGID_62_);fill:#C7DE91;" width="1.91" height="0.02"/>
			<rect x="58.37" y="30.42" style="clip-path:url(#SVGID_62_);fill:#C7DF92;" width="1.91" height="0.02"/>
			<rect x="58.37" y="30.43" style="clip-path:url(#SVGID_62_);fill:#C8DF93;" width="1.91" height="0.02"/>
			<rect x="58.37" y="30.45" style="clip-path:url(#SVGID_62_);fill:#C8DF94;" width="1.91" height="0.02"/>
			<rect x="58.37" y="30.47" style="clip-path:url(#SVGID_62_);fill:#C9E095;" width="1.91" height="0.02"/>
			<rect x="58.37" y="30.49" style="clip-path:url(#SVGID_62_);fill:#C9E096;" width="1.91" height="0.02"/>
			<rect x="58.37" y="30.51" style="clip-path:url(#SVGID_62_);fill:#CAE097;" width="1.91" height="0.02"/>
			<rect x="58.37" y="30.52" style="clip-path:url(#SVGID_62_);fill:#CBE098;" width="1.91" height="0.02"/>
			<rect x="58.37" y="30.54" style="clip-path:url(#SVGID_62_);fill:#CBE199;" width="1.91" height="0.02"/>
			<rect x="58.37" y="30.56" style="clip-path:url(#SVGID_62_);fill:#CCE19A;" width="1.91" height="0.02"/>
			<rect x="58.37" y="30.58" style="clip-path:url(#SVGID_62_);fill:#CCE19B;" width="1.91" height="0.02"/>
			<rect x="58.37" y="30.59" style="clip-path:url(#SVGID_62_);fill:#CDE29C;" width="1.91" height="0.02"/>
			<rect x="58.37" y="30.61" style="clip-path:url(#SVGID_62_);fill:#CDE29D;" width="1.91" height="0.02"/>
			<rect x="58.37" y="30.63" style="clip-path:url(#SVGID_62_);fill:#CEE29F;" width="1.91" height="0.02"/>
			<rect x="58.37" y="30.65" style="clip-path:url(#SVGID_62_);fill:#CEE2A0;" width="1.91" height="0.02"/>
			<rect x="58.37" y="30.66" style="clip-path:url(#SVGID_62_);fill:#CFE3A1;" width="1.91" height="0.02"/>
			<rect x="58.37" y="30.68" style="clip-path:url(#SVGID_62_);fill:#CFE3A2;" width="1.91" height="0.02"/>
			<rect x="58.37" y="30.7" style="clip-path:url(#SVGID_62_);fill:#D0E3A3;" width="1.91" height="0.02"/>
			<rect x="58.37" y="30.72" style="clip-path:url(#SVGID_62_);fill:#D0E4A4;" width="1.91" height="0.02"/>
			<rect x="58.37" y="30.73" style="clip-path:url(#SVGID_62_);fill:#D1E4A5;" width="1.91" height="0.02"/>
			<rect x="58.37" y="30.75" style="clip-path:url(#SVGID_62_);fill:#D2E4A6;" width="1.91" height="0.02"/>
			<rect x="58.37" y="30.77" style="clip-path:url(#SVGID_62_);fill:#D2E4A7;" width="1.91" height="0.02"/>
			<rect x="58.37" y="30.79" style="clip-path:url(#SVGID_62_);fill:#D3E5A8;" width="1.91" height="0.02"/>
			<rect x="58.37" y="30.81" style="clip-path:url(#SVGID_62_);fill:#D3E5A9;" width="1.91" height="0.02"/>
			<rect x="58.37" y="30.82" style="clip-path:url(#SVGID_62_);fill:#D4E5AA;" width="1.91" height="0.02"/>
			<rect x="58.37" y="30.84" style="clip-path:url(#SVGID_62_);fill:#D4E6AB;" width="1.91" height="0.02"/>
			<rect x="58.37" y="30.86" style="clip-path:url(#SVGID_62_);fill:#D5E6AC;" width="1.91" height="0.02"/>
			<rect x="58.37" y="30.88" style="clip-path:url(#SVGID_62_);fill:#D5E6AD;" width="1.91" height="0.02"/>
			<rect x="58.37" y="30.89" style="clip-path:url(#SVGID_62_);fill:#D6E6AE;" width="1.91" height="0.02"/>
			<rect x="58.37" y="30.91" style="clip-path:url(#SVGID_62_);fill:#D6E7AF;" width="1.91" height="0.02"/>
			<rect x="58.37" y="30.93" style="clip-path:url(#SVGID_62_);fill:#D7E7B0;" width="1.91" height="0.02"/>
			<rect x="58.37" y="30.95" style="clip-path:url(#SVGID_62_);fill:#D8E7B1;" width="1.91" height="0.02"/>
			<rect x="58.37" y="30.96" style="clip-path:url(#SVGID_62_);fill:#D8E7B2;" width="1.91" height="0.02"/>
			<rect x="58.37" y="30.98" style="clip-path:url(#SVGID_62_);fill:#D9E8B3;" width="1.91" height="0.02"/>
			<rect x="58.37" y="31" style="clip-path:url(#SVGID_62_);fill:#D9E8B4;" width="1.91" height="0.02"/>
			<rect x="58.37" y="31.02" style="clip-path:url(#SVGID_62_);fill:#DAE8B5;" width="1.91" height="0.02"/>
			<rect x="58.37" y="31.03" style="clip-path:url(#SVGID_62_);fill:#DAE9B6;" width="1.91" height="0.02"/>
			<rect x="58.37" y="31.05" style="clip-path:url(#SVGID_62_);fill:#DBE9B7;" width="1.91" height="0.02"/>
			<rect x="58.37" y="31.07" style="clip-path:url(#SVGID_62_);fill:#DBE9B8;" width="1.91" height="0.02"/>
			<rect x="58.37" y="31.09" style="clip-path:url(#SVGID_62_);fill:#DCE9B9;" width="1.91" height="0.02"/>
			<rect x="58.37" y="31.11" style="clip-path:url(#SVGID_62_);fill:#DCEABA;" width="1.91" height="0.02"/>
			<rect x="58.37" y="31.12" style="clip-path:url(#SVGID_62_);fill:#DDEABB;" width="1.91" height="0.02"/>
			<rect x="58.37" y="31.14" style="clip-path:url(#SVGID_62_);fill:#DDEABB;" width="1.91" height="0.06"/>
		</g>
	</g>
</g>
<g>
	<defs>
		<polygon id="SVGID_81_" points="58.29,81.11 59.57,81.86 59.57,26.37 58.29,25.62 		"/>
	</defs>
	<clipPath id="SVGID_63_">
		<use xlink:href="#SVGID_81_"  style="overflow:visible;"/>
	</clipPath>
	<g style="clip-path:url(#SVGID_63_);">
		<g>
			<defs>
				
					<rect id="SVGID_83_" x="30.81" y="52.97" transform="matrix(4.555335e-03 -1 1 4.555335e-03 4.922 112.4243)" width="56.25" height="1.54"/>
			</defs>
			<clipPath id="SVGID_64_">
				<use xlink:href="#SVGID_83_"  style="overflow:visible;"/>
			</clipPath>
			<polygon style="clip-path:url(#SVGID_64_);fill:#001D14;" points="59.78,81.87 59.82,71.2 59.82,81.87 			"/>
			<polygon style="clip-path:url(#SVGID_64_);fill:#001F15;" points="59.72,81.87 59.82,59.21 59.82,71.2 59.78,81.87 			"/>
			<polygon style="clip-path:url(#SVGID_64_);fill:#002016;" points="59.67,81.87 59.82,47.23 59.82,59.21 59.72,81.87 			"/>
			<polygon style="clip-path:url(#SVGID_64_);fill:#002217;" points="59.61,81.87 59.82,35.24 59.82,47.23 59.67,81.87 			"/>
			<polygon style="clip-path:url(#SVGID_64_);fill:#002318;" points="59.56,81.87 59.81,25.61 59.82,25.61 59.82,35.24 59.61,81.87 
							"/>
			<polygon style="clip-path:url(#SVGID_64_);fill:#002419;" points="59.51,81.87 59.76,25.61 59.81,25.61 59.56,81.87 			"/>
			<polygon style="clip-path:url(#SVGID_64_);fill:#00261A;" points="59.45,81.87 59.71,25.61 59.76,25.61 59.51,81.87 			"/>
			<polygon style="clip-path:url(#SVGID_64_);fill:#00271B;" points="59.4,81.87 59.65,25.61 59.71,25.61 59.45,81.87 			"/>
			<polygon style="clip-path:url(#SVGID_64_);fill:#00281B;" points="59.35,81.87 59.6,25.61 59.65,25.61 59.4,81.87 			"/>
			<polygon style="clip-path:url(#SVGID_64_);fill:#002A1C;" points="59.29,81.87 59.54,25.61 59.6,25.61 59.35,81.87 			"/>
			<polygon style="clip-path:url(#SVGID_64_);fill:#002B1D;" points="59.24,81.87 59.49,25.61 59.54,25.61 59.29,81.87 			"/>
			<polygon style="clip-path:url(#SVGID_64_);fill:#002C1E;" points="59.18,81.87 59.44,25.61 59.49,25.61 59.24,81.87 			"/>
			<polygon style="clip-path:url(#SVGID_64_);fill:#002D1F;" points="59.13,81.87 59.38,25.61 59.44,25.61 59.18,81.87 			"/>
			<polygon style="clip-path:url(#SVGID_64_);fill:#002F20;" points="59.08,81.87 59.33,25.61 59.38,25.61 59.13,81.87 			"/>
			<polygon style="clip-path:url(#SVGID_64_);fill:#003021;" points="59.02,81.87 59.27,25.61 59.33,25.61 59.08,81.87 			"/>
			<polygon style="clip-path:url(#SVGID_64_);fill:#003121;" points="58.97,81.87 59.22,25.61 59.27,25.61 59.02,81.87 			"/>
			<polygon style="clip-path:url(#SVGID_64_);fill:#003222;" points="58.91,81.87 59.17,25.61 59.22,25.61 58.97,81.87 			"/>
			<polygon style="clip-path:url(#SVGID_64_);fill:#003323;" points="58.86,81.87 59.11,25.61 59.17,25.61 58.91,81.87 			"/>
			<polygon style="clip-path:url(#SVGID_64_);fill:#003424;" points="58.81,81.87 59.06,25.61 59.11,25.61 58.86,81.87 			"/>
			<polygon style="clip-path:url(#SVGID_64_);fill:#003524;" points="58.75,81.87 59.01,25.61 59.06,25.61 58.81,81.87 			"/>
			<polygon style="clip-path:url(#SVGID_64_);fill:#003625;" points="58.7,81.87 58.95,25.61 59.01,25.61 58.75,81.87 			"/>
			<polygon style="clip-path:url(#SVGID_64_);fill:#003726;" points="58.64,81.87 58.9,25.61 58.95,25.61 58.7,81.87 			"/>
			<polygon style="clip-path:url(#SVGID_64_);fill:#003826;" points="58.59,81.87 58.84,25.61 58.9,25.61 58.64,81.87 			"/>
			<polygon style="clip-path:url(#SVGID_64_);fill:#003927;" points="58.54,81.87 58.79,25.61 58.84,25.61 58.59,81.87 			"/>
			<polygon style="clip-path:url(#SVGID_64_);fill:#003A28;" points="58.48,81.87 58.74,25.61 58.79,25.61 58.54,81.87 			"/>
			<polygon style="clip-path:url(#SVGID_64_);fill:#003B28;" points="58.43,81.87 58.68,25.61 58.74,25.61 58.48,81.87 			"/>
			<polygon style="clip-path:url(#SVGID_64_);fill:#003C29;" points="58.37,81.87 58.63,25.61 58.68,25.61 58.43,81.87 			"/>
			<polygon style="clip-path:url(#SVGID_64_);fill:#003D2A;" points="58.32,81.87 58.57,25.61 58.63,25.61 58.37,81.87 			"/>
			<polygon style="clip-path:url(#SVGID_64_);fill:#003E2A;" points="58.27,81.87 58.52,25.61 58.57,25.61 58.32,81.87 			"/>
			<polygon style="clip-path:url(#SVGID_64_);fill:#003E2B;" points="58.21,81.87 58.47,25.61 58.52,25.61 58.27,81.87 			"/>
			<polygon style="clip-path:url(#SVGID_64_);fill:#003F2B;" points="58.16,81.87 58.41,25.61 58.47,25.61 58.21,81.87 			"/>
			<polygon style="clip-path:url(#SVGID_64_);fill:#00402B;" points="58.1,81.87 58.36,25.61 58.41,25.61 58.16,81.87 			"/>
			<polygon style="clip-path:url(#SVGID_64_);fill:#00402C;" points="58.05,81.87 58.3,25.61 58.36,25.61 58.1,81.87 			"/>
			<polygon style="clip-path:url(#SVGID_64_);fill:#00412C;" points="58.03,73.38 58.25,25.61 58.3,25.61 58.05,81.87 58.03,81.87 
							"/>
			<polygon style="clip-path:url(#SVGID_64_);fill:#00412D;" points="58.03,61.4 58.2,25.61 58.25,25.61 58.03,73.38 			"/>
			<polygon style="clip-path:url(#SVGID_64_);fill:#00422D;" points="58.03,49.41 58.14,25.61 58.2,25.61 58.03,61.4 			"/>
			<polygon style="clip-path:url(#SVGID_64_);fill:#00422D;" points="58.03,37.43 58.09,25.61 58.14,25.61 58.03,49.41 			"/>
			<polygon style="clip-path:url(#SVGID_64_);fill:#00422D;" points="58.03,34.96 58.08,25.61 58.09,25.61 58.03,37.43 			"/>
			<polygon style="clip-path:url(#SVGID_64_);fill:#00422D;" points="58.08,25.61 58.03,34.96 58.03,25.61 			"/>
		</g>
	</g>
</g>
<g>
	<defs>
		<polygon id="SVGID_85_" points="59.57,26.37 59.57,81.86 59.57,81.86 60.3,81.44 60.3,25.95 		"/>
	</defs>
	<use xlink:href="#SVGID_85_"  style="overflow:visible;fill:#004B36;"/>
	<clipPath id="SVGID_65_">
		<use xlink:href="#SVGID_85_"  style="overflow:visible;"/>
	</clipPath>
	<g style="clip-path:url(#SVGID_65_);">
		
			<rect x="31.98" y="53.42" transform="matrix(4.491265e-03 -1 1 4.491265e-03 5.761 113.6015)" style="fill:#004B36;" width="55.91" height="0.98"/>
	</g>
</g>
<g>
	<defs>
		<path id="SVGID_87_" d="M50.23,33.86c0,0-0.99,10.21-0.99,19.27c0,17.4,4.28,38.11,4.28,38.11l11.05-6.31c0,0-3.3-21.19-3.3-40.65
			V27.55L50.23,33.86z"/>
	</defs>
	<use xlink:href="#SVGID_87_"  style="overflow:visible;fill:#5AC0A0;"/>
	<clipPath id="SVGID_66_">
		<use xlink:href="#SVGID_87_"  style="overflow:visible;"/>
	</clipPath>
	<g style="clip-path:url(#SVGID_66_);">
		
			<rect x="45.65" y="26.88" transform="matrix(0.9934 -0.1146 0.1146 0.9934 -6.4324 6.9151)" style="fill:#5AC0A0;" width="22.53" height="65.03"/>
	</g>
</g>
<g>
	<defs>
		<polygon id="SVGID_89_" points="44.71,30.64 50.23,33.86 61.28,27.55 61.28,27.55 55.76,24.32 		"/>
	</defs>
	<use xlink:href="#SVGID_89_"  style="overflow:visible;fill:#8BD3BC;"/>
	<clipPath id="SVGID_67_">
		<use xlink:href="#SVGID_89_"  style="overflow:visible;"/>
	</clipPath>
	<g style="clip-path:url(#SVGID_67_);">
		<rect x="44.71" y="24.32" style="fill:#8BD3BC;" width="16.57" height="9.53"/>
	</g>
</g>
<g>
	<defs>
		<polygon id="SVGID_31_" points="46.14,29.4 50.17,31.74 59.57,26.37 55.55,24.02 		"/>
	</defs>
	<use xlink:href="#SVGID_31_"  style="overflow:visible;fill:#8BD3BC;"/>
	<clipPath id="SVGID_68_">
		<use xlink:href="#SVGID_31_"  style="overflow:visible;"/>
	</clipPath>
	<g style="clip-path:url(#SVGID_68_);">
		<rect x="46.14" y="24.02" style="fill:#8BD3BC;" width="13.43" height="7.72"/>
	</g>
</g>
<g>
	<defs>
		<polygon id="SVGID_29_" points="46.14,30.46 50.17,32.81 50.17,31.74 46.14,29.4 		"/>
	</defs>
	<use xlink:href="#SVGID_29_"  style="overflow:visible;fill:#106950;"/>
	<clipPath id="SVGID_69_">
		<use xlink:href="#SVGID_29_"  style="overflow:visible;"/>
	</clipPath>
	<g style="clip-path:url(#SVGID_69_);">
		
			<rect x="46.44" y="29.08" transform="matrix(4.512697e-03 -1 1 4.512697e-03 16.8342 79.1163)" style="fill:#106950;" width="3.43" height="4.04"/>
	</g>
</g>
<g>
	<defs>
		<polygon id="SVGID_27_" points="50.17,31.74 50.17,32.81 59.57,27.43 59.57,26.37 		"/>
	</defs>
	<use xlink:href="#SVGID_27_"  style="overflow:visible;fill:#178F70;"/>
	<clipPath id="SVGID_70_">
		<use xlink:href="#SVGID_27_"  style="overflow:visible;"/>
	</clipPath>
	<g style="clip-path:url(#SVGID_70_);">
		
			<rect x="51.63" y="24.87" transform="matrix(4.502399e-03 -1 1 4.502399e-03 25.0325 84.324)" style="fill:#178F70;" width="6.48" height="9.44"/>
	</g>
</g>
<g>
	<defs>
		<path id="SVGID_25_" d="M44.71,47.95c0,17.4-2.64,36.73-2.64,36.73l11.47,6.56c0,0-3.3-21.19-3.3-40.65V33.86l-5.53-3.22V47.95z"
			/>
	</defs>
	<use xlink:href="#SVGID_25_"  style="overflow:visible;fill:#178F70;"/>
	<clipPath id="SVGID_71_">
		<use xlink:href="#SVGID_25_"  style="overflow:visible;"/>
	</clipPath>
	<g style="clip-path:url(#SVGID_71_);">
		<rect x="42.06" y="30.64" style="fill:#178F70;" width="11.47" height="60.6"/>
	</g>
</g>
<g>
	<path style="fill:#004B36;" d="M50.27,54.25l-5.59-3.26c0,0.31-0.01,0.62-0.02,0.93l5.63,3.28C50.29,54.88,50.28,54.56,50.27,54.25
		"/>
</g>
<g>
	<polygon style="fill:#004B36;" points="44.71,35.31 50.23,38.54 50.23,37.59 44.71,34.37 	"/>
</g>
<g>
	<path style="fill:#004B36;" d="M50.32,56.23l-5.68-3.31c-0.01,0.31-0.02,0.62-0.03,0.93l5.73,3.35
		C50.34,56.87,50.33,56.55,50.32,56.23"/>
</g>
<g>
	<path style="fill:#004B36;" d="M51.27,71.89l-7.42-4.33c-0.03,0.3-0.05,0.6-0.07,0.9l7.58,4.42C51.33,72.55,51.3,72.22,51.27,71.89
		"/>
</g>
<g>
	<path style="fill:#004B36;" d="M51.45,73.95l-7.76-4.53c-0.02,0.3-0.05,0.6-0.08,0.9l7.93,4.63
		C51.52,74.62,51.49,74.29,51.45,73.95"/>
</g>
<g>
	<defs>
		<polygon id="SVGID_23_" points="46.19,32.34 47.47,33.09 48.2,32.67 46.91,31.92 		"/>
	</defs>
	<use xlink:href="#SVGID_23_"  style="overflow:visible;fill:#8BD3BC;"/>
	<clipPath id="SVGID_72_">
		<use xlink:href="#SVGID_23_"  style="overflow:visible;"/>
	</clipPath>
	<g style="clip-path:url(#SVGID_72_);">
		<rect x="46.19" y="31.92" style="fill:#8BD3BC;" width="2.01" height="1.17"/>
	</g>
</g>
<g>
	<defs>
		<polygon id="SVGID_21_" points="46.19,87.83 47.47,88.58 47.47,33.09 46.19,32.34 		"/>
	</defs>
	<use xlink:href="#SVGID_21_"  style="overflow:visible;fill:#106950;"/>
	<clipPath id="SVGID_73_">
		<use xlink:href="#SVGID_21_"  style="overflow:visible;"/>
	</clipPath>
	<g style="clip-path:url(#SVGID_73_);">
		
			<rect x="18.71" y="59.69" transform="matrix(4.493215e-03 -1 1 4.493215e-03 -13.8376 107.0133)" style="fill:#106950;" width="56.25" height="1.54"/>
	</g>
</g>
<g>
	<defs>
		<polygon id="SVGID_19_" points="47.47,33.09 47.47,88.58 48.2,88.16 48.2,32.67 48.2,32.67 		"/>
	</defs>
	<use xlink:href="#SVGID_19_"  style="overflow:visible;fill:#5AC0A0;"/>
	<clipPath id="SVGID_74_">
		<use xlink:href="#SVGID_19_"  style="overflow:visible;"/>
	</clipPath>
	<g style="clip-path:url(#SVGID_74_);">
		
			<rect x="19.88" y="60.13" transform="matrix(4.491265e-03 -1 1 4.491265e-03 -13.0013 108.1865)" style="fill:#5AC0A0;" width="55.91" height="0.98"/>
	</g>
</g>
<g>
	<defs>
		<polygon id="SVGID_17_" points="50.23,37.59 50.23,38.57 61.28,32.26 61.28,31.28 		"/>
	</defs>
	<use xlink:href="#SVGID_17_"  style="overflow:visible;fill:#178F70;"/>
	<clipPath id="SVGID_75_">
		<use xlink:href="#SVGID_17_"  style="overflow:visible;"/>
	</clipPath>
	<g style="clip-path:url(#SVGID_75_);">
		<rect x="50.23" y="31.28" style="fill:#178F70;" width="11.05" height="7.29"/>
	</g>
</g>
<g>
	<defs>
		<polygon id="SVGID_15_" points="51.25,35.1 51.25,36.07 60.35,30.87 60.35,29.9 		"/>
	</defs>
	<use xlink:href="#SVGID_15_"  style="overflow:visible;fill:#178F70;"/>
	<clipPath id="SVGID_76_">
		<use xlink:href="#SVGID_15_"  style="overflow:visible;"/>
	</clipPath>
	<g style="clip-path:url(#SVGID_76_);">
		<rect x="51.25" y="29.9" style="fill:#178F70;" width="9.1" height="6.17"/>
	</g>
</g>
<g>
	<defs>
		<polygon id="SVGID_12_" points="46.83,29.79 48.25,30.63 49.68,30.63 49.68,29.79 		"/>
	</defs>
	<clipPath id="SVGID_78_">
		<use xlink:href="#SVGID_12_"  style="overflow:visible;"/>
	</clipPath>
	<defs>
		<filter id="Adobe_OpacityMaskFilter" filterUnits="userSpaceOnUse" x="46.83" y="29.79" width="2.85" height="0.84">
			<feColorMatrix  type="matrix" values="1 0 0 0 0  0 1 0 0 0  0 0 1 0 0  0 0 0 1 0"/>
		</filter>
	</defs>
	<mask maskUnits="userSpaceOnUse" x="46.83" y="29.79" width="2.85" height="0.84" id="SVGID_80_">
		<g style="filter:url(#Adobe_OpacityMaskFilter);">
			
				<linearGradient id="SVGID_82_" gradientUnits="userSpaceOnUse" x1="-701.8073" y1="446.3527" x2="-700.2361" y2="446.3527" gradientTransform="matrix(3.3449 0 0 -3.3449 2393.4255 1523.2285)">
				<stop  offset="0" style="stop-color:#000000"/>
				<stop  offset="5.376340e-03" style="stop-color:#000000"/>
				<stop  offset="1" style="stop-color:#4D4D4D"/>
			</linearGradient>
			<rect x="46.83" y="29.79" style="clip-path:url(#SVGID_78_);fill:url(#SVGID_82_);" width="2.85" height="0.84"/>
		</g>
	</mask>
	<g style="clip-path:url(#SVGID_78_);mask:url(#SVGID_80_);">
		<g>
			<defs>
				<rect id="SVGID_13_" x="46.83" y="29.79" width="2.85" height="0.84"/>
			</defs>
			<clipPath id="SVGID_84_">
				<use xlink:href="#SVGID_13_"  style="overflow:visible;"/>
			</clipPath>
			<rect x="46.83" y="29.79" style="clip-path:url(#SVGID_84_);" width="2.85" height="0.84"/>
		</g>
	</g>
</g>
<g>
	<defs>
		<polygon id="SVGID_10_" points="48.88,25.99 49.68,26.46 50.48,26 49.68,25.53 		"/>
	</defs>
	<use xlink:href="#SVGID_10_"  style="overflow:visible;fill:#8BD3BC;"/>
	<clipPath id="SVGID_86_">
		<use xlink:href="#SVGID_10_"  style="overflow:visible;"/>
	</clipPath>
	<g style="clip-path:url(#SVGID_86_);">
		<rect x="48.88" y="25.53" style="fill:#8BD3BC;" width="1.61" height="0.93"/>
	</g>
</g>
<g>
	<defs>
		<polygon id="SVGID_8_" points="48.88,30.17 49.68,30.63 49.69,26.42 48.89,25.96 		"/>
	</defs>
	<use xlink:href="#SVGID_8_"  style="overflow:visible;fill:#106950;"/>
	<clipPath id="SVGID_88_">
		<use xlink:href="#SVGID_8_"  style="overflow:visible;"/>
	</clipPath>
	<g style="clip-path:url(#SVGID_88_);">
		<rect x="48.88" y="25.96" style="fill:#106950;" width="0.8" height="4.67"/>
	</g>
</g>
<g>
	<defs>
		<polygon id="SVGID_6_" points="49.69,26.42 49.68,30.63 50.48,30.17 50.48,25.96 		"/>
	</defs>
	<use xlink:href="#SVGID_6_"  style="overflow:visible;fill:#178F70;"/>
	<clipPath id="SVGID_90_">
		<use xlink:href="#SVGID_6_"  style="overflow:visible;"/>
	</clipPath>
	<g style="clip-path:url(#SVGID_90_);">
		
			<rect x="47.75" y="27.88" transform="matrix(4.422161e-03 -1 1 4.422161e-03 21.5664 78.2494)" style="fill:#178F70;" width="4.67" height="0.82"/>
	</g>
</g>
<g>
	<line style="fill:#178F70;" x1="49.68" y1="25.93" x2="49.72" y2="22.23"/>
	
		<rect x="47.76" y="23.98" transform="matrix(9.803451e-03 -1 1 9.803451e-03 25.1374 73.5437)" style="fill:#178F70;" width="3.89" height="0.2"/>
</g>
<g>
	<defs>
		<path id="SVGID_4_" d="M49.25,22.15c0,0.15,0.21,0.28,0.47,0.28c0.26,0,0.47-0.12,0.47-0.28l0-0.28l-0.94,0V22.15z"/>
	</defs>
	<use xlink:href="#SVGID_4_"  style="overflow:visible;fill:#004B36;"/>
	<clipPath id="SVGID_91_">
		<use xlink:href="#SVGID_4_"  style="overflow:visible;"/>
	</clipPath>
	<g style="clip-path:url(#SVGID_91_);">
		
			<rect x="49.44" y="21.68" transform="matrix(4.414288e-03 -1 1 4.414288e-03 27.3578 71.7746)" style="fill:#004B36;" width="0.57" height="0.94"/>
	</g>
</g>
<g>
	<defs>
		<path id="SVGID_2_" d="M49.72,21.59c-0.26,0-0.47,0.12-0.47,0.28c0,0.16,0.21,0.28,0.47,0.28c0.26,0,0.47-0.12,0.47-0.28
			C50.2,21.72,49.98,21.59,49.72,21.59L49.72,21.59z"/>
	</defs>
	<use xlink:href="#SVGID_2_"  style="overflow:visible;fill:#8BD3BC;"/>
	<clipPath id="SVGID_92_">
		<use xlink:href="#SVGID_2_"  style="overflow:visible;"/>
	</clipPath>
	<g style="clip-path:url(#SVGID_92_);">
		
			<rect x="49.44" y="21.4" transform="matrix(4.448963e-03 -1 1 4.448963e-03 27.6352 71.4958)" style="fill:#8BD3BC;" width="0.57" height="0.94"/>
	</g>
</g>
</svg>
